<?xml version="1.0" encoding="utf-8"?>
<!-- Generator: Adobe Illustrator 26.0.3, SVG Export Plug-In . SVG Version: 6.00 Build 0)  -->
<svg version="1.1" id="Layer_1" xmlns="http://www.w3.org/2000/svg" xmlns:xlink="http://www.w3.org/1999/xlink" x="0px" y="0px"
	 viewBox="0 0 150 135" style="enable-background:new 0 0 150 135;" xml:space="preserve">
<style type="text/css">
	.st0{fill-opacity:0;}
	.st1{fill:none;stroke:#005FBE;stroke-width:2;stroke-linecap:round;stroke-linejoin:round;}
	.st2{fill:#005FBE;}
	.st3{fill:none;stroke:#000000;stroke-width:2;stroke-linecap:round;stroke-linejoin:round;}
</style>
<rect class="st0" width="150" height="135"/>
<rect x="11" y="7" class="st0" width="125.5" height="122.2"/>
<path class="st1" d="M73.8,129.2l-47.1-15.7V87.7"/>
<path class="st1" d="M120.8,87.5v26l-47,15.7"/>
<path class="st2" d="M137.5,50.6c-0.1-0.3-0.3-0.6-0.6-0.7l-29.3-9.8l-6.7-2.2l-11.1-3.7c-0.4-0.1-0.8,0-1,0.2L73.1,50.1
	c-0.2,0.2-0.3,0.6-0.3,0.9c0.1,0.3,0.3,0.6,0.6,0.7l1.4,0.5l2.2,0.7c0.6-0.4,1.4-0.7,2.2-0.7c1.8,0,3.3,1.1,3.9,2.7l2.2,0.8l35,11.7
	c0.1,0,0.2,0,0.3,0c0.3,0,0.5-0.1,0.7-0.3l15.7-15.7C137.5,51.3,137.5,50.9,137.5,50.6z M120.5,65.4l-35.9-12l-7.7-2.6l-1.3-0.4
	l14-14.1l8.8,2.9l2.4,0.8c0.5-0.2,1.1-0.4,1.7-0.4c1.6,0,3,0.9,3.7,2.2l2.4,0.8l26,8.7L120.5,65.4z"/>
<path class="st1" d="M89.4,97.8l47.1-15.6l-15.7-15.7l-47,15.7L89.4,97.8z"/>
<path class="st1" d="M58.1,97.8L11,82.2l15.7-15.7l47.1,15.7L58.1,97.8z"/>
<path class="st1" d="M73.8,129.2v-47"/>
<path class="st1" d="M50.2,112.7l8.4,2.8l8.5,2.8"/>
<path class="st1" d="M58.6,108.9l8.5,2.8"/>
<path class="st1" d="M105.7,103.3l8.4-2.8v8.2l-8.4,2.8V103.3z"/>
<path class="st3" d="M68,17.5c2.9,0,5.2-2.3,5.2-5.2S70.9,7.1,68,7.1c-2.9,0-5.2,2.3-5.2,5.2S65.1,17.5,68,17.5z"/>
<path class="st3" d="M50.2,22.2c2.9,0,5.2-2.3,5.2-5.2c0-2.9-2.3-5.2-5.2-5.2c-2.9,0-5.2,2.3-5.2,5.2C45,19.9,47.3,22.2,50.2,22.2z"
	/>
<path class="st3" d="M37.1,45.4c2.9,0,5.2-2.3,5.2-5.2c0-2.9-2.3-5.2-5.2-5.2c-2.9,0-5.2,2.3-5.2,5.2C31.9,43.1,34.2,45.4,37.1,45.4
	z"/>
<path class="st3" d="M57.8,57.5c2.9,0,5.2-2.3,5.2-5.2c0-2.9-2.3-5.2-5.2-5.2c-2.9,0-5.2,2.3-5.2,5.2C52.6,55.2,54.9,57.5,57.8,57.5
	z"/>
<path class="st3" d="M73.3,42.4c2.9,0,5.2-2.3,5.2-5.2c0-2.9-2.3-5.2-5.2-5.2s-5.2,2.3-5.2,5.2C68.1,40.1,70.4,42.4,73.3,42.4z"/>
<path class="st3" d="M86.9,27.5c2.9,0,5.2-2.3,5.2-5.2s-2.3-5.2-5.2-5.2s-5.2,2.3-5.2,5.2S84,27.5,86.9,27.5z"/>
<path class="st3" d="M101.2,17.4c2.9,0,5.2-2.3,5.2-5.2c0-2.9-2.3-5.2-5.2-5.2C98.3,7,96,9.3,96,12.2C96,15.1,98.3,17.4,101.2,17.4z
	"/>
<path d="M108.7,42.6c-0.2-0.9-0.6-1.8-1.1-2.5c-1.1-1.5-2.9-2.5-5-2.5c-0.6,0-1.2,0.1-1.8,0.3c-0.9,0.3-1.7,0.7-2.4,1.3
	c-1.3,1.1-2.1,2.8-2.1,4.6c0,3.4,2.8,6.2,6.2,6.2c3.4,0,6.2-2.8,6.2-6.2C108.8,43.4,108.8,43,108.7,42.6z M102.6,48
	c-2.3,0-4.2-1.9-4.2-4.2c0-1.7,1-3.2,2.5-3.8c0.5-0.2,1.1-0.4,1.7-0.4c1.6,0,3,0.9,3.7,2.2c0.3,0.6,0.5,1.3,0.5,2
	C106.8,46.1,104.9,48,102.6,48z"/>
<path class="st3" d="M113.5,35.9c2.9,0,5.2-2.3,5.2-5.2s-2.3-5.2-5.2-5.2s-5.2,2.3-5.2,5.2S110.6,35.9,113.5,35.9z"/>
<path class="st3" d="M79.3,61.7c2.9,0,5.2-2.3,5.2-5.2c0-2.9-2.3-5.2-5.2-5.2s-5.2,2.3-5.2,5.2C74.1,59.4,76.4,61.7,79.3,61.7z"/>
<path class="st1" d="M73.8,129.2l-47.1-15.7V87.7"/>
<path class="st1" d="M120.8,87.5v26l-47,15.7"/>
<path class="st2" d="M74.5,50.1L58.8,34.4c-0.3-0.3-0.7-0.4-1-0.2L43.2,39l-1.9,0.6c0,0.2,0,0.4,0,0.5c0,0.6-0.1,1.2-0.3,1.7
	l2.3-0.8l14.6-4.9L72,50.4L64,53l-2.2,0.7c-0.6,1.6-2.1,2.7-3.9,2.7c-0.8,0-1.6-0.2-2.3-0.7l-2.2,0.7L27,65.4L12.8,51.2l19.9-6.6
	l2.3-0.8c-0.7-0.4-1.2-0.9-1.6-1.6l-1.9,0.6l-20.9,6.9c-0.3,0.1-0.6,0.4-0.6,0.7c-0.1,0.3,0,0.7,0.3,0.9L26,67.2
	c0.2,0.2,0.5,0.3,0.7,0.3c0.1,0,0.2,0,0.3,0L55.4,58l7.8-2.6l11-3.7c0.3-0.1,0.6-0.4,0.7-0.7C74.8,50.7,74.8,50.3,74.5,50.1z"/>
<path class="st1" d="M89.4,97.8l47.1-15.6l-15.7-15.7l-47,15.7L89.4,97.8z"/>
<path class="st1" d="M58.1,97.8L11,82.2l15.7-15.7l47.1,15.7L58.1,97.8z"/>
<path class="st1" d="M73.8,129.2v-47"/>
<path class="st1" d="M50.2,112.7l8.4,2.8l8.5,2.8"/>
<path class="st1" d="M58.6,108.9l8.5,2.8"/>
<path class="st1" d="M105.7,103.3l8.4-2.8v8.2l-8.4,2.8V103.3z"/>
<path class="st3" d="M68,17.5c2.9,0,5.2-2.3,5.2-5.2S70.9,7.1,68,7.1c-2.9,0-5.2,2.3-5.2,5.2S65.1,17.5,68,17.5z"/>
<path class="st3" d="M50.2,22.2c2.9,0,5.2-2.3,5.2-5.2c0-2.9-2.3-5.2-5.2-5.2c-2.9,0-5.2,2.3-5.2,5.2C45,19.9,47.3,22.2,50.2,22.2z"
	/>
<path d="M43.2,39c-0.5-2.9-3.1-5-6.1-5c-3.4,0-6.2,2.8-6.2,6.2c0,1,0.2,1.9,0.6,2.7c0.3,0.6,0.7,1.2,1.2,1.7
	c1.1,1.1,2.7,1.8,4.3,1.8c3.1,0,5.7-2.3,6.1-5.3c0.1-0.3,0.1-0.6,0.1-0.9C43.3,39.8,43.3,39.4,43.2,39z M37.1,44.4
	c-0.8,0-1.5-0.2-2.1-0.6c-0.7-0.4-1.2-0.9-1.6-1.6c-0.4-0.6-0.5-1.3-0.5-2.1c0-2.3,1.9-4.2,4.2-4.2c2.1,0,3.9,1.6,4.2,3.7
	c0,0.2,0,0.4,0,0.5c0,0.6-0.1,1.2-0.3,1.7C40.3,43.4,38.8,44.4,37.1,44.4z"/>
<path d="M57.8,46.1c-3.4,0-6.2,2.8-6.2,6.2c0,1.7,0.7,3.2,1.7,4.3c0.6,0.6,1.3,1.1,2,1.4c0.7,0.3,1.6,0.5,2.4,0.5
	c2.3,0,4.3-1.2,5.4-3.1c0.4-0.7,0.7-1.5,0.8-2.4c0-0.2,0-0.5,0-0.7C64,48.9,61.2,46.1,57.8,46.1z M57.8,56.5c-0.8,0-1.6-0.2-2.3-0.7
	c-1.2-0.7-1.9-2-1.9-3.5c0-2.3,1.9-4.2,4.2-4.2S62,50,62,52.3c0,0.5-0.1,1-0.3,1.5C61.1,55.4,59.6,56.5,57.8,56.5z"/>
<path class="st3" d="M73.3,42.4c2.9,0,5.2-2.3,5.2-5.2c0-2.9-2.3-5.2-5.2-5.2s-5.2,2.3-5.2,5.2C68.1,40.1,70.4,42.4,73.3,42.4z"/>
<path class="st3" d="M86.9,27.5c2.9,0,5.2-2.3,5.2-5.2s-2.3-5.2-5.2-5.2s-5.2,2.3-5.2,5.2S84,27.5,86.9,27.5z"/>
<path class="st3" d="M101.2,17.4c2.9,0,5.2-2.3,5.2-5.2c0-2.9-2.3-5.2-5.2-5.2C98.3,7,96,9.3,96,12.2C96,15.1,98.3,17.4,101.2,17.4z
	"/>
<path class="st3" d="M113.5,35.9c2.9,0,5.2-2.3,5.2-5.2s-2.3-5.2-5.2-5.2s-5.2,2.3-5.2,5.2S110.6,35.9,113.5,35.9z"/>
<path d="M85.5,55.8c-0.1-0.9-0.4-1.7-0.8-2.4c-1.1-1.8-3.1-3.1-5.3-3.1c-0.8,0-1.7,0.2-2.4,0.5c-0.8,0.3-1.5,0.8-2.1,1.4
	c-1.1,1.1-1.7,2.6-1.7,4.3c0,3.4,2.8,6.2,6.2,6.2s6.2-2.8,6.2-6.2C85.5,56.2,85.5,56,85.5,55.8z M79.3,60.7c-2.3,0-4.2-1.9-4.2-4.2
	c0-1.5,0.8-2.8,2-3.5c0.6-0.4,1.4-0.7,2.2-0.7c1.8,0,3.3,1.1,3.9,2.7c0.2,0.5,0.3,1,0.3,1.5C83.5,58.8,81.6,60.7,79.3,60.7z"/>
</svg>
