<?xml version="1.0" encoding="utf-8"?>
<!-- Generator: Adobe Illustrator 26.0.3, SVG Export Plug-In . SVG Version: 6.00 Build 0)  -->
<svg version="1.1" id="Layer_1" xmlns="http://www.w3.org/2000/svg" xmlns:xlink="http://www.w3.org/1999/xlink" x="0px" y="0px"
	 viewBox="0 0 150 135" style="enable-background:new 0 0 150 135;" xml:space="preserve">
<style type="text/css">
	.st0{fill-opacity:0;}
	.st1{fill:#005FBE;}
</style>
<rect class="st0" width="150" height="135"/>
<rect x="6" y="8" class="st0" width="138" height="122"/>
<rect x="6" y="8" class="st0" width="138" height="122"/>
<rect x="22" y="83.6" class="st0" width="110.5" height="46.4"/>
<rect x="22" y="83.6" class="st0" width="38.2" height="46.4"/>
<rect x="22" y="107.4" class="st0" width="38.2" height="22.6"/>
<path class="st1" d="M30.1,130c-0.6,0-1.1-0.4-1.1-1.1v-6.6c0-0.6,0.4-1.1,1.1-1.1c0.6,0,1.1,0.4,1.1,1.1v6.6
	C31.3,129.4,30.7,130,30.1,130z"/>
<path class="st1" d="M23.2,130c-0.6,0-1.1-0.4-1.1-1.1v-13.1c0-5.2,5-6.6,7.5-6.6H35c0,0,1-0.1,1-0.7c0-0.6,0.4-1,1.1-1
	c0.6,0,1,0.4,1,1.1c0,2-2,2.7-3,2.7h-5.4c-0.6,0-5.4,0.1-5.4,4.5v13.1C24.3,129.4,23.7,130,23.2,130z"/>
<path class="st1" d="M52.4,129.4c-0.6,0-1.1-0.4-1.1-1.1v-6.1c0-0.6,0.4-1.1,1.1-1.1c0.6,0,1.1,0.4,1.1,1.1v6.1
	C53.4,129,53,129.4,52.4,129.4z"/>
<path class="st1" d="M59.4,129.7c-0.6,0-1.1-0.4-1.1-1.1v-12.9c0-4.4-5.3-4.5-5.4-4.5h-5.4c0,0-1.1,0-1.8-0.7c-0.4-0.3-0.9-1-0.9-2
	c0-0.6,0.4-1.1,1-1.1c0.6,0,1,0.4,1.1,1c0,0.1,0,0.4,0.1,0.6c0.1,0.1,0.3,0.1,0.3,0.1h5.4c2.6,0,7.5,1.4,7.5,6.6v12.9
	C60.4,129.3,60,129.7,59.4,129.7z"/>
<path class="st1" d="M41.2,106.2c-5.5,0-10.2-5.1-10.2-11.3c0-6.2,4.5-11.3,10.2-11.3c5.5,0,10.2,5.1,10.2,11.3
	C51.4,101.2,46.9,106.2,41.2,106.2z M41.2,85.6c-4.4,0-8.1,4.1-8.1,9.2s3.5,9.2,8.1,9.2c4.4,0,8.1-4.1,8.1-9.2
	C49.3,89.9,45.8,85.6,41.2,85.6z"/>
<rect x="94.4" y="83.6" class="st0" width="38.1" height="46.4"/>
<rect x="94.4" y="107.4" class="st0" width="38.1" height="22.6"/>
<path class="st1" d="M102.5,130c-0.6,0-1.1-0.4-1.1-1.1v-6.6c0-0.6,0.4-1.1,1.1-1.1c0.6,0,1.1,0.4,1.1,1.1v6.6
	C103.5,129.4,103.1,130,102.5,130z"/>
<path class="st1" d="M95.6,130c-0.6,0-1.1-0.4-1.1-1.1v-13.1c0-5.2,5-6.6,7.5-6.6h5.4c0,0,1-0.1,1-0.7c0-0.6,0.4-1,1.1-1
	c0.6,0,1,0.4,1,1.1c0,2-2,2.7-3,2.7h-5.4c-0.6,0-5.4,0.1-5.4,4.5v13.1C96.6,129.4,96.2,130,95.6,130z"/>
<path class="st1" d="M124.7,129.4c-0.6,0-1.1-0.4-1.1-1.1v-6.1c0-0.6,0.4-1.1,1.1-1.1c0.7,0,1.1,0.4,1.1,1.1v6.1
	C125.8,129,125.3,129.4,124.7,129.4z"/>
<path class="st1" d="M131.6,129.7c-0.6,0-1.1-0.4-1.1-1.1v-12.9c0-4.4-5.3-4.5-5.4-4.5h-5.4c0,0-1.1,0-1.8-0.7c-0.4-0.3-0.9-1-0.9-2
	c0-0.6,0.4-1.1,1-1.1s1.1,0.4,1.1,1c0,0.1,0,0.4,0.1,0.6c0.1,0.1,0.3,0.1,0.3,0.1h5.4c2.6,0,7.5,1.4,7.5,6.6v12.9
	C132.8,129.3,132.2,129.7,131.6,129.7z"/>
<path class="st1" d="M113.6,106.2c-5.5,0-10.2-5.1-10.2-11.3c0-6.2,4.5-11.3,10.2-11.3c5.5,0,10.2,5.1,10.2,11.3
	C123.8,101.2,119.2,106.2,113.6,106.2z M113.6,85.6c-4.4,0-8.1,4.1-8.1,9.2s3.5,9.2,8.1,9.2c4.4,0,8.1-4.1,8.1-9.2
	C121.7,89.9,118,85.6,113.6,85.6z"/>
<rect x="58.2" y="83.6" class="st0" width="38.1" height="46.4"/>
<rect x="58.2" y="107.4" class="st0" width="38.1" height="22.6"/>
<path class="st1" d="M66.3,130c-0.6,0-1.1-0.4-1.1-1.1v-6.6c0-0.6,0.4-1.1,1.1-1.1c0.6,0,1.1,0.4,1.1,1.1v6.6
	C67.3,129.4,66.9,130,66.3,130z"/>
<path class="st1" d="M59.4,130c-0.6,0-1.1-0.4-1.1-1.1v-13.1c0-5.2,5-6.6,7.5-6.6h5.4c0,0,1-0.1,1-0.7c0-0.6,0.6-1,1.1-1
	s1,0.4,1,1.1c0,2-2,2.7-3,2.7h-5.4c-0.6,0-5.4,0.1-5.4,4.5v13.1C60.4,129.4,59.9,130,59.4,130z"/>
<path class="st1" d="M88.5,129.4c-0.6,0-1.1-0.4-1.1-1.1v-6.1c0-0.6,0.4-1.1,1.1-1.1c0.6,0,1.1,0.4,1.1,1.1v6.1
	C89.6,129,89.2,129.4,88.5,129.4z"/>
<path class="st1" d="M95.4,129.7c-0.6,0-1.1-0.4-1.1-1.1v-12.9c0-4.4-4.8-4.5-5.4-4.5h-5.4c0,0-1.1,0-1.8-0.7c-0.4-0.3-0.9-1-0.9-2
	c0-0.6,0.4-1.1,1-1.1s1,0.4,1.1,1c0,0.1,0,0.4,0.1,0.6c0.1,0.1,0.3,0.1,0.3,0.1h5.4c2.6,0,7.5,1.4,7.5,6.6v12.9
	C96.6,129.3,96.2,129.7,95.4,129.7z"/>
<path class="st1" d="M77.4,106.2c-5.5,0-10.2-5.1-10.2-11.3c0-6.2,4.5-11.3,10.2-11.3c5.5,0,10.2,5.1,10.2,11.3
	C87.6,101.2,83.1,106.2,77.4,106.2z M77.4,85.6c-4.4,0-8.1,4.1-8.1,9.2s3.5,9.2,8.1,9.2c4.4,0,8.1-4.1,8.1-9.2
	C85.5,89.9,81.8,85.6,77.4,85.6z"/>
<rect x="6" y="8" class="st0" width="138" height="86.9"/>
<rect x="6" y="9.1" class="st0" width="65.6" height="85.8"/>
<path d="M10.7,82.8c-2.6,0-4.7-2.1-4.7-4.7V42.9c0-5.4,5.1-6.9,7.8-6.9h5.5c0,0,1-0.1,1-0.7c0-0.6,0.6-1,1.1-1c0.6,0,1,0.4,1,1.1
	c0,2-2,2.7-3.1,2.8h-5.7c-0.3,0-5.7,0.1-5.7,4.8v35.2c0,1.4,1.1,2.5,2.6,2.5c1.4,0,2.6-1.1,2.6-2.5V49.7c0-0.6,0.4-1.1,1.1-1.1
	c0.6,0,1.1,0.4,1.1,1.1v28.4C15.4,80.7,13.2,82.8,10.7,82.8z"/>
<path d="M37.7,80.8c-0.6,0-1.1-0.4-1.1-1.1V45.9c0-0.1,0-0.1,0-0.3c0.1-0.8,1-2.3,2.8-2.3c1.4,0,27.4-0.1,27.4-0.1
	c0.7,0,1.3-0.3,1.8-0.7c0.4-0.4,0.7-1.1,0.7-1.8c0-0.7-0.3-1.3-0.7-1.8c-0.4-0.4-1.1-0.7-1.8-0.7c0,0-23.9,0.1-29.7,0.1h-2.7
	c-3.1,0-3.8-1.8-3.8-3c0-0.6,0.4-1.1,1.1-1.1c0.6,0,1.1,0.4,1.1,1.1c0,0.4,0.6,0.8,1.7,0.8h2.7c5.8,0,29.7-0.1,29.7-0.1
	c1.3,0,2.4,0.4,3.3,1.4c0.9,0.8,1.4,2.1,1.4,3.3c0,1.3-0.4,2.4-1.4,3.3c-0.9,0.8-2.1,1.4-3.3,1.4c0,0-26,0.1-27.4,0.1
	c-0.4,0-0.6,0.4-0.7,0.6v33.5v0.3C38.7,80.4,38.2,80.8,37.7,80.8z"/>
<path d="M26.3,94.9c-0.6,0-1.1-0.4-1.1-1.1V77.7c0-0.6,0.4-1.1,1.1-1.1c0.6,0,1.1,0.4,1.1,1.1v16.1C27.3,94.5,26.9,94.9,26.3,94.9z"
	/>
<path d="M14.4,94.9c-0.6,0-1.1-0.4-1.1-1.1V57.1c0-0.6,0.4-1.1,1.1-1.1c0.6,0,1.1,0.4,1.1,1.1v36.8C15.4,94.5,14.9,94.9,14.4,94.9z"
	/>
<path d="M26.3,32.9c-5.8,0-10.6-5.4-10.6-11.9S20.3,9.1,26.3,9.1c5.8,0,10.6,5.4,10.6,11.9S32.1,32.9,26.3,32.9z M26.3,11.3
	c-4.7,0-8.5,4.4-8.5,9.8c0,5.4,3.8,9.8,8.5,9.8s8.5-4.4,8.5-9.8C34.8,15.6,31,11.3,26.3,11.3z"/>
<path d="M138.6,72.3H56.3c-0.6,0-1.1-0.4-1.1-1.1V50c0-0.6,0.4-1.1,1.1-1.1c0.6,0,1.1,0.4,1.1,1.1v20.2h80.2v-53H57.4v14.4
	c0,0.6-0.4,1.1-1.1,1.1c-0.6,0-1.1-0.4-1.1-1.1V16.1c0.1-0.6,0.6-1,1.1-1h82.3c0.6,0,1.1,0.4,1.1,1.1v55.1
	C139.7,71.9,139.2,72.3,138.6,72.3z"/>
<path d="M142.9,17.2H52c-0.6,0-1.1-0.4-1.1-1.1V9C51,8.4,51.4,8,52,8h90.9c0.6,0,1.1,0.4,1.1,1.1v7.1
	C144,16.8,143.4,17.2,142.9,17.2z M53.1,15.1h88.7v-4.9H53.1V15.1z"/>
<path class="st1" d="M128.7,37h-9.9c-0.6,0-1.1-0.4-1.1-1.1V26c0-0.6,0.4-1.1,1.1-1.1h9.9c0.6,0,1.1,0.4,1.1,1.1v9.9
	C129.8,36.6,129.2,37,128.7,37z M119.9,34.9h7.8v-7.8h-7.8V34.9z"/>
<path class="st1" d="M128.7,62.4h-9.9c-0.6,0-1.1-0.4-1.1-1.1v-9.9c0-0.6,0.4-1.1,1.1-1.1h9.9c0.6,0,1.1,0.4,1.1,1.1v9.9
	C129.8,62,129.2,62.4,128.7,62.4z M119.9,60.3h7.8v-7.8h-7.8V60.3z"/>
<path class="st1" d="M110.2,28.5H79c-0.6,0-1.1-0.4-1.1-1.1c0-0.6,0.4-1.1,1.1-1.1h31.2c0.6,0,1.1,0.4,1.1,1.1
	C111.3,28.1,110.8,28.5,110.2,28.5z"/>
<path class="st1" d="M110.2,35.6H79c-0.6,0-1.1-0.4-1.1-1.1c0-0.6,0.4-1.1,1.1-1.1h31.2c0.6,0,1.1,0.4,1.1,1.1
	C111.3,35.1,110.8,35.6,110.2,35.6z"/>
<path class="st1" d="M110.2,53.9H79c-0.6,0-1.1-0.4-1.1-1.1c0-0.6,0.4-1.1,1.1-1.1h31.2c0.6,0,1.1,0.4,1.1,1.1
	C111.3,53.5,110.8,53.9,110.2,53.9z"/>
<path class="st1" d="M110.2,61H79c-0.6,0-1.1-0.4-1.1-1.1c0-0.6,0.4-1.1,1.1-1.1h31.2c0.6,0,1.1,0.4,1.1,1.1
	C111.3,60.6,110.8,61,110.2,61z"/>
</svg>
