<svg xmlns="http://www.w3.org/2000/svg" width="150" height="135" viewBox="0 0 150 135"><path d="M128.44238,9.0293H21.55762a5.03433,5.03433,0,0,0-5.02832,5.02881v101.356c0,4.78125,3.88672,10.55664,8.71386,10.55664h99.51368a8.72393,8.72393,0,0,0,8.71386-8.71386V14.05811A5.03433,5.03433,0,0,0,128.44238,9.0293Zm-3.68554,114.25586H25.24316c-3.10546,0-6.02832-4.43457-6.02832-7.8711V26.45752H130.78516v90.79932A6.03491,6.03491,0,0,1,124.75684,123.28516ZM21.55762,11.71484H128.44238a2.34561,2.34561,0,0,1,2.34278,2.34327V23.772H19.21484V14.05811A2.34561,2.34561,0,0,1,21.55762,11.71484Z"/><path d="M25.24316,19.08643h3.68653a1.34278,1.34278,0,0,0,0-2.68555H25.24316a1.34278,1.34278,0,0,0,0,2.68555Z"/><path d="M36.30078,19.08643h3.68555a1.34278,1.34278,0,0,0,0-2.68555H36.30078a1.34278,1.34278,0,0,0,0,2.68555Z"/><path d="M47.35742,19.08643H51.043a1.34278,1.34278,0,0,0,0-2.68555H47.35742a1.34278,1.34278,0,0,0,0,2.68555Z"/><path d="M120.10938,20.29932a1.30317,1.30317,0,0,0,1.84472.00048l.83789-.83593.834.83447a1.30378,1.30378,0,0,0,1.84668.001,1.30763,1.30763,0,0,0-.001-1.84278l-.83691-.83593.83789-.83741a1.30791,1.30791,0,0,0-.002-1.84375,1.30319,1.30319,0,0,0-1.84375.00049l-.83593.83643-.83594-.83594a1.305,1.305,0,0,0-1.84668,0,1.30821,1.30821,0,0,0,.001,1.84326l.83691.83692-.83789.83593A1.30763,1.30763,0,0,0,120.10938,20.29932Z"/><path d="M38.14355,104.85645H30.77246a1.34451,1.34451,0,0,0-1.34277,1.34277v7.37109a1.34473,1.34473,0,0,0,1.34277,1.34375h7.37109a1.34473,1.34473,0,0,0,1.34278-1.34375v-7.37109A1.34451,1.34451,0,0,0,38.14355,104.85645Zm-6.02832,7.37109V107.542h4.68555v4.68555Z"/><path d="M45.51465,107.542H108.1709a1.34277,1.34277,0,0,0,0-2.68554H45.51465a1.34277,1.34277,0,1,0,0,2.68554Z"/><path d="M108.1709,112.22754H45.51465a1.34326,1.34326,0,0,0,0,2.68652H108.1709a1.34326,1.34326,0,0,0,0-2.68652Z"/><path d="M128.71973,80.17285l-2.62012-9.1748V48.86328l-.07617-.22266a1.34588,1.34588,0,0,0-.88574-.85693L75.38086,33.0415a1.3422,1.3422,0,0,0-.76172,0L24.8623,47.7832a1.34282,1.34282,0,0,0,.04493,2.58789l19.26465,4.99463V76.71387C44.17188,85.09961,56.84863,90.957,75,90.957s30.82812-5.85742,30.82812-14.24316V55.36572l17.58594-4.55957v20.1919l-2.62109,9.1748a4.12233,4.12233,0,1,0,7.92676,0ZM75,88.27148c-18.2793,0-28.14258-5.95507-28.14258-11.55761V68.19434l.835.75a16.09957,16.09957,0,0,0,1.68555,1.34375,1.34224,1.34224,0,1,0,1.52539-2.209c-2.64648-1.82324-4.0459-3.93506-4.0459-6.10742V56.062l27.80664,7.20947a1.33128,1.33128,0,0,0,.67285-.00048l27.80567-7.209v5.90967c0,5.60254-9.86328,11.55664-28.14258,11.55664a64.45288,64.45288,0,0,1-13.665-1.34473,1.4204,1.4204,0,0,0-.28418-.03027,1.34922,1.34922,0,0,0-1.3125,1.05176,1.3424,1.3424,0,0,0,1.02539,1.60058A66.98253,66.98253,0,0,0,75,76.21387c12.209,0,22.16309-2.63867,27.30859-7.24024l.834-.74609v8.48633C103.14258,82.31641,93.2793,88.27148,75,88.27148Zm44.73926-39.28613L75,60.584,30.26074,48.98535,75,35.72949Zm3.63379,31.92481,1.38476-4.83692,1.38184,4.83692a1.43823,1.43823,0,1,1-2.7666,0Z" style="fill:#005fbe"/></svg>