<?xml version="1.0" encoding="utf-8"?>
<!-- Generator: Adobe Illustrator 26.0.3, SVG Export Plug-In . SVG Version: 6.00 Build 0)  -->
<svg version="1.1" id="Layer_1" xmlns="http://www.w3.org/2000/svg" xmlns:xlink="http://www.w3.org/1999/xlink" x="0px" y="0px"
	 viewBox="0 0 150 135" style="enable-background:new 0 0 150 135;" xml:space="preserve">
<style type="text/css">
	.st0{fill-opacity:0;}
	.st1{fill:none;stroke:#000000;stroke-width:2;stroke-miterlimit:10;}
	.st2{fill:none;stroke:#005FBE;stroke-width:1.5;stroke-miterlimit:10;}
	.st3{fill:none;stroke:#005FBE;stroke-width:1.5;stroke-linecap:round;stroke-linejoin:round;}
	.st4{fill:none;stroke:#000000;stroke-width:1.88;stroke-miterlimit:10;}
	.st5{fill:none;stroke:#000000;stroke-width:1.5;stroke-miterlimit:10;}
	.st6{fill:#005FBE;}
</style>
<rect class="st0" width="150" height="135"/>
<rect class="st0" width="150" height="135"/>
<rect x="11" y="19" class="st0" width="127.7" height="98"/>
<path class="st1" d="M81,92.7H45.7"/>
<path class="st1" d="M23.9,60V25.5c0-1.7,0.7-3.4,1.9-4.6s2.9-1.9,4.6-1.9h84.7c1.7,0,3.4,0.7,4.6,1.9c1.2,1.2,1.9,2.9,1.9,4.6V42"
	/>
<path class="st1" d="M49.6,110.4H81"/>
<path class="st1" d="M63.7,92.6c0,7.6-4,15.7-8.6,17.6"/>
<path class="st1" d="M45.8,77.7h34.9"/>
<rect x="48" y="24" class="st0" width="48.3" height="49.3"/>
<path class="st2" d="M63.4,71.9c-0.2,0-0.3-0.1-0.4-0.2L49.6,58.4c-0.1-0.1-0.1-0.1-0.1-0.2c0-0.1,0-0.1,0-0.2c0-0.1,0-0.2,0-0.2
	c0-0.1,0.1-0.1,0.1-0.2l4.6-4.6c-0.5-0.2-0.9-0.4-1.3-0.8c-0.3-0.3-0.6-0.7-0.7-1.1c-0.2-0.4-0.3-0.8-0.3-1.3c0-0.6,0.2-1.3,0.6-1.8
	c0.4-0.5,0.9-1,1.5-1.2c0.6-0.2,1.3-0.3,1.9-0.2c0.6,0.1,1.2,0.4,1.7,0.9c0.4,0.4,0.6,0.8,0.8,1.3l4.6-4.6c0.1-0.1,0.1-0.1,0.2-0.1
	c0.1,0,0.1,0,0.2,0c0.1,0,0.2,0,0.2,0c0.1,0,0.1,0.1,0.2,0.1l4.6,4.6c0.2-0.5,0.4-0.9,0.8-1.3c0.3-0.3,0.7-0.5,1.1-0.7
	c0.4-0.2,0.8-0.2,1.3-0.2c0.6,0,1.3,0.2,1.8,0.6c0.5,0.4,1,0.9,1.2,1.5c0.2,0.6,0.3,1.3,0.2,1.9s-0.4,1.2-0.9,1.7
	c-0.4,0.3-0.8,0.6-1.2,0.8l4.6,4.6c0.1,0.1,0.2,0.3,0.2,0.4c0,0.2-0.1,0.3-0.2,0.4l-5.1,5.1c-0.1,0.1-0.2,0.1-0.3,0.1
	c-0.1,0-0.2,0-0.3,0c-0.1,0-0.2-0.1-0.3-0.2c-0.1-0.1-0.1-0.2-0.1-0.3c-0.1-0.4-0.2-0.7-0.5-0.9c-0.2-0.3-0.6-0.5-0.9-0.6
	c-0.3-0.1-0.7-0.1-1.1,0c-0.3,0.1-0.7,0.3-0.9,0.5c-0.3,0.3-0.4,0.6-0.5,0.9c-0.1,0.3-0.1,0.7,0,1.1c0.1,0.3,0.3,0.7,0.6,0.9
	c0.3,0.2,0.6,0.4,0.9,0.5c0.1,0,0.2,0.1,0.3,0.1c0.1,0.1,0.1,0.2,0.2,0.3c0,0.1,0,0.2,0,0.3c0,0.1-0.1,0.2-0.2,0.3l-5.2,5.2
	C63.7,71.9,63.6,71.9,63.4,71.9L63.4,71.9z"/>
<path class="st3" d="M57.4,69.7l-3.2,3.4"/>
<path class="st3" d="M51.5,64.5l-3,3"/>
<path class="st3" d="M54.1,67.1L48,73.3"/>
<path class="st3" d="M92.8,33.4l3.3-3.3"/>
<path class="st3" d="M87.5,27.6l3-3"/>
<path class="st3" d="M90.2,30.2l6.2-6.2"/>
<path class="st3" d="M80,51l1,1"/>
<path class="st3" d="M93,41.9l1.3-1.3c0.1-0.1,0.2-0.3,0.3-0.5c0.1-0.2,0.1-0.4,0.1-0.6c0-0.2,0-0.4-0.1-0.6
	c-0.1-0.2-0.2-0.3-0.3-0.5L82.9,27.4c-0.1-0.1-0.3-0.2-0.5-0.3C82.3,27,82.1,27,81.9,27c-0.2,0-0.4,0-0.6,0.1
	c-0.2,0.1-0.3,0.2-0.5,0.3l-3.8,3.9c0.6,0.1,1.2,0.4,1.6,0.8c0.5,0.4,0.8,0.9,1,1.5c0.2,0.6,0.2,1.2,0.1,1.8
	c-0.1,0.6-0.5,1.2-0.9,1.6c-0.4,0.4-1,0.8-1.6,0.9c-0.6,0.2-1.2,0.1-1.8,0c-0.6-0.2-1.1-0.5-1.6-1c-0.4-0.5-0.7-1-0.8-1.6l-3.3,3.3
	c-0.1,0.1-0.2,0.3-0.3,0.5c-0.1,0.2-0.1,0.4-0.1,0.6c0,0.2,0,0.4,0.1,0.6c0.1,0.2,0.2,0.3,0.3,0.5l3.3,3.3c0.1-0.6,0.4-1.1,0.9-1.6
	c0.4-0.4,1-0.8,1.5-0.9c0.6-0.2,1.2-0.2,1.8,0c0.6,0.2,1.1,0.5,1.6,0.9c0.4,0.4,0.7,1,0.9,1.5c0.2,0.6,0.2,1.2,0,1.8
	c-0.2,0.6-0.5,1.1-0.9,1.5c-0.4,0.4-1,0.7-1.6,0.9L80,51"/>
<path class="st4" d="M41.1,62.5H18.5L11,70v31.1c0,0.3,0,0.5,0.1,0.7c0.1,0.2,0.2,0.4,0.4,0.6c0.2,0.2,0.4,0.3,0.6,0.4
	c0.2,0.1,0.5,0.1,0.7,0.1h28.2c0.5,0,1-0.2,1.3-0.6c0.4-0.4,0.6-0.8,0.6-1.3V64.4c0-0.5-0.2-1-0.6-1.3
	C42.1,62.7,41.6,62.5,41.1,62.5L41.1,62.5z"/>
<path class="st5" d="M13.8,71h5.6v-5.6"/>
<path class="st2" d="M29.1,84.1h-4.3c-0.8,0-1.7,0.3-2.3,0.8c-0.6,0.6-1.1,1.3-1.2,2.2c0,0.1,0,0.2,0,0.3v4.1c0,1.5,0.7,2.8,1.7,3.9
	c1.1,1,2.5,1.6,3.9,1.5c1.5,0,2.9-0.5,3.9-1.5c1.1-1,1.7-2.4,1.7-3.8v-4.1c0-0.1,0-0.2,0-0.3c-0.1-0.8-0.5-1.6-1.2-2.2
	C30.8,84.4,30,84.1,29.1,84.1z"/>
<path class="st2" d="M29.8,84.1v-1.8c0-0.4,0-0.8-0.2-1.1c-0.1-0.4-0.3-0.7-0.6-0.9c-0.3-0.3-0.6-0.5-0.9-0.6
	c-0.3-0.1-0.7-0.2-1.1-0.2c-0.4,0-0.7,0.1-1.1,0.2c-0.3,0.1-0.7,0.3-0.9,0.6c-0.3,0.3-0.5,0.6-0.6,0.9c-0.1,0.3-0.2,0.7-0.2,1.1v1.9
	"/>
<path class="st2" d="M25,79.6l-2-4.6"/>
<path class="st2" d="M29.1,79.6l2-4.6"/>
<path class="st2" d="M32.7,86l1.9-1.9l0.9-3.8"/>
<path class="st2" d="M32.7,93.5l1.9,1.9l0.9,2.8"/>
<path class="st2" d="M32.7,88.8l2.8,0.9l1.9,2.8"/>
<path class="st2" d="M21.4,86l-1.9-1.9l-0.9-3.8"/>
<path class="st2" d="M21.4,93.5l-1.9,1.9l-0.9,2.8"/>
<path class="st2" d="M21.4,88.8l-2.8,0.9l-1.9,2.8"/>
<path class="st6" d="M99.6,94.1l-0.2-0.2l-0.2-0.2L99,93.4l-0.2-0.2c-1.1-0.9-2.5-1.4-3.9-1.4c-1,0-2,0.2-2.8,0.7l-0.2,0.1h-0.1
	l-0.1,0.1l-0.2,0.1c-0.3,0.2-0.6,0.5-0.9,0.8h-0.1c-0.7,0.9-1.2,1.8-1.5,2.9c0,0,0,0,0,0.1C89,96.8,89,97,88.9,97.3
	c-0.5,1.8-0.8,3.7-1,5.5c-0.1,0.9-0.2,1.6-0.2,1.6c0,0.1,0,0.2,0.1,0.3c0,0.1,0.1,0.2,0.2,0.3c0.1,0.1,0.3,0.2,0.5,0.2l1.6-0.2
	c1.9-0.2,3.7-0.5,5.5-1l0.7-0.2h0.1c1-0.3,1.9-0.8,2.7-1.5c0.3-0.3,0.5-0.6,0.8-0.9l0.1-0.2c0,0,0,0,0-0.1v-0.1
	c0-0.1,0.1-0.1,0.1-0.2c0.6-1.1,0.8-2.3,0.7-3.4c-0.1-1.2-0.6-2.3-1.3-3.2L99.6,94.1z M92.4,93.9L92.4,93.9l0.2-0.1l0.1,0
	c0.7-0.3,1.5-0.5,2.3-0.4c0.8,0.1,1.5,0.3,2.2,0.7l0.2,0.1l0.1,0.1h0.1l0.1,0.1l0.2,0.2l0.2,0.2l0.1,0.1l0.1,0.1l0.1,0.2
	c0.6,0.6,0.9,1.4,1.1,2.2c0.2,0.8,0.1,1.7-0.2,2.5v0.1c0,0-0.1,0.1-0.1,0.1c-0.2,0.3-0.4,0.6-0.7,0.9c-0.7,0.6-1.5,1-2.4,1.2
	l-0.8,0.2H95h-0.3c-1.8,0.4-3.7,0.8-5.6,0.9c0.2-1.8,0.5-3.5,1-5.3c0,0,0,0,0-0.1v-0.2c0.1-0.3,0.1-0.5,0.2-0.8
	c0.2-0.9,0.6-1.7,1.2-2.4C91.8,94.4,92.1,94.1,92.4,93.9z"/>
<path class="st6" d="M91.1,101.6c0.1,0.1,0.2,0.1,0.2,0.2c0.1,0,0.2,0.1,0.3,0.1c0.1,0,0.1,0,0.2,0c0.8-0.2,4.8-1.4,5.8-2.4
	c0.6-0.6,0.9-1.3,0.9-2.2c0-0.8-0.3-1.6-0.9-2.2c-0.6-0.6-1.3-0.9-2.2-0.9c-0.8,0-1.6,0.3-2.2,0.9c-1,1-2.2,5-2.4,5.8
	c0,0.1,0,0.3,0,0.4S91,101.5,91.1,101.6z M92.7,100c0.4-1.3,0.9-2.6,1.6-3.8c0.3-0.3,0.7-0.4,1.1-0.4c0.2,0,0.4,0,0.6,0.1
	c0.2,0.1,0.4,0.2,0.5,0.4c0.2,0.2,0.3,0.4,0.3,0.6c0.1,0.2,0.1,0.4,0.1,0.6c0,0.4-0.2,0.7-0.4,1C95.4,99.1,94.1,99.7,92.7,100z"/>
<path class="st6" d="M133.3,59.9c0-0.1-0.1-0.2-0.2-0.3c-0.1-0.1-0.2-0.2-0.3-0.2c-1.8-0.4-3.6-0.4-5.3-0.2c-4,0.4-7.8,2.3-10.7,5.2
	c-1.7,1.7-5,5.5-8.9,10.3l-8.1,1.8c-1.2,0.3-2.4,0.9-3.3,1.8l-5.6,5.6c-0.1,0.1-0.2,0.2-0.2,0.4c0,0.1,0,0.3,0.1,0.4
	c0,0.1,0.1,0.1,0.1,0.2C91,85,91,85,91.1,85c0.1,0,0.2,0,0.3,0l8.9-0.9c-0.1,0.3-0.2,0.7-0.3,1l-3,1.6c-0.1,0.1-0.2,0.1-0.3,0.2
	c-0.1,0.1-0.1,0.2-0.1,0.3s0,0.2,0,0.3c0,0.1,0.1,0.2,0.2,0.3l7.8,7.8c0.1,0.1,0.3,0.2,0.5,0.2h0.1c0.1,0,0.2-0.1,0.3-0.1
	c0.1-0.1,0.2-0.1,0.2-0.2l1.7-3.1c0.3,0,0.6-0.1,0.9-0.3l-0.9,8.9c0,0.1,0,0.2,0,0.3c0,0.1,0.1,0.2,0.2,0.3c0.1,0.1,0.1,0.1,0.2,0.1
	c0.1,0,0.2,0.1,0.3,0.1c0.2,0,0.4-0.1,0.5-0.2l5.6-5.6c0.9-0.9,1.5-2,1.8-3.3l1.8-8c4.8-3.9,8.6-7.2,10.4-8.9
	c2.9-2.9,4.7-6.6,5.2-10.7C133.8,63.5,133.7,61.7,133.3,59.9z M116.2,86.3l-1.4,6.3c-0.2,1-0.7,1.9-1.4,2.6l-4.2,4.2l0.8-8.2
	C112.1,89.6,114.2,87.9,116.2,86.3z M106.4,76.4c-1.7,2-3.3,4.1-4.9,6.2l-8.2,0.8l4.2-4.2c0.7-0.7,1.6-1.2,2.6-1.4L106.4,76.4z
	 M113.1,80.7c0.1-0.1,0.2-0.2,0.2-0.4s0-0.3,0-0.4c-0.1-0.1-0.1-0.2-0.3-0.3c-0.1-0.1-0.3-0.1-0.4-0.1c-0.2,0-0.4,0.1-0.5,0.2
	l-8.5,8.5l-1.6-1.6c-0.3-0.3-0.4-0.6-0.4-1c0-0.4,0.1-0.7,0.3-1c2.2-2.9,4.6-5.9,6.9-8.8l0.1-0.1c4-4.9,7.2-8.7,9-10.4
	c1.8-1.8,4.1-3.2,6.6-4l7,7c-0.8,2.5-2.2,4.7-4,6.6c-1.7,1.7-5.5,5-10.4,9H117c-2.8,2.3-5.9,4.7-8.8,6.9c-0.3,0.2-0.7,0.3-1,0.3
	c-0.4,0-0.7-0.2-1-0.4l-1.6-1.6L113.1,80.7z M106.1,92.3l-1,1.8l-6.4-6.4l1.7-0.9c0.1,0.3,0.3,0.6,0.6,0.8l4.1,4.1
	C105.3,92,105.7,92.2,106.1,92.3z M131.9,66.7l-5.9-5.9c0.5-0.1,1.1-0.2,1.6-0.2c1.5-0.2,3-0.1,4.4,0.1
	C132.3,62.7,132.3,64.7,131.9,66.7L131.9,66.7z"/>
<path class="st6" d="M118.2,74.7c0.2,0.2,0.4,0.4,0.4,0.4c1,0.7,2.1,1.1,3.3,1.1c1.3,0,2.6-0.5,3.6-1.3c1-0.9,1.7-2,1.9-3.3
	c0.2-1.3,0-2.6-0.7-3.8c-0.7-1.1-1.7-2-3-2.4c-0.5-0.2-1.1-0.3-1.7-0.3c0,0-0.3,0-0.6,0c-0.3,0-0.5,0.1-0.6,0.1
	c-1,0.2-1.9,0.6-2.6,1.3c-0.7,0.6-1.3,1.5-1.6,2.4c-0.3,0.9-0.4,1.9-0.2,2.9c0.2,1,0.6,1.9,1.3,2.6C117.9,74.4,118,74.6,118.2,74.7z
	 M123.8,74.3c-1,0.5-2.1,0.6-3.2,0.2c-0.8-0.3-1.5-0.8-1.9-1.4c-0.5-0.6-0.8-1.4-0.8-2.2c-0.1-0.8,0.1-1.6,0.6-2.3
	c0.4-0.7,1-1.3,1.8-1.6c0.6-0.3,1.2-0.4,1.8-0.4c0.5,0,0.9,0.1,1.3,0.2c0.8,0.3,1.5,0.8,2,1.4c0.5,0.7,0.8,1.4,0.8,2.3
	c0.1,0.8-0.1,1.6-0.6,2.3C125.1,73.4,124.5,74,123.8,74.3L123.8,74.3z"/>
<path class="st6" d="M123,67.7c-0.7-0.3-1.5-0.3-2.2,0s-1.3,0.9-1.5,1.6c-0.1,0.2-0.1,0.4,0,0.5c0.1,0.2,0.2,0.3,0.4,0.4
	c0.1,0,0.2,0,0.3,0c0.1,0,0.3,0,0.4-0.1c0.1-0.1,0.2-0.2,0.3-0.3c0.1-0.4,0.4-0.6,0.8-0.8c0.4-0.1,0.8-0.1,1.1,0
	c0.1,0,0.2,0.1,0.3,0.1c0.1,0,0.2,0,0.3-0.1c0.1,0,0.2-0.1,0.2-0.2c0.1-0.1,0.1-0.1,0.2-0.2c0-0.1,0.1-0.2,0.1-0.3s0-0.2-0.1-0.3
	c0-0.1-0.1-0.2-0.2-0.2C123.1,67.8,123.1,67.8,123,67.7z"/>
<path class="st1" d="M136.7,117H85.3c-0.5,0-1-0.2-1.4-0.6c-0.4-0.4-0.6-0.9-0.6-1.4V46c0-0.5,0.2-1,0.6-1.4
	c0.4-0.4,0.9-0.6,1.4-0.6h46.5l6.9,8.2V115c0,0.5-0.2,1-0.6,1.4C137.7,116.8,137.2,117,136.7,117z"/>
<path class="st5" d="M128.5,46.5v7h7"/>
</svg>
