<?xml version="1.0" encoding="UTF-8" standalone="no"?>
<svg width="136px" height="172px" viewBox="0 0 136 172" version="1.1" xmlns="http://www.w3.org/2000/svg" xmlns:xlink="http://www.w3.org/1999/xlink" xmlns:sketch="http://www.bohemiancoding.com/sketch/ns">
    <!-- Generator: Sketch 3.4 (15575) - http://www.bohemiancoding.com/sketch -->
    <title>competitions</title>
    <desc>Created with Sketch.</desc>
    <defs></defs>
    <g id="New-teachers-page" stroke="none" stroke-width="1" fill="none" fill-rule="evenodd" sketch:type="MSPage">
        <g id="Desktop-HD" sketch:type="MSArtboardGroup" transform="translate(-934.000000, -2624.000000)">
            <g id="short-activities-+-courses-and-comps" sketch:type="MSLayerGroup" transform="translate(149.000000, 2085.000000)">
                <g id="competitions" transform="translate(569.000000, 539.000000)" sketch:type="MSShapeGroup">
                    <g transform="translate(216.000000, 0.000000)">
                        <path d="M44.0761835,139.897541 L40.3190092,138.531009 L88.9808073,4.54300917 L92.7379817,5.90954128 L44.0761835,139.897541" id="Fill-2" fill="#A3A4A0"></path>
                        <path d="M123.641174,70.8387523 C123.641174,104.624917 96.2489908,132.015523 62.4644037,132.015523 C28.6766606,132.015523 1.28763303,104.624917 1.28763303,70.8387523 C1.28763303,37.0525872 28.6766606,9.66355963 62.4644037,9.66355963 C96.2489908,9.66355963 123.641174,37.0525872 123.641174,70.8387523" id="Fill-3" fill="#1B79BF"></path>
                        <path d="M76.3490642,44.1929541 C76.3490642,44.1929541 73.2215046,40.1343853 64.4289908,43.6122569 C64.4289908,43.6122569 48.9900183,52.892367 48.7911927,62.1708991 C48.7911927,62.1708991 44.4927706,80.5370275 60.716,83.0475963 C60.716,83.0475963 77.7187523,77.4441835 79.8695413,84.0164771 C79.8695413,84.0164771 80.4549725,92.1351927 82.0187523,93.8741284 C82.0187523,93.8741284 84.5561468,97.609211 84.362055,99.8657248 C84.362055,99.8657248 82.6041835,107.403743 84.9490642,113.205982 C84.9490642,113.205982 86.512844,118.230275 86.3203303,119.779853 C86.3203303,119.779853 101.170716,115.525615 105.858899,101.606239 C105.858899,101.606239 108.598275,91.9411009 108.792367,89.4257982 C108.792367,89.4257982 112.69945,78.2158165 113.677798,74.736367 C113.677798,74.736367 117.195119,64.2964404 111.331339,65.6487706 C111.331339,65.6487706 107.228587,61.7842936 104.298275,58.8839633 C101.366385,55.983633 95.6998532,44.9677431 94.1344954,43.9988624 C94.1344954,43.9988624 81.0404037,46.7066789 76.3490642,44.1929541 Z" id="Fill-4" fill="#3DAE3B"></path>
                        <path d="M107.228587,58.4989358 L90.8096881,43.4213211 C90.8096881,43.4213211 94.3270092,40.3284771 93.1577248,38.5879633 C91.9821284,36.8458716 89.443156,39.1702385 87.2955229,39.1702385 C85.1463119,39.1702385 82.212844,40.9075963 81.0404037,39.3611743 C79.8695413,37.8115963 79.0852844,38.1997798 77.914422,39.1702385 C76.7404037,40.1343853 74.5911927,41.6808073 74.393945,40.7135046 C74.1998532,39.7462018 70.6825321,40.1343853 70.4837064,39.1702385 C70.2911927,38.1997798 71.0722936,35.4966972 69.314422,36.0758165 C67.5581284,36.6533578 65.016,38.5879633 64.6215046,39.5552661 C64.2333211,40.5225688 62.865211,43.4213211 61.493945,43.4213211 C60.1289908,43.4213211 56.6116697,44.1929541 56.0230826,43.0331376 C55.4376514,41.8733211 54.265211,38.0072661 55.4376514,36.8458716 C56.6116697,35.687633 62.347633,36.9105688 62.0825321,35.4966972 C61.8174312,34.0765138 61.142055,30.9663119 62.005211,30.5228991 C62.865211,30.0826422 65.2116697,25.0551927 66.7707156,24.4760734 C68.3344954,23.8937982 72.4404037,26.0209174 73.0289908,24.6701651 C73.0289908,24.6701651 73.2215046,20.6100183 72.4404037,20.0293211 C71.6577248,19.4502018 71.0722936,17.7096881 69.7057615,17.9006239 C68.3344954,18.0962936 67.7506422,19.4502018 68.7274128,20.0293211 C69.7057615,20.6100183 70.4837064,22.9296514 69.8998532,22.9296514 C69.314422,22.9296514 64.0360734,23.3162569 63.8404037,21.9639266 C63.6463119,20.6100183 64.4289908,17.3230826 66.1837064,16.1632661 C67.9447339,15.0034495 71.6577248,15.1943853 72.8317431,15.7766606 C74.0057615,16.3573578 75.3722936,15.1943853 75.763633,14.2302385 C76.1565505,13.2660917 70.2091376,10.0280734 68.4481101,10.0280734 C68.4481101,10.0280734 114.766606,13.4854312 122.714899,60.8390826 C122.714899,60.8390826 117.78055,44.5795596 114.462055,43.6122569 C114.462055,43.6122569 112.69945,44.7752294 111.525431,44.5795596 C110.352991,44.3854679 104.492367,40.7135046 104.102606,41.6808073 C103.709688,42.6481101 106.838826,45.9334679 110.160477,46.3169174 C113.48055,46.7066789 113.677798,47.0932844 113.875046,48.8322202 C114.069138,50.571156 114.654569,53.2773945 114.264807,55.0179083 C113.875046,56.758422 111.525431,61.9783853 107.228587,58.4989358" id="Fill-5" fill="#3DAE3B"></path>
                        <path d="M58.7608807,24.0894679 C58.7608807,24.0894679 57.1955229,25.0551927 56.414422,26.405945 C55.6317431,27.7598532 55.6317431,28.9212477 55.6317431,28.9212477 C55.6317431,28.9212477 56.6242936,29.498789 57.6247339,29.5051009 C58.6267523,29.5082569 61.3014312,28.5362202 61.3014312,27.1823119 C61.3014312,25.8284037 58.7608807,24.0894679 58.7608807,24.0894679" id="Fill-6" fill="#3DAE3B"></path>
                        <path d="M56.414422,12.4928807 C56.414422,12.4928807 51.7262385,18.0962936 49.3797798,18.6769908 C47.0333211,19.2576881 43.1293945,21.1875596 42.1478899,21.9639266 C41.1711193,22.7371376 37.8494679,21.3816514 39.8030092,19.8383853 C41.7565505,18.2903853 47.0333211,14.8093578 45.8624587,14.4211743 C44.6884404,14.0377248 39.4132477,17.7096881 37.2624587,19.2576881 C35.1132477,20.8025321 33.3522202,23.1205872 32.3770275,24.6701651 C31.3986789,26.2165872 31.5943486,30.273578 29.4451376,31.046789 C27.2943486,31.823156 17.9132477,35.687633 14.7872661,38.3954495 C11.6597064,41.0985321 8.29229358,43.0978349 6.9226055,45.8040734 C5.55607339,48.5103119 7.61533945,41.4851376 8.82407339,38.8909358 C8.82407339,38.8909358 17.1353028,24.0894679 36.0900183,14.8093578 C36.0900183,14.8093578 50.5537982,11.1373945 56.414422,12.4928807" id="Fill-7" fill="#3DAE3B"></path>
                        <path d="M1.69475229,80.5370275 C1.69475229,80.5370275 -0.261944954,70.0971009 1.88884404,69.1282202 C4.03489908,68.1640734 4.68502752,67.9605138 6.58018349,69.9030092 C8.4706055,71.8502385 11.0726972,75.1245505 12.0494679,76.8619083 C13.0262385,78.602422 16.5451376,80.7279633 16.5451376,82.0802936 C16.5451376,83.4373578 15.7640367,86.7227156 16.5451376,88.2675596 C17.3278165,89.8155596 18.5002569,90.0096514 20.2581284,90.7812844 C22.0207339,91.5513394 25.3408073,92.711156 27.2943486,94.4548257 C29.2478899,96.1953394 31.9841101,98.3208807 31.3986789,100.640514 C30.8132477,102.960147 29.6408073,106.439596 30.0305688,107.791927 C30.4219083,109.145835 31.7915963,111.46389 30.2293945,112.431193 C28.6640367,113.398495 27.4900183,113.205982 27.6856881,114.943339 C27.8829358,116.682275 29.839633,122.090018 30.4282202,123.057321 C30.4282202,123.057321 6.05787156,112.686826 1.69475229,80.5370275" id="Fill-8" fill="#3DAE3B"></path>
                        <path d="M4.36154128,59.0559633 C4.75288073,57.702055 5.72965138,50.9388257 4.55563303,50.9388257 C2.26124771,59.3968073 2.34488073,59.2895046 1.42807339,65.6282569" id="Fill-9" fill="#3DAE3B"></path>
                        <path d="M131.349615,94.947156 C144.885541,56.3891743 124.599009,14.1592294 86.0410275,0.624880734 L83.6140917,7.54748624 C118.348624,19.7373945 136.624807,57.7809541 124.428587,92.5170642 C112.237101,127.25633 74.1951193,145.530936 39.4558532,133.337872 L37.0289174,140.258899 C75.5868991,153.79167 117.816844,133.506716 131.349615,94.947156" id="Fill-10" fill="#B9B8B4"></path>
                        <path d="M63.1792294,142.067266 L63.1792294,168.698862 C63.379633,168.70044 63.5768807,168.713064 63.7757064,168.713064 C65.8239266,168.713064 67.854789,168.632587 69.8714495,168.512661 L69.8714495,142.067266 L63.1792294,142.067266" id="Fill-11" fill="#DDDDD8"></path>
                        <path d="M45.3125326,168.903211 L87.7218426,168.903211 C87.7243555,168.702807 87.7444582,168.50556 87.7444582,168.306734 C87.7444582,166.258514 87.6163031,164.227651 87.4253267,162.210991 L45.3125326,162.210991 L45.3125326,168.903211" id="Fill-11-Copy" fill="#C9C8C4"></path>
                        <path d="M96.2021845,171.080037 C96.2056318,170.938275 96.2332105,170.798746 96.2332105,170.658101 C96.2332105,169.20923 96.0573963,167.772638 95.7953987,166.346092 L38.0214684,166.346092 L38.0214684,171.080037 L96.2021845,171.080037 L96.2021845,171.080037 Z" id="Fill-11-Copy-2" fill="#B9B8B4"></path>
                        <path d="M131.349615,94.947156 C144.879229,56.4049541 124.614789,14.1955229 86.086789,0.642238532 L85.400367,2.60051376 C122.419817,15.5951927 141.896844,56.1414312 128.900587,93.1640367 C115.905908,130.185064 75.3612477,149.66367 38.3370642,136.667413 L37.0746789,140.273101 C75.6184587,153.77589 117.821578,133.490936 131.349615,94.947156" id="Fill-12" fill="#C9C8C4"></path>
                    </g>
                </g>
            </g>
        </g>
    </g>
</svg>