<?xml version="1.0" encoding="UTF-8" standalone="no"?>
<svg width="188px" height="172px" viewBox="0 0 188 172" version="1.1" xmlns="http://www.w3.org/2000/svg" xmlns:xlink="http://www.w3.org/1999/xlink" xmlns:sketch="http://www.bohemiancoding.com/sketch/ns">
    <!-- Generator: Sketch 3.4 (15575) - http://www.bohemiancoding.com/sketch -->
    <title>courses</title>
    <desc>Created with Sketch.</desc>
    <defs></defs>
    <g id="New-teachers-page" stroke="none" stroke-width="1" fill="none" fill-rule="evenodd" sketch:type="MSPage">
        <g id="Desktop-HD" sketch:type="MSArtboardGroup" transform="translate(-333.000000, -2625.000000)">
            <g id="short-activities-+-courses-and-comps" sketch:type="MSLayerGroup" transform="translate(149.000000, 2085.000000)">
                <g id="courses" transform="translate(0.000000, 540.000000)" sketch:type="MSShapeGroup">
                    <g transform="translate(184.126761, 0.000000)">
                        <path d="M32.68,150.502423 C32.68,161.929521 23.4210704,171.188451 11.9963944,171.188451 C0.574140845,171.188451 0.610478873,161.929521 0.610478873,150.502423 L0.610478873,150.068789 C0.610478873,138.646535 0.574140845,129.387606 11.9963944,129.387606 C23.4210704,129.387606 32.68,138.646535 32.68,150.068789 L32.68,150.502423" id="Fill-2" fill="#165F96"></path>
                        <path d="M16.1801127,134.952169 L178.746761,134.952169 L178.746761,164.933465 L16.1801127,164.933465 L16.1801127,134.952169 Z" id="Fill-3" fill="#D5D5D5"></path>
                        <path d="M16.1801127,134.680845 L178.746761,134.680845 L178.746761,138.733746 L16.1801127,138.733746 L16.1801127,134.680845 Z" id="Fill-4" fill="#F5F5F5"></path>
                        <path d="M16.1801127,143.569127 L178.746761,143.569127 L178.746761,147.619606 L16.1801127,147.619606 L16.1801127,143.569127 Z" id="Fill-5" fill="#F5F5F5"></path>
                        <path d="M16.1801127,152.110986 L178.746761,152.110986 L178.746761,156.163887 L16.1801127,156.163887 L16.1801127,152.110986 Z" id="Fill-6" fill="#F5F5F5"></path>
                        <path d="M16.1801127,160.708563 L178.746761,160.708563 L178.746761,164.761465 L16.1801127,164.761465 L16.1801127,160.708563 Z" id="Fill-7" fill="#F5F5F5"></path>
                        <path d="M187.346761,132.636225 C187.346761,134.397408 186.30507,135.829127 185.025972,135.829127 L13.6267606,135.829127 C12.3428169,135.829127 11.3011268,134.397408 11.3011268,132.636225 C11.3011268,130.870197 12.3428169,129.440901 13.6267606,129.440901 L185.025972,129.440901 C186.30507,129.440901 187.346761,130.870197 187.346761,132.636225" id="Fill-8" fill="#1B79BF"></path>
                        <path d="M187.346761,167.961634 C187.346761,169.725239 186.30507,171.154535 185.025972,171.154535 L13.6267606,171.154535 C12.3428169,171.154535 11.3011268,169.725239 11.3011268,167.961634 C11.3011268,166.198028 12.3428169,164.76631 13.6267606,164.76631 L185.025972,164.76631 C186.30507,164.76631 187.346761,166.198028 187.346761,167.961634" id="Fill-9" fill="#1B79BF"></path>
                        <path d="M11.3011268,132.396394 L18.2731831,132.396394 L18.2731831,168.184507 L11.3011268,168.184507 L11.3011268,132.396394 Z" id="Fill-10" fill="#1B79BF"></path>
                        <path d="M151.241296,110.249577 C151.241296,120.806986 159.79769,129.35369 170.345408,129.35369 C180.897972,129.35369 180.864056,120.806986 180.864056,110.249577 L180.864056,109.845014 C180.864056,99.2972958 180.897972,90.7409014 170.345408,90.7409014 C159.79769,90.7409014 151.241296,99.2972958 151.241296,109.845014 L151.241296,110.249577" id="Fill-11" fill="#318C2F"></path>
                        <path d="M18.3240563,95.8863662 L166.483887,95.8863662 L166.483887,123.578366 L18.3240563,123.578366 L18.3240563,95.8863662 Z" id="Fill-12" fill="#D5D5D5"></path>
                        <path d="M18.3240563,95.6344225 L166.483887,95.6344225 L166.483887,99.3772394 L18.3240563,99.3772394 L18.3240563,95.6344225 Z" id="Fill-13" fill="#F5F5F5"></path>
                        <path d="M18.3240563,103.844394 L166.483887,103.844394 L166.483887,107.587211 L18.3240563,107.587211 L18.3240563,103.844394 Z" id="Fill-14" fill="#F5F5F5"></path>
                        <path d="M18.3240563,111.734592 L166.483887,111.734592 L166.483887,115.477408 L18.3240563,115.477408 L18.3240563,111.734592 Z" id="Fill-15" fill="#F5F5F5"></path>
                        <path d="M18.3240563,119.678085 L166.483887,119.678085 L166.483887,123.420901 L18.3240563,123.420901 L18.3240563,119.678085 Z" id="Fill-16" fill="#F5F5F5"></path>
                        <path d="M10.3781408,93.7424225 C10.3781408,95.3727887 11.3398873,96.6930704 12.524507,96.6930704 L168.843437,96.6930704 C170.028056,96.6930704 170.989803,95.3727887 170.989803,93.7424225 C170.989803,92.1169014 170.028056,90.7966197 168.843437,90.7966197 L12.524507,90.7966197 C11.3398873,90.7966197 10.3781408,92.1169014 10.3781408,93.7424225" id="Fill-17" fill="#3DAE3B"></path>
                        <path d="M10.3781408,126.376394 C10.3781408,128.004338 11.3398873,129.32462 12.524507,129.32462 L168.843437,129.32462 C170.028056,129.32462 170.989803,128.004338 170.989803,126.376394 C170.989803,124.748451 170.028056,123.425746 168.843437,123.425746 L12.524507,123.425746 C11.3398873,123.425746 10.3781408,124.748451 10.3781408,126.376394" id="Fill-18" fill="#3DAE3B"></path>
                        <path d="M164.553127,93.5219718 L170.989803,93.5219718 L170.989803,126.579887 L164.553127,126.579887 L164.553127,93.5219718 Z" id="Fill-19" fill="#3DAE3B"></path>
                        <path d="M143.091887,74.6891831 C143.091887,83.5798873 150.289239,90.7723944 159.177521,90.7723944 C168.060958,90.7723944 168.03431,83.5798873 168.03431,74.6891831 L168.03431,74.3476056 C168.03431,65.464169 168.060958,58.2571268 159.177521,58.2571268 C150.289239,58.2571268 143.091887,65.464169 143.091887,74.3476056 L143.091887,74.6891831" id="Fill-20" fill="#DD0516"></path>
                        <path d="M28.6392113,62.5910423 L155.921634,62.5910423 L155.921634,85.9103662 L28.6392113,85.9103662 L28.6392113,62.5910423 Z" id="Fill-21" fill="#D5D5D5"></path>
                        <path d="M28.6392113,62.3802817 L155.921634,62.3802817 L155.921634,65.5295775 L28.6392113,65.5295775 L28.6392113,62.3802817 Z" id="Fill-22" fill="#F5F5F5"></path>
                        <path d="M28.6392113,69.2917746 L155.921634,69.2917746 L155.921634,72.443493 L28.6392113,72.443493 L28.6392113,69.2917746 Z" id="Fill-23" fill="#F5F5F5"></path>
                        <path d="M28.6392113,75.9392113 L155.921634,75.9392113 L155.921634,79.088507 L28.6392113,79.088507 L28.6392113,75.9392113 Z" id="Fill-24" fill="#F5F5F5"></path>
                        <path d="M28.6392113,82.6254085 L155.921634,82.6254085 L155.921634,85.7747042 L28.6392113,85.7747042 L28.6392113,82.6254085 Z" id="Fill-25" fill="#F5F5F5"></path>
                        <path d="M21.9530141,60.7862535 C21.9530141,62.159831 22.7621408,63.2741972 23.7578028,63.2741972 L157.912958,63.2741972 C158.911042,63.2741972 159.717746,62.159831 159.717746,60.7862535 C159.717746,59.4175211 158.911042,58.308 157.912958,58.308 L23.7578028,58.308 C22.7621408,58.308 21.9530141,59.4175211 21.9530141,60.7862535" id="Fill-26" fill="#FA1528"></path>
                        <path d="M21.9530141,88.267493 C21.9530141,89.6362254 22.7621408,90.748169 23.7578028,90.748169 L157.912958,90.748169 C158.911042,90.748169 159.717746,89.6362254 159.717746,88.267493 C159.717746,86.896338 158.911042,85.7819718 157.912958,85.7819718 L23.7578028,85.7819718 C22.7621408,85.7819718 21.9530141,86.896338 21.9530141,88.267493" id="Fill-27" fill="#FA1528"></path>
                        <path d="M154.296113,60.6045634 L159.715324,60.6045634 L159.715324,88.4370704 L154.296113,88.4370704 L154.296113,60.6045634 Z" id="Fill-28" fill="#FB4251"></path>
                        <path d="M38.3099718,42.0915493 C38.3099718,50.9822535 31.1150423,58.1771831 22.2267606,58.1771831 C13.3433239,58.1771831 13.3723944,50.9822535 13.3723944,42.0915493 L13.3723944,41.7523944 C13.3723944,32.8689577 13.3433239,25.664338 22.2267606,25.664338 C31.1150423,25.664338 38.3099718,32.8689577 38.3099718,41.7523944 L38.3099718,42.0915493" id="Fill-29" fill="#D9B306"></path>
                        <path d="M25.4826479,29.9982535 L168.603606,29.9982535 L168.603606,53.3175775 L25.4826479,53.3175775 L25.4826479,29.9982535 Z" id="Fill-30" fill="#D5D5D5"></path>
                        <path d="M25.4826479,29.7850704 L168.603606,29.7850704 L168.603606,32.9367887 L25.4826479,32.9367887 L25.4826479,29.7850704 Z" id="Fill-31" fill="#F5F5F5"></path>
                        <path d="M25.4826479,36.6989859 L168.603606,36.6989859 L168.603606,39.8482817 L25.4826479,39.8482817 L25.4826479,36.6989859 Z" id="Fill-32" fill="#F5F5F5"></path>
                        <path d="M25.4826479,43.3415775 L168.603606,43.3415775 L168.603606,46.4957183 L25.4826479,46.4957183 L25.4826479,43.3415775 Z" id="Fill-33" fill="#F5F5F5"></path>
                        <path d="M25.4826479,50.0301972 L168.603606,50.0301972 L168.603606,53.1819155 L25.4826479,53.1819155 L25.4826479,50.0301972 Z" id="Fill-34" fill="#F5F5F5"></path>
                        <path d="M175.289803,28.1910423 C175.289803,29.5670423 174.478254,30.6789859 173.485014,30.6789859 L23.4913239,30.6789859 C22.4932394,30.6789859 21.6865352,29.5670423 21.6865352,28.1910423 C21.6865352,26.8223099 22.4932394,25.7103662 23.4913239,25.7103662 L173.485014,25.7103662 C174.478254,25.7103662 175.289803,26.8223099 175.289803,28.1910423" id="Fill-35" fill="#F9CF14"></path>
                        <path d="M175.289803,55.6722817 C175.289803,57.0410141 174.478254,58.1529577 173.485014,58.1529577 L23.4913239,58.1529577 C22.4932394,58.1529577 21.6865352,57.0410141 21.6865352,55.6722817 C21.6865352,54.2987042 22.4932394,53.1867606 23.4913239,53.1867606 L173.485014,53.1867606 C174.478254,53.1867606 175.289803,54.2987042 175.289803,55.6722817" id="Fill-36" fill="#F9CF14"></path>
                        <path d="M21.6865352,28.0093521 L27.1057465,28.0093521 L27.1057465,55.8418592 L21.6865352,55.8418592 L21.6865352,28.0093521 Z" id="Fill-37" fill="#F9CF14"></path>
                        <path d="M53.9522817,13.2367324 C53.9522817,20.092507 48.399831,25.6425352 41.5440563,25.6425352 C34.6931268,25.6425352 34.7100845,20.092507 34.7100845,13.2367324 L34.7100845,12.9726761 C34.7100845,6.11932394 34.6931268,0.564450704 41.5440563,0.564450704 C48.399831,0.564450704 53.9522817,6.11932394 53.9522817,12.9726761 L53.9522817,13.2367324" id="Fill-38" fill="#165F96"></path>
                        <path d="M44.0562254,3.9075493 L144.249859,3.9075493 L144.249859,21.8924507 L44.0562254,21.8924507 L44.0562254,3.9075493 Z" id="Fill-39" fill="#D5D5D5"></path>
                        <path d="M44.0562254,3.74039437 L144.249859,3.74039437 L144.249859,6.17504225 L44.0562254,6.17504225 L44.0562254,3.74039437 Z" id="Fill-40" fill="#F5F5F5"></path>
                        <path d="M44.0562254,9.07723944 L144.249859,9.07723944 L144.249859,11.5046197 L44.0562254,11.5046197 L44.0562254,9.07723944 Z" id="Fill-41" fill="#F5F5F5"></path>
                        <path d="M44.0562254,14.2033239 L144.249859,14.2033239 L144.249859,16.6307042 L44.0562254,16.6307042 L44.0562254,14.2033239 Z" id="Fill-42" fill="#F5F5F5"></path>
                        <path d="M44.0562254,19.3560563 L144.249859,19.3560563 L144.249859,21.7907042 L44.0562254,21.7907042 L44.0562254,19.3560563 Z" id="Fill-43" fill="#F5F5F5"></path>
                        <path d="M149.409859,2.51701408 C149.409859,3.57323944 148.782423,4.43323944 148.016901,4.43323944 L42.5227606,4.43323944 C41.7499718,4.43323944 41.1298028,3.57323944 41.1298028,2.51701408 C41.1298028,1.4583662 41.7499718,0.598366197 42.5227606,0.598366197 L148.016901,0.598366197 C148.782423,0.598366197 149.409859,1.4583662 149.409859,2.51701408" id="Fill-44" fill="#1B79BF"></path>
                        <path d="M149.409859,23.7117746 C149.409859,24.7655775 148.782423,25.6231549 148.016901,25.6231549 L42.5227606,25.6231549 C41.7499718,25.6231549 41.1298028,24.7655775 41.1298028,23.7117746 C41.1298028,22.6507042 41.7499718,21.7931268 42.5227606,21.7931268 L148.016901,21.7931268 C148.782423,21.7931268 149.409859,22.6507042 149.409859,23.7117746" id="Fill-45" fill="#1B79BF"></path>
                        <path d="M41.1298028,2.37408451 L45.3110986,2.37408451 L45.3110986,23.8425915 L41.1298028,23.8425915 L41.1298028,2.37408451 Z" id="Fill-46" fill="#1B79BF"></path>
                    </g>
                </g>
            </g>
        </g>
    </g>
</svg>