<?xml version="1.0" encoding="utf-8"?>
<!-- Generator: Adobe Illustrator 25.3.1, SVG Export Plug-In . SVG Version: 6.00 Build 0)  -->
<svg version="1.1" id="Grok_academy_logo_-_primary"
	 xmlns="http://www.w3.org/2000/svg" xmlns:xlink="http://www.w3.org/1999/xlink" x="0px" y="0px" viewBox="0 0 500 256.142334"
	 style="enable-background:new 0 0 500 256.142334;" xml:space="preserve">
<style type="text/css">
	.st0{fill:#FFFFFF;}
</style>
<path class="st0" d="M357.9052429,105.3054428c0,34.1854324-27.6937256,61.8794022-61.8790283,61.8794022
	c-34.1644592,0-61.8795319-27.6939697-61.8795319-61.8794022c0-34.1642075,27.7150726-61.8792725,61.8795319-61.8792725
	C330.2115173,43.4261703,357.9052429,71.1412354,357.9052429,105.3054428z M309.8728027,146.8674927l-2.887146-9.4210663
	h-21.9191589l-2.8873901,9.4210663c3.920105,1.3278046,8.0512085,2.0654144,12.3716431,2.2129669
	c0.4847107,0.0211029,0.990509,0.0421906,1.4754639,0.0421906c0.5057983,0,0.990509-0.0210876,1.4963074-0.0421906
	C301.8221436,148.9329071,305.9529724,148.1952972,309.8728027,146.8674927z M325.3850098,76.030899l-23.4157104-2.8664398
	l0.8222656-6.8286209l3.4351501,0.4215469c0.1265564,0,0.274231,0.0210953,0.4005737,0.0210953
	c1.7492065,0,3.2455139-1.285614,3.4564819-3.0349617c0.2318115-1.8968964-1.1170654-3.6040497-3.0137329-3.8569527
	l-11.0859985-1.3488998c-0.1477051-0.0209656-0.2953796-0.0209656-0.4427795-0.0209656
	c-1.7070312,0-3.1825256,1.2856064-3.4143066,3.0349579c-0.2107239,1.8756714,1.1170654,3.60392,3.0137329,3.8357315
	l3.4356384,0.4215393l-0.8430786,6.8286285l-23.4154663-2.887413c-6.1121216-0.7376099-11.6973267,3.6040497-12.4560242,9.7371292
	l-4.3415222,35.323494c-0.7378845,6.1121063,3.6039124,11.6762161,9.7368469,12.4349289l51.0672607,6.2806244
	c6.1123657,0.7586975,11.6972961-3.6040497,12.4351807-9.7371292l4.3415222-35.323494
	C335.8597717,82.353714,331.4968872,76.7685089,325.3850098,76.030899z"/>
<path class="st0" d="M127.8051147,48.6646729c-2.0232162-1.51754-4.7632065-2.2973442-8.1561661-2.2973442h-15.5333023
	c-3.7304993,0-6.6810684,0.7588348-8.7464828,2.2973442c-2.3605118,1.7493515-3.5829544,4.5312767-3.5829544,8.4304237v5.2479172
	c-3.6040573-5.9856567-8.6200409-10.5802193-14.6478882-13.6783409c-6.1541748-3.1825027-13.3621483-4.8263702-21.2025108-4.8263702
	c-8.0510674,0-15.5541382,1.7281227-22.2774086,4.8263702c-5.3321743,2.4658661-10.1796417,5.7959175-14.4370461,9.8424835
	C7.2501693,69.8671799,0,86.8333817,0,105.7175751c0,18.8840714,7.2501693,35.8713684,19.2213554,47.2313995
	c3.0771503,2.9295959,6.4492683,5.4798431,10.1164818,7.5874481c7.7770691,4.5101776,16.7765884,7.0604248,26.5979729,7.0604248
	c9.568615,0,18.4204521-2.4237976,25.5230751-7.0604248c4.4471512-2.8874054,8.2197189-6.6390076,11.0228653-11.1913757v5.9223633
	c0,1.8336029-0.0843811,3.6039276-0.2739944,5.2690125c-1.9600601,19.0949097-14.9429855,27.39888-32.1620865,27.39888
	c-9.5895805,0-18.7155495-2.5291595-27.1670723-6.6390076c-7.081522-3.4143219-12.5612469-2.0443268-16.4392986,4.8054047
	l-3.4143105,6.1541748c-3.8990192,6.8497162-2.5291529,13.4885864,4.7843056,16.6710968
	c13.2356987,6.4072113,29.2324848,9.8215179,46.5780334,9.8215179c35.1971741,0,64.2819824-15.9335022,67.3170624-58.2120667
	c0.189621-2.4237976,0.2737427-4.9318542,0.2737427-7.5452576V58.6968994
	C131.9781342,54.0812378,130.545105,50.708992,127.8051147,48.6646729z M66.4527435,136.0881195
	c-16.2074928,0-26.260685-13.6994324-26.260685-30.3705444c0-16.6501312,10.0531921-30.3706665,26.260685-30.3706665
	c15.7438812,0,26.029007,13.4887238,26.029007,30.3706665C92.4817505,122.620491,82.1966248,136.0881195,66.4527435,136.0881195z"/>
<path class="st0" d="M228.085144,48.6646729c-0.821991-2.5713463-2.6556091-4.5945625-6.428299-4.5945625
	c-0.4636078-0.2318077-3.203598-0.2318077-3.4354095-0.2318077c-3.9201202,0-10.0322266,1.1380615-15.8070374,4.8263702
	c-6.3647614,4.0465698-12.2872467,11.1702881-14.3315735,23.2679214V58.6968994
	c0-4.6156616-1.5174103-8.0088768-4.2785034-10.0322266c-2.0443115-1.51754-4.7631989-2.2973442-8.0511932-2.2973442H160.68396
	c-3.3934784,0-6.1332092,0.7798042-8.1566925,2.2973442c-2.7397308,2.0443192-4.1730194,5.4165649-4.1730194,10.0322266v94.0624542
	c0,3.182373,0.6956787,5.7959137,2.0443268,7.7770691c2.0023804,2.9927673,5.4799805,4.5523682,10.2853851,4.5523682h16.4391632
	c4.8054047,0,8.2830048-1.5596008,10.2851257-4.5523682c1.3489075-1.9811554,2.0443115-4.594696,2.0443115-7.7770691v-37.6629028
	c0-21.2447052,8.4515228-32.204277,24.8909607-32.204277c1.8336029,0,3.4353943,0,5.4797211,0.2318039
	c5.2479095,0.6744461,8.9151306-2.276123,8.9151306-9.1258392V53.4278831
	C228.7383728,51.8471794,228.5698547,50.1611214,228.085144,48.6646729z"/>
<path class="st0" d="M499.0516663,148.8813019l-5.4797058-11.4231873c-2.276123-4.5525055-5.7115479-5.2479095-10.7276306-4.109848
	c-2.0654297,0.6955414-4.3417969,0.9273376-5.4799805,0.9273376c-5.7115479,0-10.5169373-2.0653992-15.5328064-10.516922
	l-13.4678955-22.3616714l29.907074-39.9602509c3.9833984-5.4587555,3.9623108-10.1375771,0.6954041-12.7720871
	c-1.7911377-1.4542503-4.5733337-2.2973442-8.2194519-2.2973442h-18.5048218c-3.6039429,0-6.5126953,0.7377396-9.0206299,2.2973442
	c-2.107605,1.3067055-3.920105,3.1825066-5.5849609,5.6905632l-26.2609253,39.960125V12.3295708
	C411.3753357,4.3416629,407.033783,0,399.0458984,0h-16.4394531c-7.9878845,0-12.3294373,4.3416629-12.3294373,12.3295708
	v140.4297791c0,3.182373,0.6954346,5.7959137,2.0445862,7.7770691c2.0021057,2.9927673,5.4794617,4.5523682,10.2848511,4.5523682
	h16.4394531c4.8053894,0,8.2827454-1.5596008,10.2851257-4.5523682c1.348877-1.9811554,2.0443115-4.594696,2.0443115-7.7770691
	v-41.7727585l13.4676208,26.9351273c4.973938,10.2851257,10.875061,17.7461395,18.0834351,22.6147003
	c7.0390625,4.7841797,15.3642578,7.0604248,25.2912598,7.0604248c7.776947,0,16.902771-1.5807037,26.0497131-6.6179047
	c0.2742615-0.1475525,0.5269165-0.295105,0.7800598-0.4425201C498.4825745,158.5130768,500,155.8574677,500,152.9700623
	C500,151.6422577,499.6840515,150.251297,499.0516663,148.8813019z"/>
<g>
	<path class="st0" d="M168.1323395,198.0976257c5.2906342,0,10.5011597,1.8162689,14.2938995,7.1869965v-6.3179016h7.6616058
		v39.4854431h-7.6616058v-6.3179016c-3.7927399,5.3707275-9.0032654,7.1869965-14.2938995,7.1869965
		c-11.8468323,0-19.5885315-9.3196716-19.5885315-20.6118164
		C148.543808,207.4152985,156.2855072,198.0976257,168.1323395,198.0976257z M169.0775299,204.8881378
		c-8.2102814,0-12.8721313,6.3179016-12.8721313,13.8213043c0,7.5013885,4.66185,13.8193054,12.8721313,13.8193054
		c7.9779968,0,13.4288177-5.8433228,13.5049133-13.8193054
		C182.5063477,210.7334442,177.0555267,204.8881378,169.0775299,204.8881378z"/>
	<path class="st0" d="M221.5071869,198.0976257c3.5524597,0,8.8430786,0.8690948,14.1377106,4.8160248l-3.6325531,5.2125397
		c-4.1892395-3.157959-9.1634674-3.2380524-10.1887512-3.2380524c-8.5306854,0-14.8466034,5.6871185-14.8466034,13.8213043
		s6.315918,13.8193054,14.8466034,13.8193054c1.0252838,0,5.9995117-0.0780945,10.1887512-3.2360535l3.6325531,5.2105255
		c-5.294632,3.9489441-10.5852509,4.8180389-14.1377106,4.8180389c-13.9774933,0-22.1917877-8.923172-22.1917877-20.1372223
		C199.3153992,207.5734863,207.133194,198.0976257,221.5071869,198.0976257z"/>
	<path class="st0" d="M259.8031616,198.0976257c5.2906189,0,10.5011597,1.8162689,14.2939148,7.1869965v-6.3179016h7.6615906
		v39.4854431h-7.6615906v-6.3179016c-3.7927551,5.3707275-9.0032959,7.1869965-14.2939148,7.1869965
		c-11.8468475,0-19.5885315-9.3196716-19.5885315-20.6118164
		C240.2146301,207.4152985,247.9563141,198.0976257,259.8031616,198.0976257z M260.7483521,204.8881378
		c-8.2102966,0-12.8721313,6.3179016-12.8721313,13.8213043c0,7.5013885,4.6618347,13.8193054,12.8721313,13.8193054
		c7.9779968,0,13.4288025-5.8433228,13.5049133-13.8193054
		C274.1771545,210.7334442,268.7263489,204.8881378,260.7483521,204.8881378z"/>
	<path class="st0" d="M310.6508484,198.0976257c5.2946167,0,10.5051575,1.8162689,14.2979126,7.1869965V181.35466h7.6575928
		v57.0975037h-7.6575928v-6.3179016c-3.7927551,5.3707275-9.0032959,7.1869965-14.2979126,7.1869965
		c-11.8428345,0-19.5845337-9.3196716-19.5845337-20.6118164
		C291.0663147,207.4152985,298.8080139,198.0976257,310.6508484,198.0976257z M311.6000366,204.8881378
		c-8.2142944,0-12.8721313,6.3179016-12.8721313,13.8213043c0,7.5013885,4.6578369,13.8193054,12.8721313,13.8193054
		c7.9779968,0,13.4248047-5.8433228,13.5049133-13.8193054
		C325.0248413,210.7334442,319.5780334,204.8881378,311.6000366,204.8881378z"/>
	<path class="st0" d="M381.3233643,231.976059c-5.0543213,5.6871185-11.4503479,7.3451996-17.2936707,7.3451996
		c-13.7412109,0-22.2718811-9.2395782-22.2718811-20.4536133c0-11.5304413,9.0032654-20.7700195,21.2466125-20.7700195
		c10.421051,0,20.137207,6.7124023,20.137207,21.3227081h-33.722229
		c-0.2362976,7.6595917,5.9234314,13.1084137,14.6903992,13.1084137c4.7379456,0,9.0032654-1.5779724,12.9522095-4.9742279
		L381.3233643,231.976059z M350.1282959,213.4969177h25.115448c-2.1306763-7.1870117-7.7377014-8.6868896-12.0831299-8.6868896
		C358.5027771,204.8100281,352.7355652,206.6263123,350.1282959,213.4969177z"/>
	<path class="st0" d="M418.6701355,216.1822815c0-8.3704834-3.8728638-11.2941437-8.0581055-11.2941437
		c-4.1051331,0-11.2140198,2.7654572-11.2140198,15.2430878v18.3209381h-7.6575928v-39.4854431h7.6575928v7.8958893
		c1.6580505-5.7652283,6.7924805-8.7649841,12.6358032-8.7649841c3.7927551,0,9.4798889,1.2635803,12.5597534,8.2923889
		c3.2360535-6.8706055,8.6868591-8.2923889,13.4248047-8.2923889c9.3196716,0,15.2390747,5.3687286,15.2390747,18.0846558
		v22.2698822h-7.6575928v-22.2698822c0-8.3704834-3.8688354-11.2941437-8.058075-11.2941437
		c-3.7086487,0-10.8175659,2.290863-11.2140503,14.3739929v19.190033h-7.6575928V216.1822815z"/>
	<path class="st0" d="M491.0728149,198.9667206H500l-24.2463684,57.1756134h-7.425293l7.3451843-19.0318451l-16.6608582-38.1437683
		h8.76297l12.0831299,29.4568939L491.0728149,198.9667206z"/>
</g>
<path class="st0" d="M281.8840027,99.8679123c-0.6110229,4.9528275-5.121582,8.4724884-10.0744019,7.8613281
	c-4.9528198-0.5901871-8.4723816-5.1003647-7.8613281-10.0744171c0.5901794-4.9528198,5.1004944-8.4724884,10.0744019-7.8613281
	C278.9754944,90.4046555,282.4950256,94.9149628,281.8840027,99.8679123z"/>
<path class="st0" d="M328.6941223,105.6216354c-0.6112976,4.9528275-5.1218567,8.4726181-10.0744324,7.8613281
	c-4.9530945-0.6111603-8.4726257-5.1214676-7.8613281-10.0742874c0.6110229-4.9529495,5.1213379-8.4726181,10.0741577-7.8614578
	C325.7853394,96.1585083,329.3051453,100.6688156,328.6941223,105.6216354z"/>
</svg>
