<?xml version="1.0" encoding="UTF-8" standalone="no"?>
<svg width="80px" height="80px" viewBox="0 0 80 80" version="1.1" xmlns="http://www.w3.org/2000/svg" xmlns:xlink="http://www.w3.org/1999/xlink" xmlns:sketch="http://www.bohemiancoding.com/sketch/ns">
    <!-- Generator: Sketch 3.4 (15575) - http://www.bohemiancoding.com/sketch -->
    <title>icon-problems</title>
    <desc>Created with Sketch.</desc>
    <defs></defs>
    <g id="New-competitions-page" stroke="none" stroke-width="1" fill="none" fill-rule="evenodd" sketch:type="MSPage">
        <g id="Desktop-HD" sketch:type="MSArtboardGroup" transform="translate(-241.000000, -1872.000000)">
            <g id="learning-interface-features" sketch:type="MSLayerGroup" transform="translate(149.000000, 1799.000000)">
                <g id="Challenging-problems-+-Our-problem-based-le-+-Toys_Games-09" transform="translate(0.000000, 73.000000)" sketch:type="MSShapeGroup">
                    <g id="icon-problems" transform="translate(92.000000, 0.000000)">
                        <path d="M40.0004819,0.148433735 C17.9905221,0.148433735 0.147951807,17.9892369 0.147951807,40.0009639 C0.147951807,62.0091566 17.9905221,79.8515663 40.0004819,79.8515663 C62.0094779,79.8515663 79.8520482,62.0091566 79.8520482,40.0009639 C79.8520482,17.9892369 62.0094779,0.148433735 40.0004819,0.148433735" id="Fill-1" fill="#5FA143"></path>
                        <path id="Fill-2" fill="#5FA143" d="M55.3008835,67.7256225 C55.3338153,67.3961446 55.3518072,67.0729317 55.3546988,66.7587149 L55.3008835,67.7256225"></path>
                        <path d="M53.746506,60.8457831 C51.5678715,57.033253 44.8504418,60.1195181 44.8504418,60.1195181 C40.8562249,62.48 40.1302811,60.4827309 40.1302811,60.4827309 L40.1302811,39.9673896 L21.2483534,39.9673896 C21.2483534,39.9673896 17.9807229,39.7858635 17.9807229,42.1460241 C17.9807229,42.1460241 17.0730924,44.8692369 20.1595181,46.6846586 C20.1595181,46.6846586 22.8828916,50.6788755 19.4330924,53.2205622 C19.4330924,53.2205622 14.1681928,58.8486747 6.9060241,53.7653012 C6.9060241,53.7653012 2.91212851,51.586506 7.08771084,44.8692369 C7.08771084,44.8692369 9.62923695,40.148755 5.63534137,39.9673896 L0.148433735,39.9673896 L0.147951807,40.0009639 C0.147951807,62.008996 17.9905221,79.8517269 40.0004819,79.8517269 C40.0436948,79.8517269 40.0869076,79.8501205 40.1302811,79.8499598 L40.1302811,73.373012 C40.3121285,72.8284337 42.4902811,72.102008 42.4902811,72.102008 C43.7611245,72.102008 48.299759,73.1914859 48.299759,73.1914859 C53.020241,73.7360643 54.6542972,70.4682731 54.6542972,70.4682731 C55.0149398,69.5174297 55.2139759,68.5969478 55.3008835,67.7256225 L55.3546988,66.7587149 C55.3850602,63.3040964 53.746506,60.8457831 53.746506,60.8457831" id="Fill-3" fill="#54C552"></path>
                        <path d="M40.0367871,0.148915663 L40.0367871,7.482249 C40.0367871,7.482249 40.5812048,11.8395181 44.1212851,12.3839357 C44.1212851,12.3839357 49.0263454,10.9187149 49.7521285,10.9187149 C49.7521285,10.9187149 54.2909237,10.9187149 54.6542972,15.4578313 C54.6542972,15.4578313 54.8359839,21.6305221 53.020241,23.0828916 C53.020241,23.0828916 50.2971888,26.1694779 45.0321285,23.8093173 C45.0321285,23.8093173 40.8562249,20.5413655 40.1302811,24.3538956 L40.1302811,39.9673896 L57.37751,39.9673896 C58.6485141,39.4226506 58.6485141,37.06249 58.6485141,37.06249 C58.6485141,35.9731727 55.7436145,32.8869076 55.7436145,32.8869076 C54.2909237,29.0740562 57.5591968,26.3508434 57.5591968,26.3508434 C60.8273092,23.9906827 66.0920482,24.1723695 66.0920482,24.1723695 C72.9913253,25.0801606 71.9013655,31.0713253 71.9013655,31.0713253 C71.7203213,33.613012 67.5448996,37.7885944 67.5448996,37.7885944 C67.3628916,39.0595984 69.1781526,39.9673896 69.1781526,39.9673896 L79.8515663,39.9673896 C79.8335743,17.9834538 62.017992,0.168514056 40.0367871,0.148915663" id="Fill-4" fill="#FB4251"></path>
                        <path d="M79.8515663,39.9673896 L69.1781526,39.9673896 C69.1781526,39.9673896 67.3628916,39.0595984 67.5448996,37.7885944 C67.5448996,37.7885944 71.7203213,33.613012 71.9013655,31.0713253 C71.9013655,31.0713253 72.9913253,25.0801606 66.0920482,24.1723695 C66.0920482,24.1723695 60.8273092,23.9906827 57.5591968,26.3508434 C57.5591968,26.3508434 54.2909237,29.0740562 55.7436145,32.8869076 C55.7436145,32.8869076 58.6485141,35.9731727 58.6485141,37.06249 C58.6485141,37.06249 58.6485141,39.4226506 57.37751,39.9673896 L40.1302811,39.9673896 L40.1302811,60.4827309 C40.1302811,60.4827309 40.8562249,62.48 44.8504418,60.1195181 C44.8504418,60.1195181 51.5678715,57.033253 53.746506,60.8457831 C53.746506,60.8457831 55.3850602,63.3040964 55.3546988,66.7587149 C55.3518072,67.0729317 55.3338153,67.3961446 55.3008835,67.7256225 C55.2139759,68.5969478 55.0149398,69.5174297 54.6542972,70.4681124 C54.6542972,70.4681124 53.020241,73.7360643 48.299759,73.1914859 C48.299759,73.1914859 43.7611245,72.102008 42.4902811,72.102008 C42.4902811,72.102008 40.3121285,72.8284337 40.1302811,73.373012 L40.1302811,79.8499598 C42.2080321,79.8433735 44.2481928,79.6774297 46.2398394,79.3641767 C49.2097992,78.8970281 52.0706827,78.1021687 54.7845783,77.0171888 C69.4737349,71.1450602 79.8520482,56.7852209 79.8520482,40.0009639 L79.8515663,39.9673896" id="Fill-5" fill="#FAD841"></path>
                        <path d="M54.6542972,15.4578313 C54.2909237,10.9187149 49.7521285,10.9187149 49.7521285,10.9187149 C49.0263454,10.9187149 44.1212851,12.3839357 44.1212851,12.3839357 C40.5812048,11.8395181 40.0367871,7.482249 40.0367871,7.482249 L40.0367871,0.148915663 L40.0004819,0.148433735 C39.9832932,0.148433735 39.9661044,0.149076305 39.9489157,0.149076305 C18.2167068,0.176706827 0.562570281,17.5975904 0.157429719,39.2411245 C0.152931727,39.4828916 0.148594378,39.7246586 0.148433735,39.9673896 L5.63534137,39.9673896 C9.62923695,40.148755 7.08771084,44.8692369 7.08771084,44.8692369 C2.91212851,51.586506 6.9060241,53.7653012 6.9060241,53.7653012 C14.1681928,58.8486747 19.4330924,53.2205622 19.4330924,53.2205622 C22.8828916,50.6788755 20.1595181,46.6846586 20.1595181,46.6846586 C17.0730924,44.8692369 17.9807229,42.1460241 17.9807229,42.1460241 C17.9807229,39.7858635 21.2483534,39.9673896 21.2483534,39.9673896 L39.9489157,39.9673896 L39.9489157,39.2411245 L40.1302811,39.2411245 L40.1302811,24.3538956 C40.8562249,20.5413655 45.0321285,23.8093173 45.0321285,23.8093173 C50.2971888,26.1694779 53.020241,23.0828916 53.020241,23.0828916 C54.8359839,21.6305221 54.6542972,15.4578313 54.6542972,15.4578313" id="Fill-8" fill="#2891E0"></path>
                    </g>
                </g>
            </g>
        </g>
    </g>
</svg>