<?xml version="1.0" encoding="UTF-8" standalone="no"?>
<svg width="80px" height="80px" viewBox="0 0 80 80" version="1.1" xmlns="http://www.w3.org/2000/svg" xmlns:xlink="http://www.w3.org/1999/xlink" xmlns:sketch="http://www.bohemiancoding.com/sketch/ns">
    <!-- Generator: Sketch 3.4 (15575) - http://www.bohemiancoding.com/sketch -->
    <title>icons/icon-notes</title>
    <desc>Created with Sketch.</desc>
    <defs></defs>
    <g id="New-competitions-page" stroke="none" stroke-width="1" fill="none" fill-rule="evenodd" sketch:type="MSPage">
        <g id="Desktop-HD" sketch:type="MSArtboardGroup" transform="translate(-244.000000, -2175.000000)">
            <g id="icons/icon-notes" sketch:type="MSLayerGroup" transform="translate(244.000000, 2175.000000)">
                <path d="M0.0522834646,40.0516535 C0.0522834646,18.0182677 17.9143307,0.157480315 39.9483465,0.157480315 C61.9804724,0.157480315 79.8425197,18.0182677 79.8425197,40.0516535 C79.8425197,62.0856693 61.9804724,79.9470866 39.9483465,79.9470866 C17.9143307,79.9470866 0.0522834646,62.0856693 0.0522834646,40.0516535" id="Fill-1" fill="#54C552" sketch:type="MSShapeGroup"></path>
                <path d="M61.976063,63.1055118 L27.6768504,68.5826772 L20.1058268,21.1697638 L54.4056693,15.6932283 L61.976063,63.1055118" id="Fill-2" fill="#D5D5D5" sketch:type="MSShapeGroup"></path>
                <path d="M56.0743307,68.296063 L21.351811,67.4129134 L22.5725984,19.4148031 L57.2944882,20.2979528 L56.0743307,68.296063" id="Fill-3" fill="#F5F5F5" sketch:type="MSShapeGroup"></path>
                <g id="Multimedia-26" transform="translate(26.000000, 31.000000)" sketch:type="MSShapeGroup">
                    <path d="M12.9832126,0.0511811024 C20.1436535,0.0511811024 25.9488189,5.85593701 25.9488189,13.0171969 C25.9488189,20.1778425 20.1436535,25.9828031 12.9832126,25.9828031 C5.82215748,25.9828031 0.016992126,20.1778425 0.016992126,13.0171969 C0.016992126,5.85593701 5.82215748,0.0511811024 12.9832126,0.0511811024 Z" id="Fill-1" fill="#318C2F"></path>
                    <path d="M11.8304094,7.44459843 C11.3892283,7.44459843 11.0317795,7.65423622 11.0317795,8.0952126 L11.0317795,17.9385669 C11.0317795,18.3795433 11.3892283,18.5891811 11.8304094,18.5891811 C12.7604724,18.5891811 16.7761417,13.8944409 16.7761417,13.0673543 C16.7761417,12.240063 12.2509134,7.44459843 11.8304094,7.44459843" id="Fill-2" fill="#FFFFFF"></path>
                </g>
                <path d="M47.695748,24.7703937 L47.695748,16.5467717 C47.695748,13.056378 45.783937,10.9694488 42.4497638,10.8258268 C38.7571654,10.927874 36.752126,12.9492913 36.752126,16.5159055 L36.7571654,18.4585827 L38.2406299,18.1870866 L38.2368504,16.5159055 C38.2355906,13.7266142 39.5716535,12.3880315 42.4384252,12.3092913 C44.9606299,12.4207874 46.2116535,13.8066142 46.2116535,16.5467717 L46.2116535,25.007874 L46.2103937,42.3729134 C46.2116535,44.3546457 44.2261417,44.9952756 43.264252,44.9952756 C42.5858268,45.023622 41.9338583,44.7729134 41.4431496,44.3029921 C40.9228346,43.8059843 40.6349606,43.111811 40.6362205,42.3502362 L40.6362205,25.8979528 L39.152126,26.1348031 L39.152126,42.3502362 C39.152126,43.5218898 39.6012598,44.5959055 40.4182677,45.3770079 C41.1993701,46.1240945 42.2500787,46.5266142 43.2982677,46.4787402 C45.1055118,46.48 47.695748,45.2056693 47.695748,42.3729134 L47.695748,24.7703937" id="Fill-4" fill="#333333" sketch:type="MSShapeGroup"></path>
            </g>
        </g>
    </g>
</svg>