<?xml version="1.0" encoding="UTF-8" standalone="no"?>
<svg width="80px" height="80px" viewBox="0 0 80 80" version="1.1" xmlns="http://www.w3.org/2000/svg" xmlns:xlink="http://www.w3.org/1999/xlink" xmlns:sketch="http://www.bohemiancoding.com/sketch/ns">
    <!-- Generator: Sketch 3.4 (15575) - http://www.bohemiancoding.com/sketch -->
    <title>icon-security</title>
    <desc>Created with Sketch.</desc>
    <defs></defs>
    <g id="New-students-page" stroke="none" stroke-width="1" fill="none" fill-rule="evenodd" sketch:type="MSPage">
        <g id="Desktop-HD-Copy" sketch:type="MSArtboardGroup" transform="translate(-777.000000, -1176.000000)">
            <g id="forums-and-safety-copy" sketch:type="MSLayerGroup" transform="translate(0.000000, 1066.000000)">
                <g id="icon-security" transform="translate(777.000000, 110.000000)" sketch:type="MSShapeGroup">
                    <path d="M0,40.0006316 C0,17.9078837 17.9085153,0 40.0006316,0 C62.0914847,0 80,17.9078837 80,40.0006316 C80,62.0914847 62.0914847,80 40.0006316,80 C17.9085153,80 0,62.0914847 0,40.0006316" id="Fill-1" fill="#AC44BE"></path>
                    <path d="M60.8465068,35.6439637 C60.8465068,24.1816415 51.6900938,13.7597647 40.3964546,13.7597647 C29.1021898,13.7597647 19.9470282,24.1816415 19.9470282,35.6439637 L25.2394161,35.6439637 C25.2394161,27.148653 32.0258603,19.1318726 40.3964546,19.1318726 C48.7683003,19.1318726 55.5541189,27.148653 55.5541189,35.6439637 L60.8465068,35.6439637" id="Fill-2" fill="#D5D5D5"></path>
                    <path d="M60.8577685,61.2991545 C60.8577685,63.7017618 58.8581856,65.6488631 56.3899896,65.6488631 L24.3703858,65.6488631 C21.9021898,65.6488631 19.9032325,63.7017618 19.9032325,61.2991545 L19.9032325,35.5674237 C19.9032325,33.166061 60.8577685,33.166061 60.8577685,35.5674237 L60.8577685,61.2991545" id="Fill-3" fill="#FAD841"></path>
                    <path d="M45.1144943,45.9930342 C45.1144943,43.4858846 43.0717414,41.4535315 40.550365,41.4535315 C38.0296142,41.4535315 35.9868613,43.4858846 35.9868613,45.9930342 C35.9868613,47.9059103 37.1768509,49.53814 38.8579771,50.2077089 L38.8579771,54.3943811 C38.8579771,55.2817466 39.5831074,56.0010975 40.4746611,56.0010975 C41.3680918,56.0010975 42.0913452,55.2817466 42.0913452,54.3943811 L42.0913452,50.2624691 C43.8525547,49.6327259 45.1144943,47.9619151 45.1144943,45.9930342" id="Fill-4" fill="#D9B306"></path>
                    <path d="M35.8154327,45.9930342 C35.8154327,43.4858846 37.8600626,41.4535315 40.3808133,41.4535315 C40.3808133,41.4535315 37.1987487,43.5636691 37.1987487,46.0708187 C37.1987487,48.624639 39.6,50.138014 39.6,50.138014 L39.6,54.4404296 C39.6,55.3290395 40.4552659,56.0010975 40.4552659,56.0010975 C39.5630865,56.0010975 38.8385819,55.2817466 38.8385819,54.3943811 L38.8385819,50.2624691 C37.0779979,49.6327259 35.8154327,47.9619151 35.8154327,45.9930342" id="Fill-5" fill="#AD8E05"></path>
                    <path d="M53.4081335,65.6488631 L47.7028154,65.6488631 L47.7028154,33.8704773 L53.4081335,34.1542352 L53.4081335,65.6488631" id="Fill-6" fill="#FBDF63"></path>
                    <path d="M47.7028154,15.2793625 L47.7028154,21.3036155 C50.0577685,22.7896104 52.0285714,24.9395736 53.4081335,27.4510791 L53.4081335,18.9626136 C51.7144943,17.4262144 49.7887383,16.1729507 47.7028154,15.2793625" id="Fill-7" fill="#F5F5F5"></path>
                </g>
            </g>
        </g>
    </g>
</svg>