<svg id="SvgjsSvg1001" width="288" height="288" xmlns="http://www.w3.org/2000/svg" version="1.1" xmlns:xlink="http://www.w3.org/1999/xlink" xmlns:svgjs="http://svgjs.com/svgjs"><defs id="SvgjsDefs1002"></defs><g id="SvgjsG1008"><svg xmlns="http://www.w3.org/2000/svg" viewBox="0 0 1280 1280" width="288" height="288"><path fill="#ffffff" d="M0 0 C0.7425 0.1252002 1.485 0.25040039 2.25 0.37939453 C6.05755409 1.12043275 8.55894942 1.72382375 11 4.8125 C11.78375 5.163125 12.5675 5.51375 13.375 5.875 C17.5726006 8.97322902 19.31257861 12.93316764 21 17.8125 C21.73437662 22.91085184 21.79486354 27.98333793 21.8125 33.125 C21.83393 34.57473417 21.85715105 36.02444287 21.88208008 37.47412109 C21.93943995 41.18815329 21.96602549 44.90174939 21.98498535 48.6161499 C22.00440683 51.45713267 22.04618111 54.29757197 22.08851624 57.13829041 C22.13447915 60.40459296 22.16124017 63.67098775 22.1875 66.9375 C22.20079346 68.13286377 22.21408691 69.32822754 22.2277832 70.55981445 C22.23243693 76.42646784 21.88641592 81.26335433 20 86.8125 C19.8765691 88.18448187 19.78457127 89.56041094 19.75 90.9375 C18.97601647 94.93641488 18.16513669 96.51806692 14.82617188 98.86303711 C6.91073218 102.97843082 -3.26792076 102.41589068 -12 102.875 C-14.14067354 102.99061464 -16.28114743 103.10839426 -18.42138672 103.23179626 C-20.34182765 103.34215825 -22.26270536 103.44484035 -24.18359375 103.54711914 C-26.90127592 103.50122462 -26.90127592 103.50122462 -28 104.8125 C-30.54969386 105.01485666 -33.09692964 105.13165246 -35.65234375 105.23828125 C-38.15915715 105.56270466 -38.15915715 105.56270466 -39.2265625 107.765625 C-39.60941406 108.77882813 -39.60941406 108.77882813 -40 109.8125 C-41 110.8125 -42 111.8125 -43 112.8125 C-43.4125 113.555 -43.825 114.2975 -44.25 115.0625 C-45.84489766 117.56876775 -47.29447206 119.11905274 -49.4375 121.125 C-54.19414967 125.76122815 -56.59993189 130.68498235 -58.0625 137.125 C-59 140.8125 -59 140.8125 -60.49609375 142.140625 C-62.73750795 144.63237897 -62.64751687 146.95648576 -63 150.25 C-63.70076135 155.91448758 -64.7390742 161.29220559 -66.21875 166.80078125 C-66.4765625 167.79464844 -66.734375 168.78851562 -67 169.8125 C-67.34135986 171.0406543 -67.68271973 172.26880859 -68.03442383 173.53417969 C-69.53450098 180.37001951 -69.26759377 187.31829936 -69.23046875 194.27734375 C-69.22927453 195.7618455 -69.2288243 197.24634801 -69.2290802 198.73085022 C-69.22752513 201.8229758 -69.21930552 204.91498399 -69.20581055 208.00708008 C-69.18871754 211.97388533 -69.18499971 215.9405633 -69.18575573 219.90740108 C-69.18548435 222.9639457 -69.18001009 226.02046241 -69.17275429 229.07699776 C-69.16957096 230.54066317 -69.16760099 232.00433173 -69.16686058 233.46800041 C-69.16469939 235.5046388 -69.15516567 237.54126539 -69.14526367 239.57788086 C-69.14145187 240.7365416 -69.13764008 241.89520233 -69.13371277 243.088974 C-69.18496936 245.77824137 -69.18496936 245.77824137 -68 247.8125 C-67.90284658 250.14418218 -67.87021783 252.47879957 -67.875 254.8125 C-67.87242187 256.070625 -67.86984375 257.32875 -67.8671875 258.625 C-68 261.8125 -68 261.8125 -69 263.8125 C-69.11703659 265.83556099 -69.23276972 267.85871149 -69.33984375 269.88232422 C-69.89149504 278.25295981 -71.07376803 283.66022529 -77.125 289.8671875 C-84.71627236 295.00367342 -92.0644778 296.41939696 -101.09765625 296.34375 C-102.13079453 296.3475769 -103.1639328 296.35140381 -104.2283783 296.35534668 C-106.40413391 296.35805314 -108.57992277 296.35078135 -110.75561523 296.33398438 C-114.02990197 296.31271178 -117.30195583 296.33375091 -120.57617188 296.359375 C-132.93419521 296.37496643 -144.15906158 295.41208993 -156 291.8125 C-156.95374512 291.5227832 -157.90749023 291.23306641 -158.89013672 290.93457031 C-164.35241493 289.10863943 -167.40825898 285.73744074 -170.4921875 280.9609375 C-173.39730025 274.89482124 -174.68853056 268.377993 -176 261.8125 C-176.99 261.8125 -177.98 261.8125 -179 261.8125 C-178.9175 261.1525 -178.835 260.4925 -178.75 259.8125 C-179.0526053 256.18123639 -180.35360726 253.90448187 -182.05078125 250.73046875 C-183.17704862 248.45475978 -183.59500587 246.30996383 -184 243.8125 C-184.63437344 242.1332762 -185.29289322 240.46241582 -186 238.8125 C-186.66 238.8125 -187.32 238.8125 -188 238.8125 C-188.33 241.1225 -188.66 243.4325 -189 245.8125 C-189.94875 245.874375 -190.8975 245.93625 -191.875 246 C-193.421875 246.4021875 -193.421875 246.4021875 -195 246.8125 C-196.9205731 250.51791666 -197.63063423 254.42920264 -198.4375 258.5 C-199.31534616 262.77337291 -200.27719353 266.91388593 -201.625 271.0625 C-202.62726954 274.23892346 -203.20032234 277.11701278 -203.4375 280.4375 C-203.7956272 285.20744948 -204.83139147 289.6884946 -206 294.3125 C-206.17845459 295.01971191 -206.35690918 295.72692383 -206.54077148 296.45556641 C-207.85271117 301.51792233 -207.85271117 301.51792233 -209 303.8125 C-209.02664134 306.0207709 -209.04622779 308.22912835 -209.0625 310.4375 C-209.3888366 319.15610834 -212.88180634 325.64500801 -217.07666016 333.12792969 C-218.18008132 335.14104603 -219.11103097 337.19667325 -220 339.3125 C-221.85199079 343.59522871 -223.91843263 347.76296981 -226 351.9375 C-226.49886719 352.94200195 -226.49886719 352.94200195 -227.0078125 353.96679688 C-231.38157148 362.68848556 -235.87349525 371.01746059 -243 377.8125 C-243.50273437 378.33585937 -244.00546875 378.85921875 -244.5234375 379.3984375 C-250.661308 385.76683835 -257.37933942 391.31445156 -265 395.8125 C-266.11418433 396.61120742 -267.21937858 397.42269967 -268.3125 398.25 C-272.00730918 400.9211391 -275.8939251 402.85835646 -280 404.8125 C-281.29218108 405.47816904 -282.58384604 406.14484091 -283.875 406.8125 C-293.45349456 411.60174728 -303.3445958 414.74512575 -313.78125 417.03125 C-316.97199535 417.74396508 -316.97199535 417.74396508 -319.8515625 418.84375 C-323.84495156 420.0724851 -327.7267105 420.43853066 -331.875 420.8125 C-333.41458603 420.95269839 -334.95367253 421.09849938 -336.4921875 421.25 C-337.16620605 421.31058594 -337.84022461 421.37117188 -338.53466797 421.43359375 C-341.23361626 421.80035628 -341.23361626 421.80035628 -344.71582031 422.82885742 C-349.19201546 423.97469217 -353.45170955 424.11771341 -358.0546875 424.11328125 C-358.90523712 424.11888062 -359.75578674 424.12447998 -360.6321106 424.13024902 C-363.3799224 424.14212011 -366.12718903 424.13589975 -368.875 424.125 C-369.81617676 424.12317719 -370.75735352 424.12135437 -371.72705078 424.11947632 C-387.00698216 424.06960667 -401.90500168 423.35873104 -417 420.8125 C-418.71751465 420.52318604 -418.71751465 420.52318604 -420.46972656 420.22802734 C-441.70437014 416.55645553 -441.70437014 416.55645553 -449.171875 413.54443359 C-452.20638937 412.32949315 -455.32796178 411.37860757 -458.4375 410.375 C-463.20391162 408.80352075 -467.88463586 407.18339823 -472.421875 405.02734375 C-474.62476452 403.98931551 -476.83879923 403.02171031 -479.078125 402.06640625 C-489.04541399 397.72842924 -495.47822367 394.06081284 -500.9375 384.375 C-503.11174196 377.69121916 -502.55791867 369.73214059 -502 362.8125 C-501.34 361.8225 -500.68 360.8325 -500 359.8125 C-499.855625 358.966875 -499.71125 358.12125 -499.5625 357.25 C-499 354.8125 -499 354.8125 -496 352.8125 C-495.26791162 351.14866277 -494.54167605 349.48174087 -493.859375 347.796875 C-489.71999201 338.23866337 -482.09411229 329.8882836 -473 324.8125 C-464.76326341 322.27156056 -455.19762781 323.79116712 -447 325.8125 C-446.01 326.4725 -445.02 327.1325 -444 327.8125 C-441.52218632 328.4958368 -439.0652989 329.1141729 -436.5625 329.6875 C-430.56790111 331.10805631 -424.80893256 332.79279898 -419.0390625 334.98046875 C-409.29486358 337.64822501 -398.63579348 337.09600581 -388.60742188 337.16259766 C-386.79641826 337.17910251 -384.9854783 337.2063199 -383.17480469 337.24462891 C-367.98947972 337.562487 -352.3713489 336.45529075 -340.125 326.25 C-338.77138327 324.68606717 -338.77138327 324.68606717 -338 321.8125 C-339.65 321.8125 -341.3 321.8125 -343 321.8125 C-343 320.8225 -343 319.8325 -343 318.8125 C-349.6 318.4825 -356.2 318.1525 -363 317.8125 C-361.9893322 314.78049661 -361.36506843 313.81371175 -359 311.8125 C-358.01 311.4825 -357.02 311.1525 -356 310.8125 C-355.23043864 308.46716049 -355.23043864 308.46716049 -355 305.8125 C-356.0226725 304.02130688 -356.0226725 304.02130688 -358 302.8125 C-361.02224433 302.40847775 -361.02224433 302.40847775 -364.4375 302.5625 C-365.69175781 302.58828125 -366.94601562 302.6140625 -368.23828125 302.640625 C-372.52947854 302.83669217 -376.78953811 303.190127 -381.06640625 303.58203125 C-388.90423884 304.19778641 -396.22773472 303.97861193 -403.92578125 302.3828125 C-408.42719897 301.54773374 -412.96568706 301.06710485 -417.51855469 300.59814453 C-421.11103442 300.19277089 -423.85337059 299.5751633 -427 297.8125 C-429.05436268 297.25433354 -431.1129114 296.81505457 -433.1953125 296.375 C-435 295.8125 -435 295.8125 -437 293.8125 C-438.67485413 293.35004028 -440.35027772 292.88948461 -442.02929688 292.44238281 C-445.51482313 291.3283271 -448.59190824 289.51024478 -451.75 287.6875 C-452.45318359 287.28354004 -453.15636719 286.87958008 -453.88085938 286.46337891 C-473.33325136 275.12208266 -493.17725314 257.80145084 -504 237.8125 C-504.73643938 236.53464129 -505.47629879 235.25875016 -506.21875 233.984375 C-509.98486563 227.48150255 -513.59597877 221.09543339 -516.171875 214.01171875 C-517.00031922 211.81165226 -518.0071389 209.78640845 -519.0625 207.6875 C-521.73802449 201.76986936 -522.60676781 195.36211741 -523.61962891 188.9909668 C-523.87588141 187.52335377 -524.17620416 186.062842 -524.51708984 184.61254883 C-526.73015365 174.62998662 -526.39744779 164.42102947 -526.375 154.25 C-526.3737915 153.24528656 -526.37258301 152.24057312 -526.37133789 151.20541382 C-526.24680875 113.086208 -518.90812623 74.80215462 -492.75390625 45.546875 C-490.57687518 43.39408704 -488.22188499 41.77118025 -485.6796875 40.08203125 C-483.24905662 38.24492652 -481.5057941 35.97787434 -479.58203125 33.6328125 C-472.65432366 25.66167241 -463.36798513 19.16288589 -453.84375 14.703125 C-451.73181625 13.71934535 -451.73181625 13.71934535 -448.8125 11.875 C-437.88863981 5.5401587 -424.78951494 1.67977093 -412.25 0.625 C-411.35385986 0.54531982 -410.45771973 0.46563965 -409.53442383 0.38354492 C-399.3576538 -0.43911488 -389.20066388 -0.45708614 -379 -0.1875 C-377.87223145 -0.15849609 -377.87223145 -0.15849609 -376.72167969 -0.12890625 C-360.9293122 0.36212301 -346.83210511 3.90280758 -332.00610352 9.11938477 C-322.46892259 12.35775871 -314.61168873 12.68848513 -304.9375 10 C-304.24849609 9.81912842 -303.55949219 9.63825684 -302.84960938 9.4519043 C-298.55637113 8.3052536 -294.33384547 7.02534125 -290.1875 5.42578125 C-284.24060821 3.75852766 -278.00851229 3.65430062 -271.87109375 3.64453125 C-270.74284935 3.63953865 -270.74284935 3.63953865 -269.59181213 3.63444519 C-268.00774744 3.62941511 -266.42367228 3.62703564 -264.83959961 3.62719727 C-262.46774884 3.62502767 -260.09637715 3.6068766 -257.72460938 3.58789062 C-240.18205393 3.52258227 -224.49125222 4.15602643 -211.03125 16.59375 C-207.09033071 20.89844646 -206.64098265 24.47543314 -206 30.25 C-205.48759132 34.857103 -204.71544249 38.54071184 -203 42.8125 C-202.63213111 45.22136 -202.32421067 47.63980696 -202.0625 50.0625 C-201.45075614 55.22722278 -200.56633886 60.00606587 -198.71484375 64.87890625 C-197.99687988 66.82093967 -197.52819171 68.73475005 -197.0625 70.75 C-196.23891822 74.27506722 -196.23891822 74.27506722 -192 75.8125 C-191.67 67.8925 -191.34 59.9725 -191 51.8125 C-190.34 51.8125 -189.68 51.8125 -189 51.8125 C-188.67 55.7725 -188.34 59.7325 -188 63.8125 C-186.35 62.8225 -184.7 61.8325 -183 60.8125 C-182.95679753 58.47956666 -182.95977609 56.1454866 -183 53.8125 C-182.360625 53.02875 -181.72125 52.245 -181.0625 51.4375 C-178.47369503 48.14265731 -178.41262964 45.79045147 -178.17578125 41.703125 C-178 39.8125 -178 39.8125 -177 38.8125 C-176.40906027 35.72606318 -175.85662932 32.63953211 -175.36914062 29.53515625 C-174.5367158 24.90450885 -173.16031375 22.2551992 -170 18.8125 C-169.56558594 18.19246094 -169.13117188 17.57242187 -168.68359375 16.93359375 C-164.51728894 11.30451107 -159.54659702 9.75257299 -153 7.8125 C-152.16049805 7.4717041 -151.32099609 7.1309082 -150.45605469 6.77978516 C-145.89075134 5.50204202 -141.64046488 5.50705428 -136.921875 5.51171875 C-135.4719516 5.50529106 -135.4719516 5.50529106 -133.99273682 5.49873352 C-131.95203431 5.49300537 -129.91131139 5.49247876 -127.87060547 5.49682617 C-124.77405249 5.49997554 -121.67846557 5.47654441 -118.58203125 5.45117188 C-116.59114703 5.44889744 -114.60026026 5.44819606 -112.609375 5.44921875 C-111.69549011 5.440009 -110.78160522 5.43079926 -109.84002686 5.42131042 C-101.75507448 5.47848432 -93.65480295 6.95629244 -87 11.8125 C-86.43539063 12.18761719 -85.87078125 12.56273437 -85.2890625 12.94921875 C-80.23454933 16.67079069 -78.59884029 20.56932963 -76.82421875 26.51953125 C-76.23716355 28.98159514 -76.23716355 28.98159514 -74 29.8125 C-72.45976004 29.88200541 -70.91665012 29.89702357 -69.375 29.875 C-68.55773437 29.86597656 -67.74046875 29.85695313 -66.8984375 29.84765625 C-66.27195312 29.83605469 -65.64546875 29.82445312 -65 29.8125 C-64.608125 28.925625 -64.21625 28.03875 -63.8125 27.125 C-60.68352317 21.4065251 -56.45578666 18.27831797 -50.984375 15.0078125 C-49.21979711 13.94489747 -47.5109822 12.79062504 -45.8125 11.625 C-43.19414062 9.93761284 -40.90569424 8.89368855 -38 7.8125 C-36.5812909 7.17116575 -35.16485091 6.52480154 -33.75 5.875 C-29.23999564 3.87303437 -24.74558306 2.16838087 -20 0.8125 C-18.80503906 0.44898438 -18.80503906 0.44898438 -17.5859375 0.078125 C-11.45127712 -1.44163981 -6.14994003 -1.05052819 0 0 Z M-73 179.8125 C-73.91058531 182.88572544 -74.08886184 185.61347361 -74 188.8125 C-73.01 189.3075 -73.01 189.3075 -72 189.8125 C-72 186.5125 -72 183.2125 -72 179.8125 C-72.33 179.8125 -72.66 179.8125 -73 179.8125 Z M-194 228.8125 C-193.67 233.1025 -193.34 237.3925 -193 241.8125 C-192.67 241.8125 -192.34 241.8125 -192 241.8125 C-192 237.5225 -192 233.2325 -192 228.8125 C-192.66 228.8125 -193.32 228.8125 -194 228.8125 Z " transform="translate(576 425.188)" class="color015FBE svgShape"></path><path fill="#ffffff" d="M0 0 C2.62624112 0.04230319 5.24993554 0.04100564 7.87646484 0.03417969 C16.75121506 0.06785341 24.79806799 0.48719171 33.23193359 3.54199219 C35.00250771 4.12611184 36.77331164 4.70953575 38.54443359 5.29199219 C43.90256905 7.14778104 47.72488657 11.4424237 50.17917633 16.49020195 C50.92590511 18.5680683 51.53025789 20.63344655 52.07861328 22.7722168 C52.28507854 23.55315421 52.49154381 24.33409163 52.70426559 25.13869381 C54.86273225 34.03360943 54.84306283 42.75959771 54.68505859 51.85839844 C54.67271443 53.69764278 54.66282993 55.536905 54.65519714 57.37617493 C54.63475877 61.27096619 54.59948264 65.16520211 54.55172729 69.05975342 C54.4774548 75.17175464 54.43851694 81.28363691 54.40795898 87.39599609 C54.40278417 88.42111801 54.39760935 89.44623993 54.39227772 90.50242615 C54.38187869 92.5812397 54.37160753 94.6600539 54.36146355 96.73886871 C54.34518576 99.87180832 54.32579554 103.00471637 54.30580139 106.13763428 C54.18904561 125.44373971 54.35103737 144.74152096 54.63542175 164.04548264 C54.66934305 166.41067865 54.7003341 168.77589518 54.73034668 171.1411438 C54.7772017 174.82372477 54.82888114 178.50620071 54.88512611 182.18865013 C54.91449942 184.15293905 54.94036838 186.1172794 54.96611023 188.08161926 C54.98607559 189.24916245 55.00604095 190.41670563 55.02661133 191.61962891 C55.04992775 193.12866287 55.04992775 193.12866287 55.07371521 194.66818237 C55.24843051 200.5289844 55.24843051 200.5289844 57.91943359 205.47949219 C61.14699496 206.96242579 62.90432649 206.69942075 66.23193359 205.54199219 C67.38213884 203.29455462 67.38213884 203.29455462 68.23193359 200.54199219 C69.460642 199.11927719 70.69074113 197.69761655 71.93896484 196.29199219 C73.92371538 193.6056833 74.99146944 190.61292731 76.14208984 187.49511719 C77.48630971 185.08612102 78.78981429 184.69063726 81.23193359 183.54199219 C81.61131977 181.55021478 81.93479336 179.54768877 82.23193359 177.54199219 C83.1307478 175.50916005 84.15641842 173.5740314 85.20068359 171.61230469 C86.19645076 169.61322667 86.90914696 167.66027304 87.60693359 165.54199219 C88.98798402 161.71811601 91.03995239 158.91751326 93.55224609 155.74902344 C96.74597841 151.55260772 99.43526765 147.008412 102.23193359 142.54199219 C111.33416797 128.19907741 122.90268258 118.03886642 139.32449341 113.19171143 C144.49996407 112.03516042 149.64198701 112.1354066 154.92333984 112.17871094 C156.10862778 112.17821243 157.29391571 112.17771393 158.51512146 112.17720032 C161.00692431 112.17952858 163.49873006 112.18918275 165.99047852 112.20581055 C169.78667397 112.22944388 173.58216734 112.22635607 177.37841797 112.21972656 C179.81006274 112.22530311 182.24170459 112.23241284 184.67333984 112.24121094 C185.79857559 112.24029953 186.92381134 112.23938812 188.08314514 112.2384491 C199.47690379 112.34012202 208.13276336 113.9119889 216.66943359 121.79199219 C218.89208595 125.70386034 219.05061417 129.10302404 219.23193359 133.54199219 C219.31830078 134.486875 219.40466797 135.43175781 219.49365234 136.40527344 C219.97953707 144.73009836 217.79341021 149.69977726 213.23193359 156.54199219 C212.82974609 157.15623047 212.42755859 157.77046875 212.01318359 158.40332031 C206.85001472 166.26332293 201.45902496 173.80041129 195.30224609 180.91699219 C193.1511277 183.64444797 191.36363039 186.45612879 189.55273438 189.41455078 C187.34629411 192.9685102 184.9762717 196.40788634 182.60693359 199.85449219 C182.12998047 200.55638672 181.65302734 201.25828125 181.16162109 201.98144531 C180.69755859 202.65755859 180.23349609 203.33367187 179.75537109 204.03027344 C179.34206543 204.63395752 178.92875977 205.2376416 178.50292969 205.85961914 C177.20016397 207.58404452 175.75823937 209.01568641 174.23193359 210.54199219 C173.42250754 211.630046 172.64295593 212.74085559 171.89208984 213.87011719 C171.46863281 214.505625 171.04517578 215.14113281 170.60888672 215.79589844 C169.95823242 216.78396484 169.95823242 216.78396484 169.29443359 217.79199219 C168.64958008 218.75685547 168.64958008 218.75685547 167.99169922 219.74121094 C165.2223741 223.91831135 162.69247648 228.17651287 160.23193359 232.54199219 C156.65298623 238.12093956 156.65298623 238.12093956 154.23193359 240.54199219 C152.92383138 246.27751729 153.32856492 249.92912088 155.41943359 255.38964844 C156.23193359 257.54199219 156.23193359 257.54199219 157.04443359 261.04199219 C158.37157755 264.95357439 160.24485505 267.7423213 162.60302734 271.10058594 C164.279276 273.61294904 165.65886946 276.17213265 167.04443359 278.85449219 C173.2535524 290.40409659 185.22348853 308.58686916 197.96630859 313.62255859 C201.41798156 314.59437382 204.4495847 314.88674148 208.02880859 315.03417969 C209.96240234 315.13279297 209.96240234 315.13279297 211.93505859 315.23339844 C213.95309985 315.32765835 215.97104933 315.41656603 217.98974609 315.49560547 C226.51097861 315.84439121 233.58909975 316.65734288 241.23193359 320.54199219 C242.23196411 320.98164307 242.23196411 320.98164307 243.25219727 321.43017578 C248.37394902 323.90153417 250.11692663 327.07563511 252.29443359 332.04199219 C252.9659343 333.48096899 253.63781273 334.9197696 254.31005859 336.35839844 C254.63296875 337.06754395 254.95587891 337.77668945 255.28857422 338.50732422 C256.6192223 341.37730897 258.08527127 344.17313296 259.54443359 346.97949219 C265.29550024 358.60698934 267.10910153 368.41197501 263.19677734 381.10449219 C260.43676796 388.07714747 254.58738457 392.04492361 248.23193359 395.54199219 C246.11008241 396.42246128 244.00560467 397.1159244 241.80224609 397.76464844 C237.5148279 399.06129923 233.34585574 400.6966592 229.14990234 402.26074219 C227.8469736 402.69707423 226.54057661 403.12310985 225.23193359 403.54199219 C224.42336914 403.81035889 223.61480469 404.07872559 222.78173828 404.35522461 C214.07490403 406.91253495 205.64487974 406.96719545 196.65283203 406.87817383 C194.1319927 406.85472528 191.61222864 406.85761604 189.09130859 406.86425781 C180.81422565 406.85067127 172.62209352 406.53837043 164.38818359 405.66699219 C163.29568802 405.55506279 163.29568802 405.55506279 162.18112183 405.44087219 C155.57809828 404.66118169 150.16180417 402.39926223 144.23193359 399.54199219 C142.19252344 398.74453052 140.1508225 397.95290378 138.10693359 397.16699219 C127.33692764 392.6759701 117.95790328 385.15658997 110.59130859 376.15527344 C108.50344247 373.67743232 106.18207633 371.49512475 103.82177734 369.27636719 C101.03847426 366.33773648 98.90605608 363.21951943 96.79443359 359.79199219 C96.01250804 358.54810854 95.2299552 357.30461899 94.44677734 356.06152344 C94.07020996 355.46033691 93.69364258 354.85915039 93.30566406 354.23974609 C91.86311114 351.95881999 90.36516691 349.71739449 88.85693359 347.47949219 C86.88985058 344.54773011 85.0258552 341.58385925 83.23193359 338.54199219 C82.82974609 337.91421875 82.42755859 337.28644531 82.01318359 336.63964844 C81.56974609 335.94742187 81.12630859 335.25519531 80.66943359 334.54199219 C80.25564453 333.90261719 79.84185547 333.26324219 79.41552734 332.60449219 C78.23193359 330.54199219 78.23193359 330.54199219 77.28662109 328.08496094 C76.14071991 325.32206587 74.70469063 323.24934918 72.91943359 320.85449219 C69.42646917 315.99503331 66.73656075 310.96676068 64.23193359 305.54199219 C60.27473213 306.12824426 57.96637768 307.64290002 55.23193359 310.54199219 C54.51786662 313.62966793 54.6262576 316.6482333 54.70849609 319.80371094 C54.71319916 320.70893997 54.71790222 321.61416901 54.7227478 322.54682922 C54.74407999 325.44182541 54.8006081 328.33498787 54.85693359 331.22949219 C54.87344723 333.15851114 54.88779361 335.08754993 54.89990234 337.01660156 C54.97170582 344.58942862 55.06295847 352.06106682 56.00982666 359.58345032 C56.32995935 362.40638463 56.36425043 365.20306137 56.35693359 368.04199219 C56.36080078 369.57339844 56.36080078 369.57339844 56.36474609 371.13574219 C56.23193359 373.54199219 56.23193359 373.54199219 55.23193359 374.54199219 C55.12880859 375.53199219 55.02568359 376.52199219 54.91943359 377.54199219 C53.9459547 384.83559562 50.52534256 391.48919272 45.23193359 396.54199219 C42.64963249 397.90811277 40.03932774 398.75634084 37.23193359 399.54199219 C35.97380859 399.91324219 34.71568359 400.28449219 33.41943359 400.66699219 C23.48513145 402.98431949 13.11833002 402.72453794 2.98193359 402.72949219 C1.67869141 402.74173828 0.37544922 402.75398438 -0.96728516 402.76660156 C-29.08102922 402.80839603 -29.08102922 402.80839603 -39.76806641 393.54199219 C-44.0371857 388.26287645 -45.67968633 383.1931408 -46.51806641 376.54199219 C-46.63021484 375.8059375 -46.74236328 375.06988281 -46.85791016 374.31152344 C-49.30227783 357.14343519 -48.92442975 339.75158412 -48.92810917 322.45753121 C-48.92998156 318.66060114 -48.93753896 314.86368124 -48.94424438 311.0667572 C-48.95773502 302.79210232 -48.96383659 294.51745235 -48.96825504 286.24278831 C-48.97103078 281.06652603 -48.97527022 275.89026556 -48.97975922 270.71400452 C-48.99193507 256.35150012 -49.00224072 241.98899717 -49.00563431 227.62648773 C-49.00585387 226.71021234 -49.00607344 225.79393694 -49.00629966 224.84989563 C-49.00651794 223.93159386 -49.00673622 223.01329209 -49.00696111 222.06716299 C-49.00740455 220.20672194 -49.00785112 218.34628089 -49.00830078 216.48583984 C-49.00852221 215.56302241 -49.00874364 214.64020498 -49.00897178 213.68942338 C-49.01292211 198.72798514 -49.03039084 183.76659553 -49.0536603 168.80517608 C-49.07741741 153.40478136 -49.08983798 138.00441103 -49.09100223 122.60399771 C-49.09191603 113.97295567 -49.09759471 105.34197719 -49.11582184 96.71095276 C-49.13128119 89.36549795 -49.1363087 82.02012642 -49.12808374 74.67465842 C-49.12419907 70.93386003 -49.12499916 67.19322907 -49.13914108 63.45245171 C-49.28297441 22.91999563 -49.28297441 22.91999563 -38.76806641 9.54199219 C-38.10806641 9.54199219 -37.44806641 9.54199219 -36.76806641 9.54199219 C-36.58969238 8.93806641 -36.41131836 8.33414062 -36.22753906 7.71191406 C-34.04261867 4.46340746 -31.02196401 3.84410833 -27.41650391 2.82324219 C-26.66533295 2.6080896 -25.91416199 2.39293701 -25.14022827 2.17126465 C-16.79850695 -0.00603592 -8.57531389 -0.14537168 0 0 Z " transform="translate(979.768 318.458)" class="color015FBE svgShape"></path><path fill="#ffffff" d="M0 0 C5.09026221 0.82528512 10.21353063 0.92077577 15.36474609 1.01708984 C20.38481543 1.18277218 24.5754811 2.05925685 29.28710938 3.81323242 C31.56697728 4.67541823 31.56697728 4.67541823 35.11328125 5.41015625 C53.2708674 9.86928841 73.3359029 22.20082867 87.30078125 34.53515625 C87.30078125 35.19515625 87.30078125 35.85515625 87.30078125 36.53515625 C88.00847656 36.77878906 88.71617187 37.02242188 89.4453125 37.2734375 C100.49235807 42.15469019 107.1845367 51.85065133 113.234375 61.81445312 C114.25853496 63.46698962 115.35662079 65.07300949 116.45703125 66.67578125 C118.14777057 69.29786003 119.21137108 71.63006247 120.30078125 74.53515625 C121.11781821 76.2416768 121.93547984 77.94792285 122.76293945 79.64941406 C125.97242135 86.27953927 128.51752723 92.7987932 130.4765625 99.92578125 C131.22879458 102.72869741 131.22879458 102.72869741 133.30078125 105.53515625 C139.55606549 125.50770584 138.57730463 146.88699276 138.30078125 167.53515625 C138.29353027 168.31938965 138.2862793 169.10362305 138.27880859 169.91162109 C138.15467074 178.43926077 136.28611441 185.84973209 133.5546875 193.8515625 C132.5516926 196.79805532 131.67565693 199.72124431 130.86328125 202.72265625 C129.71988225 206.61411082 128.1218221 210.13178763 126.36328125 213.78515625 C124.14728234 218.40227438 122.57772723 222.82697271 121.30078125 227.78515625 C119.639096 233.99061985 117.28188632 238.53033845 113.30078125 243.53515625 C112.87667969 244.0971875 112.45257812 244.65921875 112.015625 245.23828125 C109.99508533 247.81105845 107.88281949 249.88197558 105.36328125 251.97265625 C103.03423943 253.92144635 101.46156881 255.4747968 99.61328125 257.78515625 C84.98537027 275.35392662 61.60935121 286.50840163 40.30078125 293.53515625 C39.34171875 293.88191406 38.38265625 294.22867187 37.39453125 294.5859375 C22.89194328 299.74551207 8.79277654 302.18518569 -6.57836914 301.94677734 C-9.02857804 301.90990252 -11.47727423 301.90576278 -13.92773438 301.90625 C-28.46728298 301.84212669 -41.74154618 299.56084287 -55.69921875 295.53515625 C-56.86195313 295.20257812 -58.0246875 294.87 -59.22265625 294.52734375 C-73.18729692 290.39328929 -85.33808855 284.01493413 -96.8203125 274.95703125 C-98.31765781 273.82390507 -99.8786553 272.77503779 -101.45703125 271.7578125 C-105.25867965 269.15162221 -108.67348984 266.25606427 -112.13671875 263.22265625 C-113.0812793 262.40764648 -113.0812793 262.40764648 -114.04492188 261.57617188 C-120.11309853 256.29380227 -125.8768968 250.83793449 -130.82421875 244.47265625 C-132.98322978 241.71345683 -135.14731631 238.98848912 -137.44921875 236.34765625 C-139.1911002 234.17030443 -140.48964938 232.25590173 -141.82421875 229.84765625 C-143.44656614 226.63759606 -143.44656614 226.63759606 -145.38671875 224.84765625 C-147.03887079 223.19550421 -147.3082059 221.80303076 -147.69921875 219.53515625 C-148.68921875 219.53515625 -149.67921875 219.53515625 -150.69921875 219.53515625 C-151.69921875 213.78515625 -151.69921875 213.78515625 -151.69921875 211.53515625 C-152.68921875 211.53515625 -153.67921875 211.53515625 -154.69921875 211.53515625 C-157.25201227 207.34340969 -156.73800461 203.75306475 -156.4765625 198.99609375 C-156.55003906 198.18398438 -156.62351562 197.371875 -156.69921875 196.53515625 C-157.68921875 195.87515625 -158.67921875 195.21515625 -159.69921875 194.53515625 C-159.92007515 191.58451477 -159.97982864 188.85147394 -159.88671875 185.91015625 C-159.87318359 185.10835937 -159.85964844 184.3065625 -159.84570312 183.48046875 C-159.81030926 181.49841247 -159.75650109 179.51670074 -159.69921875 177.53515625 C-160.68921875 177.86515625 -161.67921875 178.19515625 -162.69921875 178.53515625 C-165.14498702 174.86650384 -164.93529129 172.86315282 -164.69921875 168.53515625 C-164.20421875 167.54515625 -164.20421875 167.54515625 -163.69921875 166.53515625 C-163.32747003 162.48325935 -163.22996049 158.41297368 -163.07421875 154.34765625 C-163.02265625 153.22294922 -162.97109375 152.09824219 -162.91796875 150.93945312 C-162.69228547 145.29405228 -162.73398359 140.09639576 -163.69921875 134.53515625 C-163.44508178 130.85017013 -163.1780992 128.31372626 -161.23510742 125.15478516 C-159.64659987 122.4454089 -159.00327473 120.30773434 -158.375 117.24609375 C-158.15521484 116.23111816 -157.93542969 115.21614258 -157.70898438 114.17041016 C-157.47888672 113.09452637 -157.24878906 112.01864258 -157.01171875 110.91015625 C-154.41884212 99.4825996 -150.80332476 89.0692191 -145.69921875 78.53515625 C-145.19519531 77.49359375 -144.69117188 76.45203125 -144.171875 75.37890625 C-140.34436709 67.99955581 -135.53295672 61.27602356 -130.69921875 54.53515625 C-130.19648437 53.80425781 -129.69375 53.07335937 -129.17578125 52.3203125 C-122.35335888 42.67821846 -114.26888574 35.39413904 -104.09375 29.50390625 C-100.50202022 27.42078564 -97.04446224 25.18648033 -93.57421875 22.91015625 C-85.30796726 17.55806244 -77.04584638 12.81929764 -67.79296875 9.39453125 C-65.45715569 8.51621804 -65.45715569 8.51621804 -62.69921875 6.53515625 C-60.34339325 5.78967871 -58.03024302 5.13071988 -55.63671875 4.53515625 C-54.94296143 4.36072998 -54.2492041 4.18630371 -53.53442383 4.0065918 C-46.54147861 2.34256801 -39.51392239 1.58759271 -32.3671875 0.9296875 C-28.7584971 0.67322562 -28.7584971 0.67322562 -25.69921875 -0.46484375 C-16.91169257 -1.41148694 -8.69612911 -1.816204 0 0 Z " transform="translate(768.7 424.465)" class="color025FBE svgShape"></path><path fill="#ffffff" d="M0 0 C0.7425 0.1252002 1.485 0.25040039 2.25 0.37939453 C6.05755409 1.12043275 8.55894942 1.72382375 11 4.8125 C12.175625 5.3384375 12.175625 5.3384375 13.375 5.875 C17.5726006 8.97322902 19.31257861 12.93316764 21 17.8125 C21.73437662 22.91085184 21.79486354 27.98333793 21.8125 33.125 C21.83393 34.57473417 21.85715105 36.02444287 21.88208008 37.47412109 C21.93943995 41.18815329 21.96602549 44.90174939 21.98498535 48.6161499 C22.00440683 51.45713267 22.04618111 54.29757197 22.08851624 57.13829041 C22.13447915 60.40459296 22.16124017 63.67098775 22.1875 66.9375 C22.20079346 68.13286377 22.21408691 69.32822754 22.2277832 70.55981445 C22.23243693 76.42646784 21.88641592 81.26335433 20 86.8125 C19.8765691 88.18448187 19.78457127 89.56041094 19.75 90.9375 C18.97601647 94.93641488 18.16513669 96.51806692 14.82617188 98.86303711 C6.91073218 102.97843082 -3.26792076 102.41589068 -12 102.875 C-14.14067354 102.99061464 -16.28114743 103.10839426 -18.42138672 103.23179626 C-20.34182765 103.34215825 -22.26270536 103.44484035 -24.18359375 103.54711914 C-26.90127592 103.50122462 -26.90127592 103.50122462 -28 104.8125 C-30.54969386 105.01485666 -33.09692964 105.13165246 -35.65234375 105.23828125 C-38.15915715 105.56270466 -38.15915715 105.56270466 -39.2265625 107.765625 C-39.48179687 108.44109375 -39.73703125 109.1165625 -40 109.8125 C-41 110.8125 -42 111.8125 -43 112.8125 C-43.4125 113.555 -43.825 114.2975 -44.25 115.0625 C-45.84489766 117.56876775 -47.29447206 119.11905274 -49.4375 121.125 C-54.19414967 125.76122815 -56.59993189 130.68498235 -58.0625 137.125 C-59 140.8125 -59 140.8125 -60.49609375 142.140625 C-62.73750795 144.63237897 -62.64751687 146.95648576 -63 150.25 C-63.70076135 155.91448758 -64.7390742 161.29220559 -66.21875 166.80078125 C-66.4765625 167.79464844 -66.734375 168.78851562 -67 169.8125 C-67.34135986 171.0406543 -67.68271973 172.26880859 -68.03442383 173.53417969 C-69.53450098 180.37001951 -69.26759377 187.31829936 -69.23046875 194.27734375 C-69.22927453 195.7618455 -69.2288243 197.24634801 -69.2290802 198.73085022 C-69.22752513 201.8229758 -69.21930552 204.91498399 -69.20581055 208.00708008 C-69.18871754 211.97388533 -69.18499971 215.9405633 -69.18575573 219.90740108 C-69.18548435 222.9639457 -69.18001009 226.02046241 -69.17275429 229.07699776 C-69.16957096 230.54066317 -69.16760099 232.00433173 -69.16686058 233.46800041 C-69.16469939 235.5046388 -69.15516567 237.54126539 -69.14526367 239.57788086 C-69.14145187 240.7365416 -69.13764008 241.89520233 -69.13371277 243.088974 C-69.18496936 245.77824137 -69.18496936 245.77824137 -68 247.8125 C-67.90284658 250.14418218 -67.87021783 252.47879957 -67.875 254.8125 C-67.87113281 256.6996875 -67.87113281 256.6996875 -67.8671875 258.625 C-68 261.8125 -68 261.8125 -69 263.8125 C-69.11703659 265.83556099 -69.23276972 267.85871149 -69.33984375 269.88232422 C-69.89149504 278.25295981 -71.07376803 283.66022529 -77.125 289.8671875 C-84.71627236 295.00367342 -92.0644778 296.41939696 -101.09765625 296.34375 C-102.13079453 296.3475769 -103.1639328 296.35140381 -104.2283783 296.35534668 C-106.40413391 296.35805314 -108.57992277 296.35078135 -110.75561523 296.33398438 C-114.02990197 296.31271178 -117.30195583 296.33375091 -120.57617188 296.359375 C-146.84247929 296.39126035 -146.84247929 296.39126035 -158 290.8125 C-158 290.1525 -158 289.4925 -158 288.8125 C-158.8353125 288.503125 -158.8353125 288.503125 -159.6875 288.1875 C-165.24611468 284.88237776 -167.51504414 280.25514731 -169.39245534 274.3258878 C-170.4208491 270.07146423 -170.41286662 265.91697173 -170.38095093 261.55882263 C-170.3856309 260.56447411 -170.39031087 259.57012559 -170.39513266 258.5456453 C-170.40704056 255.23398672 -170.39764176 251.92274519 -170.38818359 248.61108398 C-170.39225112 246.22867594 -170.39759402 243.84626978 -170.40411377 241.46386719 C-170.41635412 235.67711509 -170.41458913 229.89049417 -170.40587585 224.10373812 C-170.3990866 219.39911079 -170.39818793 214.69451616 -170.4014473 209.98988533 C-170.401907 209.31900174 -170.40236669 208.64811815 -170.40284032 207.95690476 C-170.40379955 206.5938134 -170.40477219 205.23072206 -170.4057581 203.86763073 C-170.41430162 191.10232839 -170.40449385 178.33709082 -170.388357 165.57179911 C-170.37495168 154.62864422 -170.37728566 143.68558481 -170.39111328 132.74243164 C-170.40718218 120.01966613 -170.41348097 107.29695728 -170.40427649 94.57418305 C-170.40332089 93.21655501 -170.40237777 91.85892696 -170.4014473 90.5012989 C-170.40098447 89.8334007 -170.40052164 89.16550249 -170.40004479 88.47736494 C-170.39745906 83.78018352 -170.40181683 79.08303818 -170.40888596 74.38586235 C-170.41755714 68.05993229 -170.41153065 61.73418241 -170.39420319 55.40827179 C-170.39023937 53.08793245 -170.39137057 50.76757792 -170.39799118 48.44724464 C-170.40620053 45.2776902 -170.39589193 42.10871158 -170.38095093 38.93919373 C-170.38764309 38.0231351 -170.39433526 37.10707647 -170.40123022 36.16325849 C-170.34160205 29.6324632 -169.48285846 23.80357682 -165.16796875 18.60546875 C-155.96449552 11.144665 -148.54005293 9.65855428 -136.921875 9.64453125 C-135.4719516 9.63953865 -135.4719516 9.63953865 -133.99273682 9.63444519 C-131.95203118 9.62939577 -129.91131734 9.62703625 -127.87060547 9.62719727 C-124.77427291 9.62501709 -121.67830058 9.60685743 -118.58203125 9.58789062 C-116.59114704 9.5849549 -114.60026115 9.5829713 -112.609375 9.58203125 C-111.23854767 9.57125298 -111.23854767 9.57125298 -109.84002686 9.56025696 C-100.25265686 9.59374512 -91.65871106 10.65723107 -84 16.8125 C-81.27788893 19.67420651 -79.58385951 21.87144832 -79 25.8125 C-78.34 25.8125 -77.68 25.8125 -77 25.8125 C-76.505 27.2975 -76.505 27.2975 -76 28.8125 C-73.59454362 30.01522819 -72.05003047 29.91321472 -69.375 29.875 C-68.55773437 29.86597656 -67.74046875 29.85695313 -66.8984375 29.84765625 C-66.27195312 29.83605469 -65.64546875 29.82445312 -65 29.8125 C-64.608125 28.925625 -64.21625 28.03875 -63.8125 27.125 C-60.68352317 21.4065251 -56.45578666 18.27831797 -50.984375 15.0078125 C-49.21979711 13.94489747 -47.5109822 12.79062504 -45.8125 11.625 C-43.19414062 9.93761284 -40.90569424 8.89368855 -38 7.8125 C-36.5812909 7.17116575 -35.16485091 6.52480154 -33.75 5.875 C-29.23999564 3.87303437 -24.74558306 2.16838087 -20 0.8125 C-19.20335937 0.57015625 -18.40671875 0.3278125 -17.5859375 0.078125 C-11.45127712 -1.44163981 -6.14994003 -1.05052819 0 0 Z M-73 179.8125 C-73.91058531 182.88572544 -74.08886184 185.61347361 -74 188.8125 C-73.01 189.3075 -73.01 189.3075 -72 189.8125 C-72 186.5125 -72 183.2125 -72 179.8125 C-72.33 179.8125 -72.66 179.8125 -73 179.8125 Z " transform="translate(576 425.188)" class="color015FBE svgShape"></path><path fill="#0461be" d="M0 0 C8.90783418 1.62324987 8.90783418 1.62324987 12.41015625 3.8828125 C14.07223205 6.6203491 13.9119404 8.49506856 13.47265625 11.6328125 C11.8984375 14.30859375 11.8984375 14.30859375 9.47265625 16.6328125 C6.01953125 17.12109375 6.01953125 17.12109375 2.22265625 16.9453125 C0.959375 16.90019531 -0.30390625 16.85507812 -1.60546875 16.80859375 C-2.5696875 16.75058594 -3.53390625 16.69257813 -4.52734375 16.6328125 C-4.51574219 17.28507812 -4.50414062 17.93734375 -4.4921875 18.609375 C-4.44263381 23.4090039 -4.53320624 27.91065935 -5.52734375 32.6328125 C-4.97038818 32.67744629 -4.41343262 32.72208008 -3.83959961 32.76806641 C5.18328617 33.53800542 14.17034081 34.60020567 23.16040039 35.6796875 C24.99138746 35.89817695 26.82277277 36.11335484 28.65454102 36.32519531 C59.70191992 39.91731616 59.70191992 39.91731616 69.95703125 51.53515625 C78.16563253 62.89602967 72.43014311 82.57129178 70.72265625 95.4453125 C70.30587606 98.6527533 69.89168141 101.86052141 69.47761536 105.0683136 C69.20150042 107.20540564 68.9243141 109.34235954 68.64604187 111.47917175 C67.81080342 117.91323938 67.02251016 124.35044086 66.2890625 130.796875 C66.15747238 131.94089027 66.15747238 131.94089027 66.02322388 133.10801697 C65.62346987 136.58579125 65.2316689 140.06385761 64.85449219 143.54418945 C63.49908909 155.28088975 61.27010132 164.24209862 52.47265625 172.6328125 C41.72345784 179.99449944 25.48868024 176.66537207 13.39453125 174.98828125 C11.41963947 174.72751117 9.44474734 174.46674376 7.46983719 174.20611286 C4.73762273 173.84306968 2.00665097 173.47111513 -0.72436523 173.09918213 C-6.10133115 172.36879334 -11.48054162 171.65498804 -16.85969162 170.94089127 C-18.18976643 170.76421014 -19.51978623 170.58711435 -20.84975052 170.40960312 C-31.36857724 169.00728257 -41.89860013 167.77372669 -52.44827271 166.62919617 C-60.5358592 165.75110421 -68.59769624 164.77931239 -76.65234375 163.6328125 C-77.79058594 163.48070312 -78.92882812 163.32859375 -80.1015625 163.171875 C-100.19209572 160.33173009 -100.19209572 160.33173009 -106.19140625 152.4453125 C-116.29240987 137.50923132 -111.02959205 117.02576113 -108.71484375 100.0078125 C-108.43516698 97.8836417 -108.1568573 95.75929047 -107.87988281 93.63476562 C-107.47059616 90.49590677 -107.06059432 87.35717291 -106.6456604 84.21905518 C-105.4560736 75.20656741 -104.40813717 66.1838849 -103.46557617 57.14208984 C-102.18669771 45.41921213 -99.64126129 36.59740858 -90.52734375 28.6328125 C-78.59056894 20.10654478 -59.22256825 25.43057723 -45.77636719 27.14135742 C-42.37667183 27.57357629 -38.97564716 27.99376885 -35.57421875 28.41210938 C-33.41007008 28.68160061 -31.2460043 28.95175845 -29.08203125 29.22265625 C-28.06648163 29.34873764 -27.05093201 29.47481903 -26.00460815 29.60472107 C-25.06577789 29.72477005 -24.12694763 29.84481903 -23.15966797 29.96850586 C-22.33506073 30.0728746 -21.51045349 30.17724335 -20.66085815 30.28477478 C-18.52734375 30.6328125 -18.52734375 30.6328125 -15.52734375 31.6328125 C-15.53894531 30.82457031 -15.55054688 30.01632812 -15.5625 29.18359375 C-15.57152344 28.11496094 -15.58054687 27.04632813 -15.58984375 25.9453125 C-15.60144531 24.88957031 -15.61304688 23.83382813 -15.625 22.74609375 C-15.535998 19.90870988 -15.17674213 17.3889206 -14.52734375 14.6328125 C-16.35265625 14.725625 -16.35265625 14.725625 -18.21484375 14.8203125 C-22.12660868 14.82723598 -24.36415707 14.05171996 -27.52734375 11.6328125 C-29.52734375 9.6328125 -29.52734375 9.6328125 -29.90234375 6.2578125 C-29.52734375 2.6328125 -29.52734375 2.6328125 -27.8984375 0.4296875 C-21.17774427 -4.66342434 -7.96082184 -1.09147285 0 0 Z " transform="translate(777.527 466.367)" class="colorFBFCFC svgShape"></path><path fill="#f8fafc" d="M0 0 C1.12776855 0.02900391 1.12776855 0.02900391 2.27832031 0.05859375 C18.0706878 0.54962301 32.16789489 4.09030758 46.99389648 9.30688477 C56.53107741 12.54525871 64.38831127 12.87598513 74.0625 10.1875 C74.75150391 10.00662842 75.44050781 9.82575684 76.15039062 9.6394043 C80.44362887 8.4927536 84.66615453 7.21284125 88.8125 5.61328125 C94.75939179 3.94602766 100.99148771 3.84180062 107.12890625 3.83203125 C108.25715065 3.82703865 108.25715065 3.82703865 109.40818787 3.82194519 C110.99225256 3.81691511 112.57632772 3.81453564 114.16040039 3.81469727 C116.53225116 3.81252767 118.90362285 3.7943766 121.27539062 3.77539062 C138.81794607 3.71008227 154.50874778 4.34352643 167.96875 16.78125 C171.90966929 21.08594646 172.35901735 24.66293314 173 30.4375 C173.51240868 35.044603 174.28455751 38.72821184 176 43 C176.36786889 45.40886 176.67578933 47.82730696 176.9375 50.25 C177.54924386 55.41472278 178.43366114 60.19356587 180.28515625 65.06640625 C181.00312012 67.00843967 181.47180829 68.92225005 181.9375 70.9375 C182.76108178 74.46256722 182.76108178 74.46256722 187 76 C187.33 68.08 187.66 60.16 188 52 C188.66 52 189.32 52 190 52 C190.33 55.96 190.66 59.92 191 64 C192.65 63.01 194.3 62.02 196 61 C196.04320247 58.66706666 196.04022391 56.3329866 196 54 C196.639375 53.21625 197.27875 52.4325 197.9375 51.625 C200.52630497 48.33015731 200.58737036 45.97795147 200.82421875 41.890625 C201 40 201 40 202 39 C202.59093973 35.91356318 203.14337068 32.82703211 203.63085938 29.72265625 C204.4632842 25.09200885 205.83968625 22.4426992 209 19 C209.43441406 18.37996094 209.86882812 17.75992187 210.31640625 17.12109375 C214.48271106 11.49201107 219.45340298 9.94007299 226 8 C226.83950195 7.6592041 227.67900391 7.3184082 228.54394531 6.96728516 C233.10924866 5.68954202 237.35953512 5.69455428 242.078125 5.69921875 C243.5280484 5.69279106 243.5280484 5.69279106 245.00726318 5.68623352 C247.04796569 5.68050537 249.08868861 5.67997876 251.12939453 5.68432617 C254.22594751 5.68747554 257.32153443 5.66404441 260.41796875 5.63867188 C262.40885297 5.63639744 264.39973974 5.63569606 266.390625 5.63671875 C267.30450989 5.627509 268.21839478 5.61829926 269.15997314 5.60881042 C280.52402269 5.68917292 288.8138921 9.2221941 297.44921875 16.40234375 C299.19863315 18.20463718 300.1591461 19.63032084 301 22 C300.625 24.25 300.625 24.25 300 26 C299.5978125 25.22076172 299.5978125 25.22076172 299.1875 24.42578125 C295.69589085 18.21209523 291.73900888 14.34598992 284.76187134 12.36431885 C278.60668008 11.11774794 272.73274616 10.70639915 266.4609375 10.734375 C265.01238876 10.73150482 265.01238876 10.73150482 263.53457642 10.72857666 C261.50937639 10.7272255 259.48416738 10.73084651 257.45898438 10.73925781 C254.37610307 10.74999616 251.29380127 10.73931377 248.2109375 10.7265625 C246.23176956 10.72788383 244.25260198 10.73044567 242.2734375 10.734375 C240.90594864 10.72830231 240.90594864 10.72830231 239.51083374 10.72210693 C230.53763502 10.78727571 223.21791693 12.45022387 216 18 C209.99879079 24.15913577 209.70513207 30.71657088 209.73257446 38.87272644 C209.72577779 40.35722926 209.72577779 40.35722926 209.71884382 41.87172204 C209.70619084 45.1856064 209.7078208 48.49932659 209.70947266 51.81323242 C209.70348791 54.19033011 209.69668248 56.56742586 209.68911743 58.94451904 C209.67327893 64.73065109 209.6670087 70.51673339 209.66589268 76.30288603 C209.66494113 81.00898569 209.66082548 85.71507195 209.65449142 90.42116737 C209.63688257 103.7770224 209.62765176 117.13284532 209.62915237 130.48871204 C209.62923228 131.20826958 209.6293122 131.92782713 209.62939453 132.66918945 C209.62951717 133.7498509 209.62951717 133.7498509 209.62964229 134.85234389 C209.63045465 146.51990029 209.6113288 158.18732742 209.5831178 169.85484644 C209.55434959 181.84792031 209.54057973 193.84093123 209.54230535 205.83404046 C209.54296799 212.56199974 209.53753141 219.28982359 209.51594925 226.01775169 C209.49655435 232.34860125 209.49645132 238.67916527 209.51098251 245.01002502 C209.51307025 247.32910899 209.50837191 249.64821089 209.4962616 251.96726418 C209.48075826 255.14262736 209.49015157 258.31701227 209.50552368 261.49235535 C209.49009299 262.85640504 209.49009299 262.85640504 209.47435057 264.24801129 C209.55148838 271.4997436 210.81600347 279.45224982 215.80959189 285.01632756 C217.90596398 286.87388673 217.90596398 286.87388673 221 289 C218 290 218 290 216.03125 289.3203125 C207.74805273 283.93623427 205.57010616 274.17631699 203.62890625 265.1484375 C203.42136719 264.10945313 203.21382813 263.07046875 203 262 C202.01 262 201.02 262 200 262 C200.0825 261.34 200.165 260.68 200.25 260 C199.9473947 256.36873639 198.64639274 254.09198187 196.94921875 250.91796875 C195.82295138 248.64225978 195.40499413 246.49746383 195 244 C194.36562656 242.3207762 193.70710678 240.64991582 193 239 C192.34 239 191.68 239 191 239 C190.67 241.31 190.34 243.62 190 246 C189.05125 246.061875 188.1025 246.12375 187.125 246.1875 C185.578125 246.5896875 185.578125 246.5896875 184 247 C182.0794269 250.70541666 181.36936577 254.61670264 180.5625 258.6875 C179.68465384 262.96087291 178.72280647 267.10138593 177.375 271.25 C176.37273046 274.42642346 175.79967766 277.30451278 175.5625 280.625 C175.2043728 285.39494948 174.16860853 289.8759946 173 294.5 C172.82154541 295.20721191 172.64309082 295.91442383 172.45922852 296.64306641 C171.14728883 301.70542233 171.14728883 301.70542233 170 304 C169.97335866 306.2082709 169.95377221 308.41662835 169.9375 310.625 C169.6111634 319.34360834 166.11819366 325.83250801 161.92333984 333.31542969 C160.81991868 335.32854603 159.88896903 337.38417325 159 339.5 C157.14800921 343.78272871 155.08156737 347.95046981 153 352.125 C152.50113281 353.12950195 152.50113281 353.12950195 151.9921875 354.15429688 C147.61842852 362.87598556 143.12650475 371.20496059 136 378 C135.49726563 378.52335937 134.99453125 379.04671875 134.4765625 379.5859375 C128.338692 385.95433835 121.62066058 391.50195156 114 396 C112.88581567 396.79870742 111.78062142 397.61019967 110.6875 398.4375 C106.99269082 401.1086391 103.1060749 403.04585646 99 405 C97.70781892 405.66566904 96.41615396 406.33234091 95.125 407 C85.54650544 411.78924728 75.6554042 414.93262575 65.21875 417.21875 C62.02800465 417.93146508 62.02800465 417.93146508 59.1484375 419.03125 C55.15504844 420.2599851 51.2732895 420.62603066 47.125 421 C45.58541397 421.14019839 44.04632747 421.28599938 42.5078125 421.4375 C41.83379395 421.49808594 41.15977539 421.55867188 40.46533203 421.62109375 C37.76638374 421.98785628 37.76638374 421.98785628 34.28417969 423.01635742 C29.80798454 424.16219217 25.54829045 424.30521341 20.9453125 424.30078125 C20.09476288 424.30638062 19.24421326 424.31197998 18.3678894 424.31774902 C15.6200776 424.32962011 12.87281097 424.32339975 10.125 424.3125 C9.18382324 424.31067719 8.24264648 424.30885437 7.27294922 424.30697632 C-8.00698216 424.25710667 -22.90500168 423.54623104 -38 421 C-39.71751465 420.71068604 -39.71751465 420.71068604 -41.46972656 420.41552734 C-62.70437014 416.74395553 -62.70437014 416.74395553 -70.171875 413.73193359 C-73.20638937 412.51699315 -76.32796178 411.56610757 -79.4375 410.5625 C-84.20391162 408.99102075 -88.88463586 407.37089823 -93.421875 405.21484375 C-95.62476452 404.17681551 -97.83879923 403.20921031 -100.078125 402.25390625 C-110.04541399 397.91592924 -116.47822367 394.24831284 -121.9375 384.5625 C-124.11174196 377.87871916 -123.55791867 369.91964059 -123 363 C-122.34 362.01 -121.68 361.02 -121 360 C-120.855625 359.154375 -120.71125 358.30875 -120.5625 357.4375 C-120 355 -120 355 -117 353 C-116.26791162 351.33616277 -115.54167605 349.66924087 -114.859375 347.984375 C-110.71999201 338.42616337 -103.09411229 330.0757836 -94 325 C-85.76326341 322.45906056 -76.19762781 323.97866712 -68 326 C-67.01 326.66 -66.02 327.32 -65 328 C-62.52218632 328.6833368 -60.0652989 329.3016729 -57.5625 329.875 C-51.56790111 331.29555631 -45.80893256 332.98029898 -40.0390625 335.16796875 C-30.29486358 337.83572501 -19.63579348 337.28350581 -9.60742188 337.35009766 C-7.79641826 337.36660251 -5.9854783 337.3938199 -4.17480469 337.43212891 C11.01052028 337.749987 26.6286511 336.64279075 38.875 326.4375 C40.22861673 324.87356717 40.22861673 324.87356717 41 322 C39.35 322 37.7 322 36 322 C36 321.01 36 320.02 36 319 C29.4 318.67 22.8 318.34 16 318 C17.0106678 314.96799661 17.63493157 314.00121175 20 312 C20.99 311.67 21.98 311.34 23 311 C23.76956136 308.65466049 23.76956136 308.65466049 24 306 C22.9773275 304.20880688 22.9773275 304.20880688 21 303 C17.97775567 302.59597775 17.97775567 302.59597775 14.5625 302.75 C13.30824219 302.77578125 12.05398437 302.8015625 10.76171875 302.828125 C6.47052146 303.02419217 2.21046189 303.377627 -2.06640625 303.76953125 C-9.90423884 304.38528641 -17.22773472 304.16611193 -24.92578125 302.5703125 C-29.42719897 301.73523374 -33.96568706 301.25460485 -38.51855469 300.78564453 C-42.11103442 300.38027089 -44.85337059 299.7626633 -48 298 C-50.05436268 297.44183354 -52.1129114 297.00255457 -54.1953125 296.5625 C-56 296 -56 296 -58 294 C-59.67485413 293.53754028 -61.35027772 293.07698461 -63.02929688 292.62988281 C-66.51482313 291.5158271 -69.59190824 289.69774478 -72.75 287.875 C-73.45318359 287.47104004 -74.15636719 287.06708008 -74.88085938 286.65087891 C-94.33325136 275.30958266 -114.17725314 257.98895084 -125 238 C-125.73643938 236.72214129 -126.47629879 235.44625016 -127.21875 234.171875 C-130.98486563 227.66900255 -134.59597877 221.28293339 -137.171875 214.19921875 C-138.00031922 211.99915226 -139.0071389 209.97390845 -140.0625 207.875 C-142.73802449 201.95736936 -143.60676781 195.54961741 -144.61962891 189.1784668 C-144.87588141 187.71085377 -145.17620416 186.250342 -145.51708984 184.80004883 C-147.73015365 174.81748662 -147.39744779 164.60852947 -147.375 154.4375 C-147.3737915 153.43278656 -147.37258301 152.42807312 -147.37133789 151.39291382 C-147.24680875 113.273708 -139.90812623 74.98965462 -113.75390625 45.734375 C-111.57687518 43.58158704 -109.22188499 41.95868025 -106.6796875 40.26953125 C-104.24905662 38.43242652 -102.5057941 36.16537434 -100.58203125 33.8203125 C-93.65432366 25.84917241 -84.36798513 19.35038589 -74.84375 14.890625 C-72.73181625 13.90684535 -72.73181625 13.90684535 -69.8125 12.0625 C-58.88863981 5.7276587 -45.78951494 1.86727093 -33.25 0.8125 C-32.35385986 0.73281982 -31.45771973 0.65313965 -30.53442383 0.57104492 C-20.3576538 -0.25161488 -10.20066388 -0.26958614 0 0 Z M-42 7 C-42.70769531 7.16628906 -43.41539062 7.33257812 -44.14453125 7.50390625 C-75.45151058 15.11911744 -104.19668674 36.57008548 -121 64 C-121.67289063 65.08539063 -122.34578125 66.17078125 -123.0390625 67.2890625 C-136.74512386 90.30889529 -145.0575662 116.06259416 -145.203125 143.00390625 C-145.20882507 143.84485336 -145.21452515 144.68580048 -145.22039795 145.55223083 C-145.22979137 147.32460292 -145.23635923 149.09699202 -145.24023438 150.86938477 C-145.24988609 153.53108629 -145.28094146 156.1919964 -145.3125 158.85351562 C-145.37713159 169.32554258 -144.52703023 178.82427895 -142 189 C-141.7100415 190.25683594 -141.42008301 191.51367188 -141.12133789 192.80859375 C-132.5108669 229.44402965 -109.42995573 261.32010702 -77.83447266 281.37451172 C-71.95765232 285.0070572 -66.01707709 288.01034963 -59.625 290.625 C-58.68180908 291.01107422 -57.73861816 291.39714844 -56.7668457 291.79492188 C-31.71526311 301.64086876 -5.54903181 302.00274206 20.25 295.125 C21.17304932 294.88056152 22.09609863 294.63612305 23.04711914 294.38427734 C43.29119954 288.78829356 62.6883277 275.956291 74 258 C72.53275931 306.78277088 72.53275931 306.78277088 56 325 C55.35804688 325.7115625 54.71609375 326.423125 54.0546875 327.15625 C38.61615694 342.41867565 15.81333769 346.24438822 -4.953125 346.25097656 C-13.90698813 346.15794209 -22.30111644 345.0536291 -31 343 C-32.88912109 342.56494141 -32.88912109 342.56494141 -34.81640625 342.12109375 C-45.41413778 339.47994898 -55.54529753 335.66108831 -65.62890625 331.50390625 C-74.46055635 328.02058504 -83.35477644 325.79141179 -92.66796875 328.88671875 C-101.94104603 333.56208937 -106.52961193 342.19694702 -111.25 351.0625 C-111.77851562 352.02994141 -112.30703125 352.99738281 -112.8515625 353.99414062 C-118.19119514 363.89414479 -121.21477537 373.11286338 -118.3828125 384.4765625 C-114.01424012 394.48948504 -102.12504429 399.14563775 -92.59765625 402.96240234 C-36.15575156 424.82001216 31.26108072 430.9485408 88 407 C99.87823397 401.65625635 111.06568266 395.47593646 121 387 C121.99 386.17113281 122.98 385.34226562 124 384.48828125 C139.52727129 371.11661297 150.28832905 353.87187082 158 335 C158.40734375 334.05253906 158.8146875 333.10507812 159.234375 332.12890625 C166.10255699 314.81006463 169.14436508 294.92704995 169.15390015 276.34854126 C169.1582824 275.29928856 169.16266465 274.25003587 169.1671797 273.16898763 C169.18049665 269.66555365 169.1867304 266.16214478 169.19287109 262.65869141 C169.20077734 260.14174793 169.20904662 257.62480557 169.21765137 255.10786438 C169.24154327 247.56789852 169.25678356 240.02793396 169.26971143 232.48794228 C169.27342866 230.35663201 169.2774014 228.22532237 169.2814641 226.09401274 C169.30669329 212.8410663 169.32873233 199.5881187 169.34119225 186.33515358 C169.34412158 183.27128724 169.34708332 180.20742094 169.35009766 177.14355469 C169.35121673 176.00139337 169.35121673 176.00139337 169.35235842 174.83615808 C169.36501799 162.49551969 169.39825618 150.15502515 169.43989949 137.81445403 C169.48235548 125.12863233 169.505891 112.44288429 169.51111281 99.75699174 C169.5145215 92.6406062 169.5262135 85.52444605 169.55921555 78.40813065 C169.59020487 71.71526155 169.59561259 65.02285354 169.58383179 58.32990074 C169.58361098 55.87654214 169.59192199 53.42316536 169.60948563 50.96986961 C169.63219602 47.61458368 169.62387215 44.2607201 169.60800171 40.90542603 C169.6218838 39.94003769 169.63576588 38.97464935 169.65006864 37.98000681 C169.561833 30.3832063 167.47467896 23.75421278 162.22698438 18.08434737 C153.52575954 10.1287689 144.36681936 9.84531934 133.16796875 9.796875 C132.13617996 9.79117493 131.10439117 9.78547485 130.04133606 9.77960205 C127.86537693 9.77018841 125.68940379 9.76363259 123.51342773 9.75976562 C120.20856542 9.75006185 116.90432602 9.71900396 113.59960938 9.6875 C111.47656616 9.68096851 109.35351853 9.67571862 107.23046875 9.671875 C106.25409958 9.6595282 105.27773041 9.6471814 104.27177429 9.63446045 C94.25069033 9.66653463 85.28384464 11.74979899 78 19 C73.79304243 24.74341164 72.80800113 30.23301148 72.4375 37.1875 C72.37272461 38.31188477 72.37272461 38.31188477 72.30664062 39.45898438 C72.20077315 41.30578375 72.0999024 43.15286834 72 45 C71.48050781 44.33613281 70.96101562 43.67226563 70.42578125 42.98828125 C66.81481193 38.41616668 63.27759213 33.97204984 59 30 C58.30519531 29.32324219 57.61039063 28.64648438 56.89453125 27.94921875 C36.55365404 8.70784842 9.77378641 3.1824329 -17.38671875 3.71484375 C-25.79456408 4.00113454 -33.82536842 5.0374703 -42 7 Z M185 229 C185.33 233.29 185.66 237.58 186 242 C186.33 242 186.66 242 187 242 C187 237.71 187 233.42 187 229 C186.34 229 185.68 229 185 229 Z " transform="translate(197 425)" class="colorF8FAFC svgShape"></path><path fill="#fcfcfc" d="M0 0 C1.04220703 -0.00773437 2.08441406 -0.01546875 3.15820312 -0.0234375 C19.5725247 0.01777862 32.55478159 5.64926516 44.375 17.0625 C60.61865929 33.90963889 64.77951005 54.53468786 64.453125 77.24609375 C63.79842708 97.5000084 55.60638206 116.35823517 40.88671875 130.453125 C34.88243613 135.6242775 28.64228745 138.67400015 21.1875 141.25 C20.32640625 141.5696875 19.4653125 141.889375 18.578125 142.21875 C12.87677921 144.08464499 7.45217476 144.52311583 1.5 144.5625 C0.44872925 144.57083862 0.44872925 144.57083862 -0.6237793 144.5793457 C-14.42746288 144.38936441 -29.00029628 137.9363537 -39.31640625 128.84765625 C-47.24011732 120.38604312 -53.26613554 110.40141961 -56.234375 99.21875 C-56.63709387 97.26566301 -56.63709387 97.26566301 -57.8125 96.25 C-63.32058837 74.29805657 -61.08884343 48.60867014 -50.0234375 28.78515625 C-46.94030713 23.64889759 -43.13609532 19.3756285 -38.8125 15.25 C-38.27367187 14.69183594 -37.73484375 14.13367188 -37.1796875 13.55859375 C-27.11933434 3.87739963 -13.55185471 -0.09946315 0 0 Z " transform="translate(207.813 504.75)" class="colorFCFCFC svgShape"></path><path fill="#ffffff" d="M0 0 C5.09026221 0.82528512 10.21353063 0.92077577 15.36474609 1.01708984 C20.38481543 1.18277218 24.5754811 2.05925685 29.28710938 3.81323242 C31.56697728 4.67541823 31.56697728 4.67541823 35.11328125 5.41015625 C53.2708674 9.86928841 73.3359029 22.20082867 87.30078125 34.53515625 C87.30078125 35.19515625 87.30078125 35.85515625 87.30078125 36.53515625 C88.00847656 36.77878906 88.71617187 37.02242188 89.4453125 37.2734375 C100.49235807 42.15469019 107.1845367 51.85065133 113.234375 61.81445312 C114.25853496 63.46698962 115.35662079 65.07300949 116.45703125 66.67578125 C118.14777057 69.29786003 119.21137108 71.63006247 120.30078125 74.53515625 C121.11781821 76.2416768 121.93547984 77.94792285 122.76293945 79.64941406 C125.97242135 86.27953927 128.51752723 92.7987932 130.4765625 99.92578125 C131.22879458 102.72869741 131.22879458 102.72869741 133.30078125 105.53515625 C139.55606549 125.50770584 138.57730463 146.88699276 138.30078125 167.53515625 C138.29353027 168.31938965 138.2862793 169.10362305 138.27880859 169.91162109 C138.15467074 178.43926077 136.28611441 185.84973209 133.5546875 193.8515625 C132.5516926 196.79805532 131.67565693 199.72124431 130.86328125 202.72265625 C129.71988225 206.61411082 128.1218221 210.13178763 126.36328125 213.78515625 C124.14728234 218.40227438 122.57772723 222.82697271 121.30078125 227.78515625 C119.639096 233.99061985 117.28188632 238.53033845 113.30078125 243.53515625 C112.87667969 244.0971875 112.45257812 244.65921875 112.015625 245.23828125 C109.99508533 247.81105845 107.88281949 249.88197558 105.36328125 251.97265625 C103.03423943 253.92144635 101.46156881 255.4747968 99.61328125 257.78515625 C84.98537027 275.35392662 61.60935121 286.50840163 40.30078125 293.53515625 C39.34171875 293.88191406 38.38265625 294.22867187 37.39453125 294.5859375 C22.89194328 299.74551207 8.79277654 302.18518569 -6.57836914 301.94677734 C-9.02857804 301.90990252 -11.47727423 301.90576278 -13.92773438 301.90625 C-28.46728298 301.84212669 -41.74154618 299.56084287 -55.69921875 295.53515625 C-56.86195313 295.20257812 -58.0246875 294.87 -59.22265625 294.52734375 C-73.18729692 290.39328929 -85.33808855 284.01493413 -96.8203125 274.95703125 C-98.31765781 273.82390507 -99.8786553 272.77503779 -101.45703125 271.7578125 C-105.25867965 269.15162221 -108.67348984 266.25606427 -112.13671875 263.22265625 C-113.0812793 262.40764648 -113.0812793 262.40764648 -114.04492188 261.57617188 C-120.11309853 256.29380227 -125.8768968 250.83793449 -130.82421875 244.47265625 C-132.98322978 241.71345683 -135.14731631 238.98848912 -137.44921875 236.34765625 C-139.1911002 234.17030443 -140.48964938 232.25590173 -141.82421875 229.84765625 C-143.44656614 226.63759606 -143.44656614 226.63759606 -145.38671875 224.84765625 C-147.03887079 223.19550421 -147.3082059 221.80303076 -147.69921875 219.53515625 C-148.68921875 219.53515625 -149.67921875 219.53515625 -150.69921875 219.53515625 C-151.69921875 213.78515625 -151.69921875 213.78515625 -151.69921875 211.53515625 C-152.68921875 211.53515625 -153.67921875 211.53515625 -154.69921875 211.53515625 C-157.25201227 207.34340969 -156.73800461 203.75306475 -156.4765625 198.99609375 C-156.55003906 198.18398438 -156.62351562 197.371875 -156.69921875 196.53515625 C-157.68921875 195.87515625 -158.67921875 195.21515625 -159.69921875 194.53515625 C-159.92007515 191.58451477 -159.97982864 188.85147394 -159.88671875 185.91015625 C-159.87318359 185.10835937 -159.85964844 184.3065625 -159.84570312 183.48046875 C-159.81030926 181.49841247 -159.75650109 179.51670074 -159.69921875 177.53515625 C-160.68921875 177.86515625 -161.67921875 178.19515625 -162.69921875 178.53515625 C-165.14498702 174.86650384 -164.93529129 172.86315282 -164.69921875 168.53515625 C-164.20421875 167.54515625 -164.20421875 167.54515625 -163.69921875 166.53515625 C-163.32747003 162.48325935 -163.22996049 158.41297368 -163.07421875 154.34765625 C-163.02265625 153.22294922 -162.97109375 152.09824219 -162.91796875 150.93945312 C-162.69228547 145.29405228 -162.73398359 140.09639576 -163.69921875 134.53515625 C-163.44508178 130.85017013 -163.1780992 128.31372626 -161.23510742 125.15478516 C-159.64659987 122.4454089 -159.00327473 120.30773434 -158.375 117.24609375 C-158.15521484 116.23111816 -157.93542969 115.21614258 -157.70898438 114.17041016 C-157.47888672 113.09452637 -157.24878906 112.01864258 -157.01171875 110.91015625 C-154.41884212 99.4825996 -150.80332476 89.0692191 -145.69921875 78.53515625 C-145.19519531 77.49359375 -144.69117188 76.45203125 -144.171875 75.37890625 C-140.34436709 67.99955581 -135.53295672 61.27602356 -130.69921875 54.53515625 C-130.19648437 53.80425781 -129.69375 53.07335937 -129.17578125 52.3203125 C-122.35335888 42.67821846 -114.26888574 35.39413904 -104.09375 29.50390625 C-100.50202022 27.42078564 -97.04446224 25.18648033 -93.57421875 22.91015625 C-85.30796726 17.55806244 -77.04584638 12.81929764 -67.79296875 9.39453125 C-65.45715569 8.51621804 -65.45715569 8.51621804 -62.69921875 6.53515625 C-60.34339325 5.78967871 -58.03024302 5.13071988 -55.63671875 4.53515625 C-54.94296143 4.36072998 -54.2492041 4.18630371 -53.53442383 4.0065918 C-46.54147861 2.34256801 -39.51392239 1.58759271 -32.3671875 0.9296875 C-28.7584971 0.67322562 -28.7584971 0.67322562 -25.69921875 -0.46484375 C-16.91169257 -1.41148694 -8.69612911 -1.816204 0 0 Z M-104.69921875 36.53515625 C-106.04113281 37.69144531 -106.04113281 37.69144531 -107.41015625 38.87109375 C-109.88496456 41.04862779 -112.29880825 43.27619108 -114.69921875 45.53515625 C-115.67568359 46.41494141 -115.67568359 46.41494141 -116.671875 47.3125 C-136.69287418 66.10017274 -149.37221273 92.20339909 -155.69921875 118.53515625 C-155.86728027 119.22786621 -156.0353418 119.92057617 -156.20849609 120.63427734 C-163.28166514 151.22115239 -159.41172114 187.66337753 -144.69921875 215.53515625 C-144.07007568 216.73253418 -144.07007568 216.73253418 -143.42822266 217.95410156 C-137.75350729 228.56434507 -131.37453294 238.27044072 -123.69921875 247.53515625 C-122.86970703 248.57542969 -122.86970703 248.57542969 -122.0234375 249.63671875 C-118.34878987 254.13345736 -114.16625846 257.84045518 -109.69921875 261.53515625 C-109.17682617 261.97520996 -108.65443359 262.41526367 -108.11621094 262.86865234 C-80.86102598 285.76515258 -48.32729583 299.48944332 -12.44921875 299.09765625 C-11.59893097 299.09306396 -10.74864319 299.08847168 -9.87258911 299.08374023 C3.72949016 298.98302305 16.32107355 297.85582638 29.30078125 293.53515625 C30.22084961 293.24044434 31.14091797 292.94573242 32.08886719 292.64208984 C55.07303012 285.17864078 76.0794842 273.7564533 93.30078125 256.53515625 C94.02007813 255.81585937 94.739375 255.0965625 95.48046875 254.35546875 C110.98962626 237.96322754 121.54136002 218.54095422 129.30078125 197.53515625 C129.72617187 196.38917969 130.1515625 195.24320313 130.58984375 194.0625 C135.58741318 179.27961334 136.57901447 164.08392527 136.61328125 148.59765625 C136.61875977 147.30682129 136.62423828 146.01598633 136.62988281 144.68603516 C136.5483411 133.73554616 135.5829694 123.19557375 131.86328125 112.84765625 C130.42593168 108.7921478 129.06537133 104.76613475 127.98828125 100.59765625 C122.42233677 81.88989841 110.07688955 64.9401693 97.30078125 50.53515625 C96.06714844 49.00761719 96.06714844 49.00761719 94.80859375 47.44921875 C90.83277304 42.82933986 86.0778242 39.29000742 81.30078125 35.53515625 C80.67558594 35.02082031 80.05039062 34.50648438 79.40625 33.9765625 C68.05733357 24.933295 54.58239052 18.2294554 41.30078125 12.53515625 C40.40617188 12.14714844 39.5115625 11.75914062 38.58984375 11.359375 C-7.62874149 -7.05695358 -67.59161599 3.80603169 -104.69921875 36.53515625 Z " transform="translate(768.7 424.465)" class="colorF5F8FB svgShape"></path><path fill="#fefefe" d="M0 0 C2.62624112 0.04230319 5.24993554 0.04100564 7.87646484 0.03417969 C16.75121506 0.06785341 24.79806799 0.48719171 33.23193359 3.54199219 C34.15288818 3.84218262 35.07384277 4.14237305 36.02270508 4.45166016 C41.94389048 6.42481537 46.05997437 9.05886565 49.23193359 14.54199219 C50.10693359 17.97949219 50.10693359 17.97949219 50.23193359 20.54199219 C49.69568359 19.82011719 49.15943359 19.09824219 48.60693359 18.35449219 C42.59217516 11.23175194 35.75660798 7.3903038 26.39672852 6.17337036 C23.45922065 6.03517161 20.54745346 6.01294403 17.60693359 6.04589844 C16.53878418 6.04444321 15.47063477 6.04298798 14.37011719 6.04148865 C12.12806449 6.0431371 9.88599922 6.05457878 7.64404297 6.07543945 C4.24055188 6.10441881 0.83862057 6.09601912 -2.56494141 6.08300781 C-4.7576572 6.08924622 -6.95036814 6.09763796 -9.14306641 6.10839844 C-10.14547363 6.1054628 -11.14788086 6.10252716 -12.18066406 6.09950256 C-22.14522727 6.23051943 -30.84612398 7.63919138 -38.17822266 14.77636719 C-43.13595114 20.28224747 -43.89096129 25.36724617 -43.89949417 32.59537792 C-43.90333532 33.81835463 -43.90717646 35.04133133 -43.911134 36.30136794 C-43.91035382 37.65535436 -43.90947504 39.00934073 -43.9085083 40.36332703 C-43.9110928 41.80419631 -43.9141062 43.24506488 -43.9175117 44.68593246 C-43.92557497 48.64588401 -43.9273709 52.60581744 -43.92810917 56.56577623 C-43.9299609 60.83654476 -43.93750884 65.10730391 -43.94424438 69.37806702 C-43.95782347 78.71698622 -43.96385177 88.05590113 -43.96825504 97.39482856 C-43.97101819 103.22678515 -43.97525568 109.05874009 -43.97975922 114.89069557 C-43.99195135 131.03963841 -44.00225076 147.18857993 -44.00563431 163.33752728 C-44.00585387 164.37099999 -44.00607344 165.4044727 -44.00629966 166.46926277 C-44.00651794 167.50519947 -44.00673622 168.54113617 -44.00696111 169.6084649 C-44.00740457 171.70764522 -44.00785114 173.80682554 -44.00830078 175.90600586 C-44.00852221 176.94727042 -44.00874364 177.98853498 -44.00897178 179.06135301 C-44.01291943 195.93193349 -44.03037271 212.80247077 -44.0536603 229.67303457 C-44.0773797 246.99633297 -44.08983643 264.3196097 -44.09100223 281.64292461 C-44.09191866 291.36828865 -44.09766296 301.0935964 -44.11582184 310.81894493 C-44.13123075 319.10064109 -44.13633861 327.38226356 -44.12808374 335.66397133 C-44.12418004 339.88798128 -44.12509313 344.11184286 -44.13914108 348.3358345 C-44.15189672 352.20671283 -44.150668 356.07733157 -44.13855037 359.94820962 C-44.13659625 361.34459742 -44.13965863 362.74100371 -44.14839473 364.13736554 C-44.20636958 374.03477971 -43.74692419 383.96895338 -37.31138611 392.02058411 C-30.27084678 398.96116383 -22.42514787 399.27887068 -12.98291016 399.24902344 C-11.68607803 399.26414474 -10.38924591 399.27926605 -9.05311584 399.29484558 C-5.63527575 399.33442523 -2.21796891 399.34486822 1.20007324 399.34887695 C4.69978742 399.35826011 8.19919487 399.39570537 11.69873047 399.43066406 C18.54308781 399.49496308 25.38729247 399.52842971 32.23193359 399.54199219 C24.5391994 404.67048165 11.8922916 402.72513717 2.98193359 402.72949219 C1.67869141 402.74173828 0.37544922 402.75398438 -0.96728516 402.76660156 C-29.08102922 402.80839603 -29.08102922 402.80839603 -39.76806641 393.54199219 C-44.0371857 388.26287645 -45.67968633 383.1931408 -46.51806641 376.54199219 C-46.63021484 375.8059375 -46.74236328 375.06988281 -46.85791016 374.31152344 C-49.30227783 357.14343519 -48.92442975 339.75158412 -48.92810917 322.45753121 C-48.92998156 318.66060114 -48.93753896 314.86368124 -48.94424438 311.0667572 C-48.95773502 302.79210232 -48.96383659 294.51745235 -48.96825504 286.24278831 C-48.97103078 281.06652603 -48.97527022 275.89026556 -48.97975922 270.71400452 C-48.99193507 256.35150012 -49.00224072 241.98899717 -49.00563431 227.62648773 C-49.00585387 226.71021234 -49.00607344 225.79393694 -49.00629966 224.84989563 C-49.00651794 223.93159386 -49.00673622 223.01329209 -49.00696111 222.06716299 C-49.00740455 220.20672194 -49.00785112 218.34628089 -49.00830078 216.48583984 C-49.00852221 215.56302241 -49.00874364 214.64020498 -49.00897178 213.68942338 C-49.01292211 198.72798514 -49.03039084 183.76659553 -49.0536603 168.80517608 C-49.07741741 153.40478136 -49.08983798 138.00441103 -49.09100223 122.60399771 C-49.09191603 113.97295567 -49.09759471 105.34197719 -49.11582184 96.71095276 C-49.13128119 89.36549795 -49.1363087 82.02012642 -49.12808374 74.67465842 C-49.12419907 70.93386003 -49.12499916 67.19322907 -49.13914108 63.45245171 C-49.28297441 22.91999563 -49.28297441 22.91999563 -38.76806641 9.54199219 C-38.10806641 9.54199219 -37.44806641 9.54199219 -36.76806641 9.54199219 C-36.58969238 8.93806641 -36.41131836 8.33414062 -36.22753906 7.71191406 C-34.04261867 4.46340746 -31.02196401 3.84410833 -27.41650391 2.82324219 C-26.66533295 2.6080896 -25.91416199 2.39293701 -25.14022827 2.17126465 C-16.79850695 -0.00603592 -8.57531389 -0.14537168 0 0 Z " transform="translate(979.768 318.458)" class="colorFEFEFE svgShape"></path><path fill="#ffffff" d="M0 0 C0.33 0 0.66 0 1 0 C1.76799591 14.32208584 -13.90657286 30.94524011 -22.9296875 41.375 C-25.0808059 44.10245578 -26.8683032 46.9141366 -28.67919922 49.87255859 C-30.88563948 53.42651801 -33.25566189 56.86589415 -35.625 60.3125 C-36.10195312 61.01439453 -36.57890625 61.71628906 -37.0703125 62.43945312 C-37.534375 63.11556641 -37.9984375 63.79167969 -38.4765625 64.48828125 C-38.88986816 65.09196533 -39.30317383 65.69564941 -39.72900391 66.31762695 C-41.03176962 68.04205234 -42.47369423 69.47369423 -44 71 C-44.80942605 72.08805382 -45.58897766 73.1988634 -46.33984375 74.328125 C-46.76330078 74.96363281 -47.18675781 75.59914063 -47.62304688 76.25390625 C-48.05681641 76.91261719 -48.49058594 77.57132813 -48.9375 78.25 C-49.36740234 78.89324219 -49.79730469 79.53648437 -50.24023438 80.19921875 C-53.00955949 84.37631916 -55.53945711 88.63452069 -58 93 C-61.57894737 98.57894737 -61.57894737 98.57894737 -64 101 C-65.30810222 106.7355251 -64.90336867 110.3871287 -62.8125 115.84765625 C-62 118 -62 118 -61.1875 121.5 C-59.86035604 125.4115822 -57.98707854 128.20032911 -55.62890625 131.55859375 C-53.95265759 134.07095685 -52.57306413 136.63014046 -51.1875 139.3125 C-44.9783812 150.86210441 -33.00844507 169.04487698 -20.265625 174.08056641 C-16.81395203 175.05238163 -13.78234889 175.34474929 -10.203125 175.4921875 C-8.26953125 175.59080078 -8.26953125 175.59080078 -6.296875 175.69140625 C-4.27883375 175.78566616 -2.26088426 175.87457384 -0.2421875 175.95361328 C8.27904502 176.30239902 15.35716616 177.11535069 23 181 C23.66668701 181.29310059 24.33337402 181.58620117 25.02026367 181.88818359 C30.14201543 184.35954198 31.88499303 187.53364292 34.0625 192.5 C34.73400071 193.93897681 35.40587913 195.37777741 36.078125 196.81640625 C36.40103516 197.52555176 36.72394531 198.23469727 37.05664062 198.96533203 C38.3872887 201.83531678 39.85333767 204.63114077 41.3125 207.4375 C45.68719724 216.28225572 47.50149095 223.06304976 47 233 C46.67 233 46.34 233 46 233 C45.8450708 232.27586914 45.6901416 231.55173828 45.53051758 230.80566406 C43.73492775 222.9906747 41.08480679 215.99882376 37.6875 208.75 C37.22666016 207.72648438 36.76582031 206.70296875 36.29101562 205.6484375 C32.74409467 197.97248617 28.58257342 189.38931705 21 185 C18.17860489 184.68490567 15.79659513 184.57140518 13 184.6875 C11.95199219 184.70200195 11.95199219 184.70200195 10.8828125 184.71679688 C8.02758629 184.7787499 5.2872491 184.94246097 2.484375 185.50390625 C-8.06792412 187.61104774 -19.00051738 186.57661464 -28.25 181.0625 C-29.1575 180.381875 -30.065 179.70125 -31 179 C-31.75152344 178.484375 -32.50304688 177.96875 -33.27734375 177.4375 C-37.04601299 174.06354074 -39.55800132 170.1562612 -42.3125 165.9375 C-42.91352539 165.02718018 -43.51455078 164.11686035 -44.13378906 163.17895508 C-49.78687862 154.51712692 -55.07302156 145.64218492 -60.28027344 136.70800781 C-63.18948926 131.72262416 -66.10328632 126.76487064 -69.26953125 121.9375 C-69.7480957 121.2050708 -70.22666016 120.4726416 -70.71972656 119.71801758 C-71.58056626 118.41627143 -72.45511762 117.12342941 -73.34667969 115.8425293 C-75.11987242 113.15621152 -75.98953441 111.30269697 -76.1015625 108.0625 C-74.57548098 103.81977691 -72.13492065 100.79088986 -69.3125 97.3125 C-68.11548853 95.79430676 -66.92023606 94.27472531 -65.7265625 92.75390625 C-65.10813477 91.97031738 -64.48970703 91.18672852 -63.85253906 90.37939453 C-60.8814718 86.56336639 -58.03719359 82.65700905 -55.1875 78.75 C-50.18405104 71.91639748 -45.08970328 65.1595585 -39.9375 58.4375 C-34.39348495 51.19938807 -28.97056292 43.89066305 -23.66748047 36.47436523 C-20.55035722 32.12120858 -17.37239215 27.82422874 -14.13110352 23.56274414 C-5.27797959 12.69816636 -5.27797959 12.69816636 0 0 Z " transform="translate(1198 458)" class="colorF6F9FC svgShape"></path><path fill="#ffffff" d="M0 0 C2.21463013 -0.36076355 2.21463013 -0.36076355 5.00048828 -0.34057617 C6.56188034 -0.34023628 6.56188034 -0.34023628 8.15481567 -0.33988953 C9.28192963 -0.32440567 10.40904358 -0.30892181 11.5703125 -0.29296875 C13.29735916 -0.28660149 13.29735916 -0.28660149 15.05929565 -0.28010559 C18.74809855 -0.26327052 22.43636136 -0.22560874 26.125 -0.1875 C28.62108588 -0.17245944 31.11718029 -0.15876995 33.61328125 -0.14648438 C39.74237275 -0.1133512 45.8711478 -0.06310389 52 0 C52.82022612 2.35171843 53.6312654 4.7059851 54.4375 7.0625 C54.66759766 7.71927734 54.89769531 8.37605469 55.13476562 9.05273438 C56.59432818 13.34680973 57.59702844 17.45379976 58 22 C57.67 22.66 57.34 23.32 57 24 C54.12109375 24.81640625 54.12109375 24.81640625 50.4375 25.5625 C49.23996094 25.81128906 48.04242187 26.06007813 46.80859375 26.31640625 C28.83283499 29.54282449 10.24771709 29.32416293 -7 23 C-6.38477641 15.00209339 -4.48931581 6.73397372 0 0 Z " transform="translate(732 652)" class="colorF8FAFB svgShape"></path><path fill="#fbfbfb" d="M0 0 C4.62821442 3.38649836 8.78739308 8.04012255 10.921875 13.40625 C12.07198938 20.94834621 11.16734845 26.90375923 6.80859375 33.203125 C2.85769324 37.81659889 -0.94670684 40.8781584 -7.04296875 41.90625 C-13.48264904 42.166111 -18.89029147 41.37818504 -24.078125 37.40625 C-29.6440662 32.05151639 -32.3710968 27.55994303 -32.578125 19.71875 C-32.47619049 12.72167396 -30.94616026 8.42953012 -26.078125 3.40625 C-23.015625 0.96875 -23.015625 0.96875 -20.078125 -0.59375 C-19.315 -1.00625 -18.551875 -1.41875 -17.765625 -1.84375 C-11.44486905 -3.60768189 -5.75445689 -3.22249586 0 0 Z " transform="translate(713.078 540.594)" class="color0561BF svgShape"></path><path fill="#ffffff" d="M0 0 C6.94265362 3.11329759 11.56637271 7.1370022 14.80078125 14.046875 C16.519952 22.47081167 15.1450231 27.94403398 10.42578125 35.109375 C8.5280648 37.19586953 6.79011621 38.48389471 4.42578125 40.109375 C3.68328125 40.7075 2.94078125 41.305625 2.17578125 41.921875 C-2.55243972 43.96360678 -7.63780083 43.89015664 -12.6015625 42.5703125 C-19.11822591 39.97505486 -23.03099847 36.05692332 -26.57421875 30.109375 C-28.57620735 24.10340919 -28.94481856 16.56025278 -26.5859375 10.62109375 C-20.45731352 1.73027305 -10.49182756 -3.62994945 0 0 Z " transform="translate(820.574 552.89)" class="color0461BE svgShape"></path><path fill="#ffffff" d="M0 0 C0.99 1.485 0.99 1.485 2 3 C0.08356128 6.54541163 -1.44173145 9.03358843 -5 11 C-13.22576819 13.2898284 -21.52243649 13.61677243 -30 14.0625 C-32.14067354 14.17811464 -34.28114743 14.29589426 -36.42138672 14.41929626 C-38.34182765 14.52965825 -40.26270536 14.63234035 -42.18359375 14.73461914 C-44.90127592 14.68872462 -44.90127592 14.68872462 -46 16 C-48.54969386 16.20235666 -51.09692964 16.31915246 -53.65234375 16.42578125 C-56.15915715 16.75020466 -56.15915715 16.75020466 -57.2265625 18.953125 C-57.60941406 19.96632813 -57.60941406 19.96632813 -58 21 C-59 22 -60 23 -61 24 C-61.4125 24.7425 -61.825 25.485 -62.25 26.25 C-63.84489766 28.75626775 -65.29447206 30.30655274 -67.4375 32.3125 C-72.19414967 36.94872815 -74.59993189 41.87248235 -76.0625 48.3125 C-77 52 -77 52 -78.49609375 53.328125 C-80.73750795 55.81987897 -80.64751687 58.14398576 -81 61.4375 C-81.70076135 67.10198758 -82.7390742 72.47970559 -84.21875 77.98828125 C-84.4765625 78.98214844 -84.734375 79.97601562 -85 81 C-85.34135986 82.2281543 -85.68271973 83.45630859 -86.03442383 84.72167969 C-87.53450098 91.55751951 -87.26759377 98.50579936 -87.23046875 105.46484375 C-87.22927453 106.9493455 -87.2288243 108.43384801 -87.2290802 109.91835022 C-87.22752513 113.0104758 -87.21930552 116.10248399 -87.20581055 119.19458008 C-87.18871754 123.16138533 -87.18499971 127.1280633 -87.18575573 131.09490108 C-87.18548435 134.1514457 -87.18001009 137.20796241 -87.17275429 140.26449776 C-87.16957096 141.72816317 -87.16760099 143.19183173 -87.16686058 144.65550041 C-87.16469939 146.6921388 -87.15516567 148.72876539 -87.14526367 150.76538086 C-87.14145187 151.9240416 -87.13764008 153.08270233 -87.13371277 154.276474 C-87.18496936 156.96574137 -87.18496936 156.96574137 -86 159 C-85.90284658 161.33168218 -85.87021783 163.66629957 -85.875 166 C-85.87113281 167.8871875 -85.87113281 167.8871875 -85.8671875 169.8125 C-86 173 -86 173 -87 175 C-87.11703659 177.02306099 -87.23276972 179.04621149 -87.33984375 181.06982422 C-87.89149504 189.44045981 -89.07376803 194.84772529 -95.125 201.0546875 C-102.82362104 206.2638088 -110.18869385 207.59399108 -119.34375 207.4609375 C-120.39348999 207.46002106 -121.44322998 207.45910461 -122.52478027 207.4581604 C-124.72994548 207.45215585 -126.93510375 207.43650568 -129.14013672 207.41162109 C-132.49087024 207.37509951 -135.84049423 207.37060263 -139.19140625 207.37109375 C-141.3463636 207.36126062 -143.50131355 207.34960277 -145.65625 207.3359375 C-146.64508179 207.33371185 -147.63391357 207.33148621 -148.65270996 207.32919312 C-154.97485011 207.24409823 -160.84913493 206.46383705 -167 205 C-167 204.67 -167 204.34 -167 204 C-165.98095078 203.99786247 -165.98095078 203.99786247 -164.9413147 203.99568176 C-157.83498372 203.97591084 -150.72950317 203.92147826 -143.62353516 203.84741211 C-140.97581088 203.82429423 -138.32799546 203.80985109 -135.68017578 203.80444336 C-131.86173097 203.79510906 -128.04470769 203.75401529 -124.2265625 203.70703125 C-122.46658432 203.71293022 -122.46658432 203.71293022 -120.67105103 203.71894836 C-112.34685798 203.57300768 -105.22362637 202.07500536 -99.05947876 196.12776184 C-93.15550678 189.49204672 -91.86303715 184.17895619 -91.81054688 175.39697266 C-91.80225357 174.64624481 -91.79396027 173.89551697 -91.78541565 173.12203979 C-91.76804879 171.49231668 -91.75287286 169.86256907 -91.73963928 168.23280716 C-91.7183872 165.61944896 -91.69136223 163.00620355 -91.66296387 160.39291382 C-91.6134089 155.74582146 -91.56890815 151.09869667 -91.52606201 146.45153809 C-91.11834522 102.2328857 -91.11834522 102.2328857 -90.55078125 83.4375 C-90.51605713 82.20375641 -90.48133301 80.97001282 -90.44555664 79.69888306 C-90.14007652 70.56103256 -89.20384969 61.88457789 -87 53 C-86.58427734 51.27716797 -86.58427734 51.27716797 -86.16015625 49.51953125 C-82.61734694 36.54950404 -75.84387986 24.51241011 -64.25 17.3125 C-63.63237793 16.92384766 -63.01475586 16.53519531 -62.37841797 16.13476562 C-49.94758367 8.51597186 -37.05488683 8.78208476 -22.83056641 8.59863281 C-20.84255051 8.57089528 -18.85483246 8.52393438 -16.8671875 8.4765625 C-15.10544189 8.4468335 -15.10544189 8.4468335 -13.30810547 8.41650391 C-9.65171459 7.95614945 -7.21289221 6.75222214 -4 5 C-3.34 5 -2.68 5 -2 5 C-1.34 3.35 -0.68 1.7 0 0 Z " transform="translate(594 514)" class="colorEEF4FA svgShape"></path><path fill="#ffffff" d="M0 0 C1.18528793 -0.0004985 2.37057587 -0.00099701 3.59178162 -0.00151062 C6.08358446 0.00081764 8.57539022 0.01047181 11.06713867 0.02709961 C14.86333412 0.05073294 18.6588275 0.04764513 22.45507812 0.04101562 C24.8867229 0.04659217 27.31836475 0.0537019 29.75 0.0625 C30.87523575 0.06158859 32.0004715 0.06067719 33.1598053 0.05973816 C43.02349937 0.14775745 51.40930399 1.08664469 59.30859375 7.36328125 C61.80859375 10.17578125 61.80859375 10.17578125 63.30859375 12.36328125 C62.97859375 13.02328125 62.64859375 13.68328125 62.30859375 14.36328125 C61.0390625 12.8984375 59.76953125 11.43359375 58.5 9.96875 C51.15813352 4.58994943 42.26962135 4.89594071 33.54296875 4.89453125 C32.23257629 4.88691772 30.92218384 4.8793042 29.57208252 4.87145996 C26.80854704 4.85808429 24.04529686 4.85641392 21.28173828 4.86230469 C17.77734759 4.86818233 14.27435121 4.83766012 10.77022934 4.79718781 C7.38193782 4.76478292 3.99391385 4.76942739 0.60546875 4.76953125 C-0.63350159 4.75313599 -1.87247192 4.73674072 -3.14898682 4.71984863 C-14.7662295 4.8105976 -25.16927854 7.76202247 -33.63476562 16.01953125 C-37.5538495 20.48572371 -40.7442745 25.36631807 -43.94140625 30.36328125 C-44.71236265 31.54655784 -45.48461577 32.7289904 -46.25805664 33.91064453 C-47.89837198 36.42080417 -49.53125373 38.93557467 -51.15869141 41.45410156 C-53.70599731 45.39251741 -56.27965468 49.31323085 -58.859375 53.23046875 C-62.38305215 58.58284302 -65.9005629 63.93916049 -69.41015625 69.30078125 C-72.50524118 74.02887665 -75.6043315 78.75428156 -78.71055603 83.47506714 C-80.43992832 86.10348033 -82.16780189 88.73287704 -83.89553833 91.36236572 C-84.7031985 92.59079255 -85.5115034 93.81879578 -86.32052612 95.04632568 C-90.55859919 101.47779431 -94.70052679 107.92403349 -98.48461914 114.63720703 C-98.88285889 115.20681152 -99.28109863 115.77641602 -99.69140625 116.36328125 C-100.35140625 116.36328125 -101.01140625 116.36328125 -101.69140625 116.36328125 C-101.69140625 82.04328125 -101.69140625 47.72328125 -101.69140625 12.36328125 C-101.36140625 12.36328125 -101.03140625 12.36328125 -100.69140625 12.36328125 C-100.68109879 13.26450714 -100.67079132 14.16573303 -100.66017151 15.0942688 C-100.56208692 23.59839372 -100.45955711 32.10245103 -100.35206699 40.60646248 C-100.29696475 44.97817674 -100.24356554 49.34989782 -100.1940918 53.72167969 C-100.14626033 57.94275393 -100.09391164 62.16375045 -100.0384655 66.38473129 C-100.01812677 67.99300062 -99.99940013 69.60129118 -99.98233223 71.20959854 C-99.95809939 73.46679585 -99.92807215 75.72384877 -99.89672852 77.98095703 C-99.88118423 79.26447052 -99.86563995 80.54798401 -99.84962463 81.87039185 C-99.75898403 88.05928531 -99.75898403 88.05928531 -97.00390625 93.30078125 C-93.77634488 94.78371485 -92.01901335 94.52070981 -88.69140625 93.36328125 C-87.541201 91.11584369 -87.541201 91.11584369 -86.69140625 88.36328125 C-85.46269785 86.94056626 -84.23259872 85.51890561 -82.984375 84.11328125 C-80.99962446 81.42697237 -79.9318704 78.43421638 -78.78125 75.31640625 C-77.43703014 72.90741008 -76.13352555 72.51192632 -73.69140625 71.36328125 C-73.31202008 69.37150384 -72.98854648 67.36897784 -72.69140625 65.36328125 C-71.79259204 63.33044912 -70.76692142 61.39532046 -69.72265625 59.43359375 C-68.72688909 57.43451574 -68.01419288 55.4815621 -67.31640625 53.36328125 C-65.93535582 49.53940507 -63.88338745 46.73880232 -61.37109375 43.5703125 C-58.17736143 39.37389678 -55.48807219 34.82970106 -52.69140625 30.36328125 C-43.58917187 16.02036647 -32.02065726 5.86015548 -15.59884644 1.01300049 C-10.42337577 -0.14355051 -5.28135284 -0.04330433 0 0 Z " transform="translate(1134.691 430.637)" class="colorF5F8FB svgShape"></path><path fill="#ffffff" d="M0 0 C2.62624112 0.04230319 5.24993554 0.04100564 7.87646484 0.03417969 C16.75121506 0.06785341 24.79806799 0.48719171 33.23193359 3.54199219 C34.15288818 3.84218262 35.07384277 4.14237305 36.02270508 4.45166016 C41.94389048 6.42481537 46.05997437 9.05886565 49.23193359 14.54199219 C50.10693359 17.97949219 50.10693359 17.97949219 50.23193359 20.54199219 C49.69568359 19.82011719 49.15943359 19.09824219 48.60693359 18.35449219 C42.59217516 11.23175194 35.75660798 7.3903038 26.39672852 6.17337036 C23.45922065 6.03517161 20.54745346 6.01294403 17.60693359 6.04589844 C16.53878418 6.04444321 15.47063477 6.04298798 14.37011719 6.04148865 C12.12806449 6.0431371 9.88599922 6.05457878 7.64404297 6.07543945 C4.24055188 6.10441881 0.83862057 6.09601912 -2.56494141 6.08300781 C-4.7576572 6.08924622 -6.95036814 6.09763796 -9.14306641 6.10839844 C-10.14547363 6.1054628 -11.14788086 6.10252716 -12.18066406 6.09950256 C-22.14522727 6.23051943 -30.84612398 7.63919138 -38.17822266 14.77636719 C-43.1250375 20.27012716 -43.88845869 25.34826015 -43.90673161 32.56084156 C-43.91220605 33.77605167 -43.91768049 34.99126178 -43.92332083 36.24329644 C-43.92439695 37.58845183 -43.92538166 38.9336073 -43.92628479 40.27876282 C-43.93085186 41.71026042 -43.9358521 43.1417567 -43.94124836 44.57325143 C-43.95482232 48.50689632 -43.96224568 52.44053257 -43.96867502 56.37419474 C-43.97668221 60.61614724 -43.9903789 64.85808179 -44.00338745 69.10002136 C-44.02514566 76.44948578 -44.04329255 83.79895202 -44.05899239 91.14843178 C-44.08169697 101.77456913 -44.109839 112.40068661 -44.13931166 123.02680709 C-44.18698034 140.26664191 -44.2302465 157.50648486 -44.27075195 174.74633789 C-44.31011056 191.49406568 -44.35153766 208.24178625 -44.39575195 224.98950195 C-44.39847623 226.02168881 -44.4012005 227.05387566 -44.40400732 228.1173409 C-44.41768686 233.29547647 -44.43140712 238.47361194 -44.44514763 243.65174735 C-44.55910104 286.61514723 -44.66591292 329.57856274 -44.76806641 372.54199219 C-45.09806641 372.54199219 -45.42806641 372.54199219 -45.76806641 372.54199219 C-46.05602329 328.44734122 -46.3067349 284.35261452 -46.50770598 240.25747674 C-46.53148036 235.04811475 -46.55556214 229.83875423 -46.57983398 224.62939453 C-46.58466077 223.59233294 -46.58948756 222.55527134 -46.59446061 221.48678364 C-46.67328195 204.70899191 -46.77698871 187.93144204 -46.88994139 171.15384935 C-47.00534115 153.93021854 -47.09388403 136.7065996 -47.15765291 119.48269951 C-47.1978234 108.86006064 -47.25877801 98.23796304 -47.34657712 87.6156093 C-47.40482753 80.32506396 -47.43691924 73.0346913 -47.44874584 65.74392413 C-47.45632593 61.5414054 -47.4751444 57.33975862 -47.52512932 53.13751221 C-47.57074123 49.28137692 -47.58310799 45.42654169 -47.57029087 41.57017113 C-47.57181287 39.53241874 -47.60779321 37.49477921 -47.64546245 35.45737445 C-47.5643036 25.82992645 -45.18779284 18.49825832 -39.76806641 10.54199219 C-38.77806641 10.21199219 -37.78806641 9.88199219 -36.76806641 9.54199219 C-36.52781738 8.91744141 -36.28756836 8.29289062 -36.04003906 7.64941406 C-34.0546868 4.360055 -30.9321598 3.81868077 -27.41650391 2.82324219 C-26.66533295 2.6080896 -25.91416199 2.39293701 -25.14022827 2.17126465 C-16.79850695 -0.00603592 -8.57531389 -0.14537168 0 0 Z " transform="translate(979.768 318.458)" class="colorBDD5ED svgShape"></path><path fill="#ffffff" d="M0 0 C2.47579558 2.47579558 3.73113856 5.24750787 5.24609375 8.35546875 C5.96726348 9.81560315 6.68845679 11.27572591 7.40966797 12.73583984 C7.81642761 13.56307556 8.22318726 14.39031128 8.64227295 15.24261475 C12.8181167 23.72326626 17.03456766 32.18397623 21.24581337 40.64709663 C22.81656851 43.80425457 24.38496888 46.96254174 25.94848633 50.12329102 C27.48901497 53.23728998 29.03564009 56.34819437 30.58627129 59.4571743 C31.44269342 61.17807377 32.29300042 62.90201233 33.14308167 64.62605286 C37.72067611 73.78318333 43.01093514 82.34192908 48.9375 90.6875 C49.52402344 91.51636719 50.11054687 92.34523438 50.71484375 93.19921875 C51.13894531 93.79347656 51.56304688 94.38773438 52 95 C51.01 95 50.02 95 49 95 C47.31640625 93.0234375 47.31640625 93.0234375 45.5625 90.375 C44.94761719 89.4571875 44.33273437 88.539375 43.69921875 87.59375 C43.13847656 86.7378125 42.57773438 85.881875 42 85 C41.29875 83.96875 40.5975 82.9375 39.875 81.875 C36.46850979 76.65171501 33.20812231 71.34687052 30 66 C29.59652344 65.3709375 29.19304687 64.741875 28.77734375 64.09375 C28.33519531 63.4028125 27.89304687 62.711875 27.4375 62 C27.02371094 61.360625 26.60992188 60.72125 26.18359375 60.0625 C25 58 25 58 24.0546875 55.54296875 C22.90878632 52.78007368 21.47275703 50.70735699 19.6875 48.3125 C16.19453557 43.45304112 13.50462715 38.42476849 11 33 C7.04279854 33.58625207 4.73444409 35.10090783 2 38 C1.28593303 41.08767575 1.394324 44.10624111 1.4765625 47.26171875 C1.4836171 48.6195623 1.4836171 48.6195623 1.49081421 50.00483704 C1.5121464 52.89983322 1.56867451 55.79299568 1.625 58.6875 C1.64151363 60.61651895 1.65586002 62.54555775 1.66796875 64.47460938 C1.73977222 72.04743643 1.83102488 79.51907463 2.77789307 87.04145813 C3.09802576 89.86439244 3.13231683 92.66106918 3.125 95.5 C3.12886719 97.03140625 3.12886719 97.03140625 3.1328125 98.59375 C3 101 3 101 2 102 C1.896875 102.99 1.79375 103.98 1.6875 105 C0.7140211 112.29360343 -2.70659103 118.94720053 -8 124 C-10.58124379 125.38172462 -13.11530102 126.46289078 -16 127 C-16.99 126.67 -17.98 126.34 -19 126 C-18.33613281 125.6596875 -17.67226563 125.319375 -16.98828125 124.96875 C-8.89563621 120.52665579 -5.19522904 116.14195706 -2.39811707 107.39053345 C-0.84284938 102.03490898 -0.55894849 97.05184428 -0.56762695 91.50146484 C-0.5574353 90.50514038 -0.54724365 89.50881592 -0.53674316 88.4822998 C-0.50681399 85.22512034 -0.49737798 81.96823592 -0.48828125 78.7109375 C-0.47141969 76.43835488 -0.45326747 74.1657815 -0.43388367 71.89321899 C-0.38653818 65.93885181 -0.35662891 59.98452212 -0.33044434 54.0300293 C-0.30056071 47.94312134 -0.25405725 41.85634233 -0.20898438 35.76953125 C-0.12312708 23.84642184 -0.05570378 11.92328577 0 0 Z " transform="translate(1033 591)" class="colorEFF4FA svgShape"></path><path fill="#ffffff" d="M0 0 C0.7425 0.11682129 1.485 0.23364258 2.25 0.35400391 C5.60279305 0.99112703 7.62198705 1.47483786 10 3.9921875 C10.495 4.92417969 10.495 4.92417969 11 5.875 C10.18402344 5.71644531 9.36804688 5.55789063 8.52734375 5.39453125 C-9.91663946 2.67797558 -28.19637313 6.35329569 -43.609375 17.05078125 C-57.87787482 27.93867245 -70.0408194 42.24066247 -73.46875 60.3515625 C-73.70215925 62.18641852 -73.86080023 64.0306031 -74 65.875 C-74.33 65.875 -74.66 65.875 -75 65.875 C-75.05534912 64.84093018 -75.11069824 63.80686035 -75.16772461 62.74145508 C-75.37468762 58.89278102 -75.5864161 55.04438118 -75.79956055 51.19604492 C-75.89102406 49.53270413 -75.9812075 47.86929241 -76.07006836 46.20581055 C-76.19826479 43.81018448 -76.33111306 41.41485398 -76.46484375 39.01953125 C-76.50343002 38.2797554 -76.5420163 37.53997955 -76.58177185 36.77778625 C-76.79384597 33.06147918 -77.15005975 29.50203441 -78 25.875 C-77.525625 26.535 -77.05125 27.195 -76.5625 27.875 C-72.85124437 30.77158976 -69.54602793 30.22469446 -65 29.875 C-64.608125 28.988125 -64.21625 28.10125 -63.8125 27.1875 C-60.68352317 21.4690251 -56.45578666 18.34081797 -50.984375 15.0703125 C-49.21979711 14.00739747 -47.5109822 12.85312504 -45.8125 11.6875 C-43.19414062 10.00011284 -40.90569424 8.95618855 -38 7.875 C-36.5812909 7.23366575 -35.16485091 6.58730154 -33.75 5.9375 C-29.23999564 3.93553437 -24.74558306 2.23088087 -20 0.875 C-19.20335937 0.63265625 -18.40671875 0.3903125 -17.5859375 0.140625 C-11.47396756 -1.37351861 -6.13627575 -1.01191541 0 0 Z " transform="translate(576 425.125)" class="colorF7F9FC svgShape"></path><path fill="#ffffff" d="M0 0 C1.16144531 0.12890625 2.32289063 0.2578125 3.51953125 0.390625 C4.39996094 0.50921875 5.28039062 0.6278125 6.1875 0.75 C6.1875 1.74 6.1875 2.73 6.1875 3.75 C8.6625 4.245 8.6625 4.245 11.1875 4.75 C12.0625 6.8125 12.0625 6.8125 12.1875 9.75 C9.69162354 13.77449284 6.6678208 17.05085947 2.1875 18.75 C-2.18324338 18.98456583 -5.92838445 18.16499301 -9.875 16.3125 C-12.45445186 12.9009669 -12.4127679 10.37242599 -12.4765625 6.1875 C-10.73093554 -0.21997778 -5.81330314 -0.7046428 0 0 Z " transform="translate(460.813 877.25)" class="color146CBE svgShape"></path><path fill="#ffffff" d="M0 0 C2 0 2 0 4.109375 1.421875 C6.91462128 5.24721083 6.4373272 8.63886887 6.25 13.25 C6.23195313 14.09046875 6.21390625 14.9309375 6.1953125 15.796875 C6.14830798 17.86507395 6.07656724 19.93268441 6 22 C5.01 22.33 4.02 22.66 3 23 C2.67 23.99 2.34 24.98 2 26 C3.32 26.66 4.64 27.32 6 28 C6 28.66 6 29.32 6 30 C2.53846154 33 2.53846154 33 0 33 C-2.1875 31.3125 -2.1875 31.3125 -4 29 C-3.875 26.3125 -3.875 26.3125 -3 24 C-2.34 23.67 -1.68 23.34 -1 23 C-1 21.68 -1 20.36 -1 19 C-1.99 18.34 -2.98 17.68 -4 17 C-4.29296875 14.8359375 -4.29296875 14.8359375 -4.1875 12.375 C-4.16042969 11.55773437 -4.13335938 10.74046875 -4.10546875 9.8984375 C-4.07066406 9.27195312 -4.03585937 8.64546875 -4 8 C-2.68 7.67 -1.36 7.34 0 7 C0 4.69 0 2.38 0 0 Z " transform="translate(589 665)" class="colorFFF svgShape"></path><path fill="#ffffff" d="M0 0 C1.88278518 2.82417777 2.49962803 4.53840768 3.3125 7.75 C5.26914144 14.3717373 7.85530147 18.9527149 13.81811523 22.6550293 C19.94068693 25.92720073 25.97714189 25.72855162 32.78515625 25.70703125 C34.08198837 25.72215256 35.3788205 25.73727386 36.71495056 25.75285339 C40.13279066 25.79243304 43.55009749 25.80287604 46.96813965 25.80688477 C50.46785382 25.81626792 53.96726127 25.85371318 57.46679688 25.88867188 C64.31115421 25.95297089 71.15535887 25.98643752 78 26 C70.3072658 31.12848947 57.660358 29.18314499 48.75 29.1875 C47.44675781 29.19974609 46.14351562 29.21199219 44.80078125 29.22460938 C30.91561055 29.24525135 17.27479143 29.13739021 6 20 C0.57440854 13.73431696 -0.13360944 8.01656632 0 0 Z " transform="translate(934 692)" class="colorD5E4F4 svgShape"></path><path fill="#ffffff" d="M0 0 C0.75 1.625 0.75 1.625 1 4 C-2.17302084 10.98064584 -9.37027175 15.92068345 -16.2265625 19 C-17.64002208 19.46585934 -19.06567656 19.89596851 -20.5 20.29296875 C-24.78287158 21.50421837 -28.91349619 23.16488747 -33.08203125 24.71875 C-34.38537758 25.15383309 -35.69170371 25.58003597 -37 26 C-37.7955127 26.26981689 -38.59102539 26.53963379 -39.41064453 26.81762695 C-49.2594403 29.75457635 -59.08221728 29.33465797 -69.25 29.1875 C-71.07420765 29.17241988 -72.89842742 29.15873739 -74.72265625 29.14648438 C-79.14874187 29.11375617 -83.57423389 29.06215964 -88 29 C-88 28.67 -88 28.34 -88 28 C-87.16041748 27.9906543 -86.32083496 27.98130859 -85.45581055 27.97167969 C-65.31630162 27.69064406 -45.79497153 27.18614093 -27 19 C-26.34757324 18.72140137 -25.69514648 18.44280273 -25.02294922 18.15576172 C-10.00000371 12.0710325 -10.00000371 12.0710325 0 0 Z " transform="translate(1242 696)" class="colorCADEF1 svgShape"></path><path fill="#ffffff" d="M0 0 C0.66 0.33 1.32 0.66 2 1 C-5.44908003 10.31135004 -19.67552328 12.786067 -30.78125 15.21875 C-33.98767605 15.93908438 -33.98767605 15.93908438 -36.95703125 17.046875 C-40.41035424 18.12853201 -43.58106527 18.4871516 -47.1875 18.75 C-49.00314453 18.89695312 -49.00314453 18.89695312 -50.85546875 19.046875 C-54 19 -54 19 -57 17 C-56.43941895 16.92595947 -55.87883789 16.85191895 -55.30126953 16.77563477 C-37.4673096 14.31099807 -19.43142057 10.06381484 -3.37109375 1.65625 C-2.25863281 1.1096875 -1.14617187 0.563125 0 0 Z " transform="translate(293 827)" class="colorEBF2F9 svgShape"></path><path fill="#ffffff" d="M0 0 C0.75 1.625 0.75 1.625 1 4 C-2.25882361 11.16941195 -9.62220608 15.94376346 -16.578125 19.2109375 C-20.50787318 20.62929032 -22.94077654 21.29858826 -27 20 C-23.9791837 17.46439253 -20.80599667 15.89354258 -17.26196289 14.24658203 C-9.73045829 10.73423178 -3.88623901 7.77247803 0 0 Z " transform="translate(1242 696)" class="colorE7EFF8 svgShape"></path><path fill="#ffffff" d="M0 0 C0.66 0 1.32 0 2 0 C3.375 1.43359375 3.375 1.43359375 5 3.4375 C12.26883375 11.91531842 20.45562208 18.23248898 29.8984375 24.0546875 C32.37412671 25.60744975 34.70231866 27.20033826 37 29 C24.44922697 27.68084968 13.02257823 17.01909308 5.32421875 7.578125 C4.01313869 5.95381399 4.01313869 5.95381399 2.39453125 4.484375 C1 3 1 3 0 0 Z " transform="translate(1085 687)" class="colorE6EEF8 svgShape"></path><path fill="#ffffff" d="M0 0 C0.33 0 0.66 0 1 0 C1.70830495 6.90597324 -1.22912747 12.8957093 -5.25 18.375 C-8.48276597 21.46082207 -11.58939837 23.17877919 -16 24 C-16.99 23.67 -17.98 23.34 -19 23 C-18.33613281 22.6596875 -17.67226563 22.319375 -16.98828125 21.96875 C-7.52462729 16.77410199 -4.47596478 10.90649962 -1 1 C-0.67 0.67 -0.34 0.34 0 0 Z " transform="translate(1033 694)" class="colorEEF4FA svgShape"></path><path fill="#ffffff" d="M0 0 C-0.33 1.98 -0.66 3.96 -1 6 C-2.32 6 -3.64 6 -5 6 C-4.67 8.64 -4.34 11.28 -4 14 C-6.5 13.125 -6.5 13.125 -9 11 C-9.46087248 7.63291991 -9.28526928 4.37885612 -9 1 C-6.04335481 -0.4783226 -3.25770263 -0.06032783 0 0 Z " transform="translate(458 880)" class="color0059B0 svgShape"></path><path fill="#ffffff" d="M0 0 C5.03090627 0.58693907 7.98429631 1.47906812 11.4375 5.25 C13.86163691 8.38364039 14.80402007 10.98241141 15 15 C14.46375 14.278125 13.9275 13.55625 13.375 12.8125 C8.89023899 7.50159881 4.39909022 4.43165429 -2 2 C-1.34 1.34 -0.68 0.68 0 0 Z " transform="translate(1015 324)" class="colorE9F1F9 svgShape"></path><path fill="#ffffff" d="M0 0 C1 3 1 3 0.125 5.4375 C-1.48816189 10.545846 -1.67252401 15.67420626 -2 21 C-2.33 21 -2.66 21 -3 21 C-4.49773879 13.51130607 -5.09639803 7.71809276 -1 1 C-0.67 0.67 -0.34 0.34 0 0 Z " transform="translate(937 336)" class="colorE8F0F8 svgShape"></path><path fill="#ffffff" d="M0 0 C1.87787986 2.81681979 2.65143573 4.79458015 3.5625 8 C4.33440823 10.68768048 5.11548701 13.34646102 6 16 C4.125 15.375 4.125 15.375 2 14 C-0.24526856 9.28493603 -0.17602338 5.10467806 0 0 Z " transform="translate(934 692)" class="colorDCE9F5 svgShape"></path><path fill="#ffffff" d="M0 0 C1.79275866 3.11910856 2.34290718 5.67682428 2.625 9.25 C2.69976562 10.14203125 2.77453125 11.0340625 2.8515625 11.953125 C2.92503906 12.96632813 2.92503906 12.96632813 3 14 C2.01 13.67 1.02 13.34 0 13 C-0.19658808 11.58456585 -0.38187546 10.16755969 -0.5625 8.75 C-0.66691406 7.96109375 -0.77132812 7.1721875 -0.87890625 6.359375 C-1.00027349 3.99467126 -0.69633257 2.2488963 0 0 Z " transform="translate(52 599)" class="colorE7EFF8 svgShape"></path><path fill="#ffffff" d="M0 0 C0.33 0 0.66 0 1 0 C1.34699589 4.85794252 0.62403334 7.87651904 -2 12 C-4.1875 13.375 -4.1875 13.375 -6 14 C-4.99714388 11.30000274 -3.94037507 8.90221511 -2.4375 6.4375 C-1.12887975 4.21853522 -0.46467564 2.50924843 0 0 Z " transform="translate(1198 458)" class="colorE9F1F8 svgShape"></path><path fill="#ffffff" d="M0 0 C-0.33 0.99 -0.66 1.98 -1 3 C-5.29 3 -9.58 3 -14 3 C-14 2.67 -14 2.34 -14 2 C-4.58997722 -0.29612756 -4.58997722 -0.29612756 0 0 Z " transform="translate(1194 722)" class="colorE3EDF7 svgShape"></path><path fill="#f7fafc" d="M0 0 C3.96 1.98 7.92 3.96 12 6 C8 7 8 7 5.859375 6.07421875 C5.16328125 5.61660156 4.4671875 5.15898438 3.75 4.6875 C3.04359375 4.23761719 2.3371875 3.78773438 1.609375 3.32421875 C1.07828125 2.88722656 0.5471875 2.45023438 0 2 C0 1.34 0 0.68 0 0 Z " transform="translate(1110 709)" class="colorF7FAFC svgShape"></path><path fill="#ffffff" d="M0 0 C-2 2 -2 2 -5.4375 2.25 C-9 2 -9 2 -12 0 C-3.42857143 -1.28571429 -3.42857143 -1.28571429 0 0 Z " transform="translate(248 844)" class="colorE4EEF7 svgShape"></path><path fill="#ffffff" d="M0 0 C0.66 0.33 1.32 0.66 2 1 C1.01 2.485 1.01 2.485 0 4 C-3.625 4.6875 -3.625 4.6875 -7 5 C-4.88437775 2.67281553 -2.94982021 1.14186589 0 0 Z " transform="translate(1021 713)" class="colorDFEAF6 svgShape"></path></svg></g></svg>