<svg width="646" height="355" viewBox="0 0 646 355" fill="none" xmlns="http://www.w3.org/2000/svg">
<g clip-path="url(#clip0)">
<path d="M500.734 35.9639C501.302 35.9639 501.762 36.424 501.762 36.9914V42.6429C501.762 43.2104 501.302 43.6705 500.734 43.6705H495.083C494.516 43.6705 494.055 43.2104 494.055 42.6429V36.9914C494.055 36.424 494.516 35.9639 495.083 35.9639H500.734Z" fill="#618AF2"/>
<path d="M505.872 46.2393C506.44 46.2393 506.9 46.6993 506.9 47.2668V58.056C506.9 58.6235 506.44 59.0836 505.872 59.0836H495.083C494.516 59.0836 494.055 58.6235 494.055 58.056V47.2668C494.055 46.6993 494.516 46.2393 495.083 46.2393H505.872Z" fill="#436FDE"/>
<path d="M505.872 61.6523C506.44 61.6523 506.9 62.1124 506.9 62.6799V73.4691C506.9 74.0366 506.44 74.4967 505.872 74.4967H495.083C494.516 74.4967 494.055 74.0366 494.055 73.4691V62.6799C494.055 62.1124 494.516 61.6523 495.083 61.6523H505.872Z" fill="#2753C2"/>
<path d="M498.166 77.0654C498.733 77.0654 499.193 77.5255 499.193 78.093V81.1756C499.193 81.7431 498.733 82.2032 498.166 82.2032H495.083C494.516 82.2032 494.055 81.7431 494.055 81.1756V78.093C494.055 77.5255 494.516 77.0654 495.083 77.0654H498.166Z" fill="#173580"/>
<path d="M482.752 7.70703C483.32 7.70703 483.78 8.16708 483.78 8.73458V11.8172C483.78 12.3847 483.32 12.8447 482.752 12.8447H479.67C479.102 12.8447 478.642 12.3847 478.642 11.8172V8.73458C478.642 8.16708 479.102 7.70703 479.67 7.70703H482.752Z" fill="#BAF5EE"/>
<path d="M487.89 15.4131C488.458 15.4131 488.918 15.8732 488.918 16.4406V27.2299C488.918 27.7973 488.458 28.2574 487.89 28.2574H479.67C479.102 28.2574 478.642 27.7973 478.642 27.2299V16.4406C478.642 15.8732 479.102 15.4131 479.67 15.4131H487.89Z" fill="#9BEBE1"/>
<path d="M490.459 30.8262C491.026 30.8262 491.487 31.2863 491.487 31.8537V42.6429C491.487 43.2104 491.026 43.6705 490.459 43.6705H479.67C479.102 43.6705 478.642 43.2104 478.642 42.6429V31.8537C478.642 31.2863 479.102 30.8262 479.67 30.8262H490.459Z" fill="#6FDED1"/>
<path d="M490.459 46.2393C491.026 46.2393 491.487 46.6993 491.487 47.2668V58.056C491.487 58.6235 491.026 59.0836 490.459 59.0836H479.67C479.102 59.0836 478.642 58.6235 478.642 58.056V47.2668C478.642 46.6993 479.102 46.2393 479.67 46.2393H490.459Z" fill="#14C4B0"/>
<path d="M490.459 61.6523C491.026 61.6523 491.487 62.1124 491.487 62.6799V73.4691C491.487 74.0366 491.026 74.4967 490.459 74.4967H479.67C479.102 74.4967 478.642 74.0366 478.642 73.4691V62.6799C478.642 62.1124 479.102 61.6523 479.67 61.6523H490.459Z" fill="#069988"/>
<path d="M490.459 77.0654C491.026 77.0654 491.487 77.5255 491.487 78.093V88.8822C491.487 89.4497 491.026 89.9097 490.459 89.9097H479.67C479.102 89.9097 478.642 89.4497 478.642 88.8822V78.093C478.642 77.5255 479.102 77.0654 479.67 77.0654H490.459Z" fill="#00695C"/>
<path d="M487.89 97.7246C488.458 97.7246 488.918 98.1846 488.918 98.7522V106.973C488.918 107.54 488.458 108 487.89 108H479.67C479.102 108 478.642 107.54 478.642 106.973V98.7522C478.642 98.1846 479.102 97.7246 479.67 97.7246H487.89Z" fill="#004038"/>
<path d="M475.046 0C475.613 0 476.073 0.460047 476.073 1.02755V11.8168C476.073 12.3843 475.613 12.8443 475.046 12.8443H471.963C471.396 12.8443 470.936 12.3843 470.936 11.8168V1.02755C470.936 0.460047 471.396 0 471.963 0H475.046Z" fill="#C6FAA5"/>
<path d="M475.046 15.4131C475.613 15.4131 476.073 15.8732 476.073 16.4406V27.2299C476.073 27.7973 475.613 28.2574 475.046 28.2574H464.257C463.689 28.2574 463.229 27.7973 463.229 27.2299V16.4406C463.229 15.8732 463.689 15.4131 464.257 15.4131H475.046Z" fill="#A0ED6F"/>
<path d="M475.046 30.8262C475.613 30.8262 476.073 31.2863 476.073 31.8537V42.6429C476.073 43.2104 475.613 43.6705 475.046 43.6705H464.257C463.689 43.6705 463.229 43.2104 463.229 42.6429V31.8537C463.229 31.2863 463.689 30.8262 464.257 30.8262H475.046Z" fill="#7EDE43"/>
<path d="M475.046 46.2393C475.613 46.2393 476.073 46.6993 476.073 47.2668V58.056C476.073 58.6235 475.613 59.0836 475.046 59.0836H464.257C463.689 59.0836 463.229 58.6235 463.229 58.056V47.2668C463.229 46.6993 463.689 46.2393 464.257 46.2393H475.046Z" fill="#60C025"/>
<path d="M475.046 61.6523C475.613 61.6523 476.073 62.1124 476.073 62.6799V73.4691C476.073 74.0366 475.613 74.4967 475.046 74.4967H464.257C463.689 74.4967 463.229 74.0366 463.229 73.4691V62.6799C463.229 62.1124 463.689 61.6523 464.257 61.6523H475.046Z" fill="#3E910A"/>
<path d="M475.046 77.0654C475.613 77.0654 476.073 77.5255 476.073 78.093V88.8822C476.073 89.4497 475.613 89.9097 475.046 89.9097H464.257C463.689 89.9097 463.229 89.4497 463.229 88.8822V78.093C463.229 77.5255 463.689 77.0654 464.257 77.0654H475.046Z" fill="#276600"/>
<path d="M454.495 5.1377C455.062 5.1377 455.522 5.59774 455.522 6.16524V11.8167C455.522 12.3842 455.062 12.8443 454.495 12.8443H448.843C448.276 12.8443 447.816 12.3842 447.816 11.8167V6.16524C447.816 5.59774 448.276 5.1377 448.843 5.1377H454.495Z" fill="#FFEBA8"/>
<path d="M459.633 15.4131C460.2 15.4131 460.66 15.8732 460.66 16.4406V27.2299C460.66 27.7973 460.2 28.2574 459.633 28.2574H448.843C448.276 28.2574 447.816 27.7973 447.816 27.2299V16.4406C447.816 15.8732 448.276 15.4131 448.843 15.4131H459.633Z" fill="#FFDD75"/>
<path d="M459.633 30.8262C460.2 30.8262 460.66 31.2863 460.66 31.8537V42.6429C460.66 43.2104 460.2 43.6705 459.633 43.6705H448.843C448.276 43.6705 447.816 43.2104 447.816 42.6429V31.8537C447.816 31.2863 448.276 30.8262 448.843 30.8262H459.633Z" fill="#FFC926"/>
<path d="M459.633 46.2393C460.2 46.2393 460.66 46.6993 460.66 47.2668V58.056C460.66 58.6235 460.2 59.0836 459.633 59.0836H448.843C448.276 59.0836 447.816 58.6235 447.816 58.056V47.2668C447.816 46.6993 448.276 46.2393 448.843 46.2393H459.633Z" fill="#EDB407"/>
<path d="M459.633 61.6523C460.2 61.6523 460.66 62.1124 460.66 62.6799V73.4691C460.66 74.0366 460.2 74.4967 459.633 74.4967H448.843C448.276 74.4967 447.816 74.0366 447.816 73.4691V62.6799C447.816 62.1124 448.276 61.6523 448.843 61.6523H459.633Z" fill="#C99906"/>
<path d="M459.633 77.0654C460.2 77.0654 460.66 77.5255 460.66 78.093V83.7445C460.66 84.3119 460.2 84.772 459.633 84.772H453.981C453.414 84.772 452.954 84.3119 452.954 83.7445V78.093C452.954 77.5255 453.414 77.0654 453.981 77.0654H459.633Z" fill="#9E7700"/>
<path d="M444.219 2.56934C444.787 2.56934 445.247 3.02938 445.247 3.59688V11.8172C445.247 12.3847 444.787 12.8448 444.219 12.8448H435.999C435.432 12.8448 434.972 12.3847 434.972 11.8172V3.59688C434.972 3.02938 435.432 2.56934 435.999 2.56934H444.219Z" fill="#FFCEA1"/>
<path d="M444.219 15.4131C444.787 15.4131 445.247 15.8732 445.247 16.4406V27.2299C445.247 27.7973 444.787 28.2574 444.219 28.2574H433.43C432.863 28.2574 432.403 27.7973 432.403 27.2299V16.4406C432.403 15.8732 432.863 15.4131 433.43 15.4131H444.219Z" fill="#FFB066"/>
<path d="M444.219 30.8262C444.787 30.8262 445.247 31.2863 445.247 31.8537V42.6429C445.247 43.2104 444.787 43.6705 444.219 43.6705H433.43C432.863 43.6705 432.403 43.2104 432.403 42.6429V31.8537C432.403 31.2863 432.863 30.8262 433.43 30.8262H444.219Z" fill="#FC9330"/>
<path d="M444.219 46.2393C444.787 46.2393 445.247 46.6993 445.247 47.2668V58.056C445.247 58.6235 444.787 59.0836 444.219 59.0836H433.43C432.863 59.0836 432.403 58.6235 432.403 58.056V47.2668C432.403 46.6993 432.863 46.2393 433.43 46.2393H444.219Z" fill="#E07A1B"/>
<path d="M444.219 61.6523C444.787 61.6523 445.247 62.1124 445.247 62.6799V68.3314C445.247 68.8989 444.787 69.3589 444.219 69.3589H433.43C432.863 69.3589 432.403 68.8989 432.403 68.3314V62.6799C432.403 62.1124 432.863 61.6523 433.43 61.6523H444.219Z" fill="#C96406"/>
<path d="M428.806 7.70703C429.374 7.70703 429.834 8.16708 429.834 8.73458V11.8172C429.834 12.3847 429.374 12.8448 428.806 12.8448H425.724C425.156 12.8448 424.696 12.3847 424.696 11.8172V8.73458C424.696 8.16708 425.156 7.70703 425.724 7.70703H428.806Z" fill="#F2BDBD"/>
<path d="M428.806 15.4131C429.374 15.4131 429.834 15.8732 429.834 16.4406V27.2299C429.834 27.7973 429.374 28.2574 428.806 28.2574H418.017C417.45 28.2574 416.99 27.7973 416.99 27.2299V16.4406C416.99 15.8732 417.45 15.4131 418.017 15.4131H428.806Z" fill="#ED7E7E"/>
<path d="M428.806 30.8262C429.374 30.8262 429.834 31.2863 429.834 31.8537V42.6429C429.834 43.2104 429.374 43.6705 428.806 43.6705H418.017C417.45 43.6705 416.99 43.2104 416.99 42.6429V31.8537C416.99 31.2863 417.45 30.8262 418.017 30.8262H428.806Z" fill="#E64E4E"/>
<path d="M428.806 46.2393C429.374 46.2393 429.834 46.6993 429.834 47.2668V58.056C429.834 58.6235 429.374 59.0836 428.806 59.0836H418.017C417.45 59.0836 416.99 58.6235 416.99 58.056V47.2668C416.99 46.6993 417.45 46.2393 418.017 46.2393H428.806Z" fill="#C43737"/>
<path d="M428.806 61.6523C429.374 61.6523 429.834 62.1124 429.834 62.6799V73.4691C429.834 74.0366 429.374 74.4967 428.806 74.4967H418.017C417.45 74.4967 416.99 74.0366 416.99 73.4691V62.6799C416.99 62.1124 417.45 61.6523 418.017 61.6523H428.806Z" fill="#942121"/>
<path d="M413.393 20.5508C413.961 20.5508 414.421 21.0109 414.421 21.5783V27.2298C414.421 27.7973 413.961 28.2574 413.393 28.2574H407.742C407.174 28.2574 406.714 27.7973 406.714 27.2298V21.5783C406.714 21.0109 407.174 20.5508 407.742 20.5508H413.393Z" fill="#ED87F5"/>
<path d="M413.393 30.8262C413.961 30.8262 414.421 31.2863 414.421 31.8537V42.6429C414.421 43.2104 413.961 43.6705 413.393 43.6705H402.604C402.036 43.6705 401.576 43.2104 401.576 42.6429V31.8537C401.576 31.2863 402.036 30.8262 402.604 30.8262H413.393Z" fill="#E75BF0"/>
<path d="M413.393 46.2393C413.961 46.2393 414.421 46.6993 414.421 47.2668V58.056C414.421 58.6235 413.961 59.0836 413.393 59.0836H402.604C402.036 59.0836 401.576 58.6235 401.576 58.056V47.2668C401.576 46.6993 402.036 46.2393 402.604 46.2393H413.393Z" fill="#CC42D5"/>
<path d="M413.393 61.6523C413.961 61.6523 414.421 62.1124 414.421 62.6799V73.4691C414.421 74.0366 413.961 74.4967 413.393 74.4967H402.604C402.036 74.4967 401.576 74.0366 401.576 73.4691V62.6799C401.576 62.1124 402.036 61.6523 402.604 61.6523H413.393Z" fill="#A229AB"/>
<path d="M408.255 77.0654C408.823 77.0654 409.283 77.5255 409.283 78.093V83.7445C409.283 84.3119 408.823 84.772 408.255 84.772H402.604C402.036 84.772 401.576 84.3119 401.576 83.7445V78.093C401.576 77.5255 402.036 77.0654 402.604 77.0654H408.255Z" fill="#620D69"/>
<path d="M397.98 33.3955C398.547 33.3955 399.008 33.8556 399.008 34.423V42.6434C399.008 43.2109 398.547 43.671 397.98 43.671H389.76C389.192 43.671 388.732 43.2109 388.732 42.6434V34.423C388.732 33.8556 389.192 33.3955 389.76 33.3955H397.98Z" fill="#916CF0"/>
<path d="M397.98 46.2393C398.547 46.2393 399.008 46.6993 399.008 47.2668V58.056C399.008 58.6235 398.547 59.0836 397.98 59.0836H387.191C386.623 59.0836 386.163 58.6235 386.163 58.056V47.2668C386.163 46.6993 386.623 46.2393 387.191 46.2393H397.98Z" fill="#754DDB"/>
<path d="M397.98 61.6523C398.547 61.6523 399.008 62.1124 399.008 62.6799V73.4691C399.008 74.0366 398.547 74.4967 397.98 74.4967H389.76C389.192 74.4967 388.732 74.0366 388.732 73.4691V62.6799C388.732 62.1124 389.192 61.6523 389.76 61.6523H397.98Z" fill="#512BB3"/>
<path d="M397.98 77.0654C398.547 77.0654 399.007 77.5255 399.007 78.093V81.1756C399.007 81.7431 398.547 82.2032 397.98 82.2032H394.897C394.33 82.2032 393.87 81.7431 393.87 81.1756V78.093C393.87 77.5255 394.33 77.0654 394.897 77.0654H397.98Z" fill="#351880"/>
<path d="M531.949 25.6743H524.297L522.579 30.4407H520.095L527.069 12.1777H529.177L536.163 30.4407H533.692L531.949 25.6743ZM525.024 23.6925H531.233L528.122 15.1505L525.024 23.6925Z" fill="#231F20"/>
<path d="M546.486 29.0989C545.583 30.1608 544.257 30.6918 542.511 30.6918C541.063 30.6918 539.96 30.2737 539.198 29.4376C538.447 28.5929 538.065 27.3469 538.057 25.6996V16.8691H540.377V25.6369C540.377 27.6939 541.213 28.7225 542.887 28.7225C544.659 28.7225 545.839 28.0619 546.423 26.7406V16.8691H548.744V30.441H546.536L546.486 29.0989Z" fill="#231F20"/>
<path d="M560.183 26.841C560.183 26.2138 559.945 25.7288 559.469 25.386C559 25.0347 558.177 24.7336 556.998 24.4827C555.826 24.2319 554.895 23.9308 554.2 23.5797C553.514 23.2285 553.004 22.8103 552.67 22.3253C552.344 21.8403 552.181 21.2633 552.181 20.5944C552.181 19.4822 552.649 18.5415 553.586 17.7721C554.53 17.0029 555.735 16.6182 557.198 16.6182C558.737 16.6182 559.983 17.0153 560.936 17.8097C561.898 18.6042 562.378 19.6201 562.378 20.8578H560.046C560.046 20.2223 559.773 19.6745 559.23 19.2146C558.696 18.7547 558.018 18.5248 557.198 18.5248C556.354 18.5248 555.693 18.7087 555.216 19.0766C554.74 19.4446 554.502 19.9254 554.502 20.5191C554.502 21.0794 554.723 21.5017 555.166 21.7859C555.609 22.0703 556.408 22.3421 557.562 22.6013C558.724 22.8605 559.665 23.1699 560.385 23.5294C561.104 23.8891 561.634 24.3239 561.977 24.834C562.328 25.3357 562.504 25.9503 562.504 26.6778C562.504 27.8903 562.018 28.8646 561.049 29.6004C560.079 30.3279 558.82 30.6917 557.274 30.6917C556.186 30.6917 555.225 30.4994 554.389 30.1147C553.553 29.73 552.896 29.1948 552.419 28.5092C551.951 27.8151 551.717 27.0666 551.717 26.2639H554.037C554.079 27.0416 554.389 27.6604 554.966 28.1204C555.551 28.5719 556.321 28.7977 557.274 28.7977C558.151 28.7977 558.854 28.6221 559.38 28.2708C559.916 27.9113 560.183 27.4346 560.183 26.841Z" fill="#231F20"/>
<path d="M568.676 13.583V16.8694H571.209V18.6631H568.676V27.0796C568.676 27.6231 568.789 28.0329 569.014 28.3088C569.24 28.5764 569.625 28.7101 570.168 28.7101C570.435 28.7101 570.804 28.66 571.272 28.5597V30.4412C570.661 30.6084 570.068 30.692 569.49 30.692C568.453 30.692 567.671 30.3785 567.145 29.7513C566.618 29.1241 566.355 28.2335 566.355 27.0796V18.6631H563.884V16.8694H566.355V13.583H568.676Z" fill="#231F20"/>
<path d="M580.491 18.9512C580.139 18.8926 579.759 18.8634 579.349 18.8634C577.827 18.8634 576.795 19.5115 576.251 20.8076V30.4408H573.932V16.869H576.188L576.227 18.4369C576.987 17.2244 578.066 16.6182 579.462 16.6182C579.914 16.6182 580.257 16.6767 580.491 16.7937V18.9512Z" fill="#231F20"/>
<path d="M590.514 30.4408C590.379 30.1733 590.271 29.6966 590.187 29.0109C589.109 30.1314 587.82 30.6917 586.324 30.6917C584.985 30.6917 583.886 30.3153 583.025 29.5628C582.173 28.8019 581.745 27.8402 581.745 26.6778C581.745 25.2647 582.281 24.1692 583.35 23.3915C584.429 22.6054 585.944 22.2125 587.892 22.2125H590.149V21.1463C590.149 20.3352 589.907 19.6913 589.422 19.2146C588.936 18.7296 588.222 18.4871 587.277 18.4871C586.45 18.4871 585.755 18.6961 585.195 19.1142C584.635 19.5324 584.355 20.0382 584.355 20.632H582.021C582.021 19.9546 582.26 19.3024 582.736 18.6752C583.222 18.0398 583.873 17.5379 584.693 17.1701C585.521 16.8021 586.428 16.6182 587.416 16.6182C588.979 16.6182 590.204 17.0112 591.09 17.7971C591.977 18.5749 592.436 19.6494 592.47 21.0208V27.2674C592.47 28.5133 592.629 29.5042 592.946 30.2402V30.4408H590.514ZM586.663 28.6722C587.39 28.6722 588.08 28.4841 588.732 28.1078C589.385 27.7315 589.857 27.2423 590.149 26.6402V23.8555H588.33C585.488 23.8555 584.066 24.6876 584.066 26.3517C584.066 27.0792 584.309 27.6478 584.794 28.0576C585.278 28.4673 585.901 28.6722 586.663 28.6722Z" fill="#231F20"/>
<path d="M598.629 11.1748H596.308V30.4413H598.629V11.1748Z" fill="#231F20"/>
<path d="M604.875 30.4406H602.555V16.8688H604.875V30.4406ZM602.366 13.2689C602.366 12.8926 602.479 12.5748 602.706 12.3156C602.939 12.0564 603.282 11.9268 603.734 11.9268C604.185 11.9268 604.528 12.0564 604.762 12.3156C604.997 12.5748 605.114 12.8926 605.114 13.2689C605.114 13.6451 604.997 13.9588 604.762 14.2097C604.528 14.4605 604.185 14.5859 603.734 14.5859C603.282 14.5859 602.939 14.4605 602.706 14.2097C602.479 13.9588 602.366 13.6451 602.366 13.2689Z" fill="#231F20"/>
<path d="M616.979 30.4408C616.846 30.1733 616.737 29.6966 616.653 29.0109C615.574 30.1314 614.287 30.6917 612.79 30.6917C611.452 30.6917 610.353 30.3153 609.491 29.5628C608.638 28.8019 608.212 27.8402 608.212 26.6778C608.212 25.2647 608.747 24.1692 609.817 23.3915C610.896 22.6054 612.409 22.2125 614.358 22.2125H616.616V21.1463C616.616 20.3352 616.373 19.6913 615.889 19.2146C615.403 18.7296 614.688 18.4871 613.744 18.4871C612.915 18.4871 612.222 18.6961 611.661 19.1142C611.101 19.5324 610.82 20.0382 610.82 20.632H608.488C608.488 19.9546 608.726 19.3024 609.202 18.6752C609.688 18.0398 610.34 17.5379 611.16 17.1701C611.987 16.8021 612.895 16.6182 613.881 16.6182C615.444 16.6182 616.67 17.0112 617.556 17.7971C618.442 18.5749 618.903 19.6494 618.937 21.0208V27.2674C618.937 28.5133 619.095 29.5042 619.413 30.2402V30.4408H616.979ZM613.129 28.6722C613.856 28.6722 614.547 28.4841 615.198 28.1078C615.85 27.7315 616.323 27.2423 616.616 26.6402V23.8555H614.797C611.953 23.8555 610.533 24.6876 610.533 26.3517C610.533 27.0792 610.774 27.6478 611.26 28.0576C611.745 28.4673 612.368 28.6722 613.129 28.6722Z" fill="#231F20"/>
<path d="M624.769 16.869L624.844 18.5749C625.88 17.2704 627.236 16.6182 628.908 16.6182C631.776 16.6182 633.224 18.2362 633.248 21.4724V30.4408H630.927V21.4598C630.919 20.4815 630.693 19.7581 630.25 19.2899C629.816 18.8216 629.134 18.5875 628.205 18.5875C627.453 18.5875 626.792 18.7881 626.223 19.1895C625.656 19.5909 625.213 20.1177 624.894 20.77V30.4408H622.574V16.869H624.769Z" fill="#231F20"/>
<path d="M535.712 54.4129C535.57 56.3779 534.843 57.9249 533.529 59.0539C532.225 60.1828 530.503 60.7472 528.361 60.7472C526.02 60.7472 524.177 59.9611 522.829 58.3891C521.492 56.8086 520.823 54.6428 520.823 51.8917V50.7753C520.823 49.0193 521.133 47.4722 521.75 46.1343C522.369 44.7964 523.252 43.772 524.398 43.0612C525.551 42.3421 526.889 41.9824 528.411 41.9824C530.519 41.9824 532.216 42.5469 533.504 43.6758C534.791 44.8047 535.536 46.3893 535.737 48.4298H531.973C531.882 47.2506 531.552 46.3977 530.983 45.8709C530.423 45.3357 529.565 45.0681 528.411 45.0681C527.157 45.0681 526.216 45.5196 525.59 46.4228C524.97 47.3176 524.653 48.7099 524.636 50.5997V51.9794C524.636 53.9529 524.933 55.3954 525.527 56.3069C526.129 57.2183 527.073 57.6741 528.361 57.6741C529.524 57.6741 530.389 57.4108 530.957 56.8839C531.535 56.3487 531.865 55.5251 531.949 54.4129H535.712Z" fill="#231F20"/>
<path d="M537.379 53.5851C537.379 52.2389 537.639 51.0388 538.158 49.9852C538.677 48.9316 539.42 48.1162 540.39 47.5393C541.369 46.9623 542.502 46.6738 543.79 46.6738C545.62 46.6738 547.114 47.2341 548.267 48.3546C549.43 49.4752 550.078 50.9971 550.212 52.9204L550.236 53.8485C550.236 55.9307 549.656 57.6032 548.493 58.8659C547.331 60.1202 545.772 60.7473 543.814 60.7473C541.858 60.7473 540.294 60.1202 539.124 58.8659C537.961 57.6115 537.379 55.9057 537.379 53.7482V53.5851ZM541.005 53.8485C541.005 55.1363 541.248 56.1231 541.732 56.8088C542.218 57.486 542.911 57.8247 543.814 57.8247C544.693 57.8247 545.379 57.4903 545.872 56.8214C546.365 56.1439 546.612 55.0653 546.612 53.5851C546.612 52.3225 546.365 51.344 545.872 50.65C545.379 49.9559 544.684 49.6089 543.79 49.6089C542.904 49.6089 542.218 49.9559 541.732 50.65C541.248 51.3357 541.005 52.4019 541.005 53.8485Z" fill="#231F20"/>
<path d="M555.869 46.9247L555.982 48.4424C556.944 47.2634 558.244 46.6738 559.883 46.6738C561.631 46.6738 562.83 47.3637 563.483 48.7434C564.436 47.3637 565.795 46.6738 567.56 46.6738C569.03 46.6738 570.126 47.1045 570.845 47.9657C571.564 48.8187 571.924 50.1065 571.924 51.8292V60.4965H568.287V51.8416C568.287 51.0724 568.136 50.5121 567.834 50.1608C567.534 49.8013 567.003 49.6215 566.242 49.6215C565.155 49.6215 564.402 50.1399 563.984 51.1768L563.997 60.4965H560.372V51.8542C560.372 51.0681 560.216 50.4995 559.908 50.1483C559.599 49.7971 559.071 49.6215 558.327 49.6215C557.298 49.6215 556.555 50.0479 556.095 50.9009V60.4965H552.47V46.9247H555.869Z" fill="#231F20"/>
<path d="M586.938 53.8361C586.938 55.9266 586.461 57.6032 585.508 58.8659C584.563 60.1202 583.284 60.7473 581.67 60.7473C580.299 60.7473 579.191 60.2707 578.346 59.3174V65.7145H574.722V46.9247H578.083L578.209 48.2543C579.086 47.2006 580.232 46.6738 581.645 46.6738C583.317 46.6738 584.618 47.2927 585.545 48.5302C586.474 49.7678 586.938 51.4737 586.938 53.6479V53.8361ZM583.313 53.5726C583.313 52.3099 583.087 51.3357 582.636 50.65C582.193 49.9643 581.544 49.6215 580.692 49.6215C579.555 49.6215 578.773 50.0563 578.346 50.9259V56.4826C578.789 57.3774 579.579 57.8247 580.717 57.8247C582.447 57.8247 583.313 56.4074 583.313 53.5726Z" fill="#231F20"/>
<path d="M597.324 59.1169C596.43 60.2039 595.192 60.7475 593.612 60.7475C592.156 60.7475 591.044 60.3294 590.275 59.4932C589.514 58.6569 589.125 57.4318 589.109 55.818V46.9248H592.733V55.6926C592.733 57.1057 593.377 57.8124 594.665 57.8124C595.894 57.8124 596.739 57.3859 597.199 56.533V46.9248H600.837V60.4966H597.425L597.324 59.1169Z" fill="#231F20"/>
<path d="M607.911 43.5879V46.9245H610.231V49.5836H607.911V56.3569C607.911 56.8588 608.006 57.2183 608.199 57.4357C608.392 57.6532 608.759 57.7618 609.304 57.7618C609.704 57.7618 610.06 57.7326 610.37 57.674V60.421C609.658 60.6385 608.927 60.7471 608.175 60.7471C605.631 60.7471 604.335 59.4636 604.285 56.8964V49.5836H602.303V46.9245H604.285V43.5879H607.911Z" fill="#231F20"/>
<path d="M616.076 60.4969H612.439V46.9251H616.076V60.4969ZM612.226 43.4129C612.226 42.8694 612.406 42.422 612.765 42.0708C613.133 41.7197 613.631 41.5439 614.258 41.5439C614.877 41.5439 615.37 41.7197 615.737 42.0708C616.106 42.422 616.29 42.8694 616.29 43.4129C616.29 43.9648 616.102 44.4164 615.726 44.7676C615.357 45.1188 614.868 45.2945 614.258 45.2945C613.648 45.2945 613.154 45.1188 612.778 44.7676C612.409 44.4164 612.226 43.9648 612.226 43.4129Z" fill="#231F20"/>
<path d="M622.411 46.9247L622.524 48.4926C623.494 47.2801 624.794 46.6738 626.425 46.6738C627.862 46.6738 628.934 47.0961 629.636 47.9407C630.339 48.7853 630.697 50.0479 630.714 51.7287V60.4965H627.089V51.8166C627.089 51.0472 626.922 50.4912 626.588 50.1483C626.253 49.7971 625.697 49.6215 624.92 49.6215C623.899 49.6215 623.134 50.0563 622.624 50.9259V60.4965H618.999V46.9247H622.411Z" fill="#231F20"/>
<path d="M632.947 53.6103C632.947 51.5281 633.441 49.8514 634.427 48.5804C635.422 47.3094 636.761 46.6738 638.441 46.6738C639.93 46.6738 641.088 47.1839 641.915 48.2041L642.066 46.9247H645.352V60.0449C645.352 61.2323 645.08 62.2652 644.537 63.1431C644.003 64.0211 643.245 64.6902 642.267 65.15C641.289 65.6099 640.143 65.84 638.83 65.84C637.835 65.84 636.865 65.6392 635.92 65.2378C634.976 64.8448 634.26 64.3348 633.775 63.7076L635.38 61.4999C636.283 62.5118 637.379 63.0177 638.667 63.0177C639.629 63.0177 640.377 62.7585 640.912 62.24C641.448 61.7299 641.715 61.0024 641.715 60.0575V59.33C640.879 60.2749 639.779 60.7473 638.417 60.7473C636.785 60.7473 635.464 60.1118 634.453 58.8407C633.448 57.5613 632.947 55.868 632.947 53.7608V53.6103ZM636.572 53.8737C636.572 55.1029 636.819 56.0687 637.312 56.7711C637.805 57.4652 638.483 57.8123 639.344 57.8123C640.448 57.8123 641.238 57.3983 641.715 56.5705V50.8633C641.229 50.0354 640.448 49.6215 639.37 49.6215C638.5 49.6215 637.814 49.9769 637.312 50.6877C636.819 51.3985 636.572 52.4604 636.572 53.8737Z" fill="#231F20"/>
<path d="M531.949 85.7857H524.297L522.579 90.5521H520.095L527.069 72.2891H529.177L536.163 90.5521H533.692L531.949 85.7857ZM525.024 83.8039H531.233L528.122 75.2619L525.024 83.8039Z" fill="#231F20"/>
<path d="M543.701 88.909C544.53 88.909 545.253 88.6581 545.872 88.1564C546.491 87.6546 546.833 87.0276 546.901 86.2749H549.096C549.053 87.0526 548.786 87.7927 548.293 88.495C547.799 89.1975 547.138 89.7577 546.311 90.1758C545.492 90.594 544.621 90.803 543.701 90.803C541.854 90.803 540.382 90.1884 539.287 88.9592C538.199 87.7215 537.655 86.0324 537.655 83.8917V83.5028C537.655 82.1816 537.898 81.0068 538.384 79.9782C538.868 78.9496 539.563 78.1511 540.466 77.5824C541.376 77.0137 542.451 76.7295 543.69 76.7295C545.21 76.7295 546.474 77.1852 547.477 78.0966C548.49 79.0082 549.028 80.1914 549.096 81.6464H546.901C546.833 80.7684 546.499 80.0492 545.896 79.489C545.303 78.9203 544.567 78.6361 543.69 78.6361C542.511 78.6361 541.595 79.0625 540.942 79.9155C540.299 80.76 539.976 81.9851 539.976 83.5907V84.0297C539.976 85.5934 540.299 86.7975 540.942 87.6422C541.586 88.4867 542.505 88.909 543.701 88.909Z" fill="#231F20"/>
<path d="M560.083 90.5522C559.949 90.2846 559.84 89.808 559.757 89.1222C558.678 90.2427 557.391 90.803 555.894 90.803C554.556 90.803 553.457 90.4267 552.595 89.6741C551.742 88.9132 551.315 87.9516 551.315 86.7892C551.315 85.376 551.851 84.2805 552.921 83.5028C554 82.7167 555.513 82.3238 557.461 82.3238H559.719V81.2576C559.719 80.4465 559.477 79.8026 558.992 79.326C558.507 78.841 557.792 78.5985 556.847 78.5985C556.019 78.5985 555.325 78.8074 554.765 79.2255C554.204 79.6437 553.924 80.1496 553.924 80.7433H551.592C551.592 80.0659 551.829 79.4137 552.307 78.7865C552.791 78.1511 553.444 77.6493 554.263 77.2814C555.092 76.9134 555.998 76.7295 556.985 76.7295C558.549 76.7295 559.773 77.1225 560.66 77.9085C561.547 78.6862 562.007 79.7607 562.04 81.1321V87.3787C562.04 88.6246 562.198 89.6156 562.517 90.3515V90.5522H560.083ZM556.232 88.7835C556.961 88.7835 557.65 88.5955 558.303 88.2191C558.954 87.8428 559.427 87.3537 559.719 86.7515V83.9669H557.901C555.057 83.9669 553.636 84.7989 553.636 86.463C553.636 87.1906 553.879 87.7592 554.363 88.1689C554.849 88.5786 555.472 88.7835 556.232 88.7835Z" fill="#231F20"/>
<path d="M565.113 83.6538C565.113 81.5716 565.606 79.8991 566.594 78.6366C567.58 77.3655 568.872 76.7299 570.469 76.7299C572.058 76.7299 573.316 77.2735 574.245 78.3605V71.2861H576.565V90.5526H574.433L574.32 89.0976C573.392 90.2348 572.1 90.8035 570.444 90.8035C568.872 90.8035 567.588 90.1596 566.594 88.8718C565.606 87.584 565.113 85.9032 565.113 83.8294V83.6538ZM567.434 83.9172C567.434 85.4558 567.751 86.66 568.387 87.5297C569.023 88.3994 569.9 88.8342 571.021 88.8342C572.493 88.8342 573.567 88.1736 574.245 86.8523V80.6183C573.55 79.3389 572.484 78.6992 571.046 78.6992C569.909 78.6992 569.023 79.1382 568.387 80.0163C567.751 80.8943 567.434 82.1945 567.434 83.9172Z" fill="#231F20"/>
<path d="M585.81 90.803C583.969 90.803 582.473 90.201 581.318 88.9968C580.165 87.7843 579.588 86.1662 579.588 84.1426V83.716C579.588 82.3698 579.843 81.1698 580.354 80.1162C580.871 79.0542 581.591 78.2262 582.51 77.6326C583.439 77.0306 584.442 76.7295 585.521 76.7295C587.286 76.7295 588.656 77.3107 589.635 78.473C590.614 79.6354 591.103 81.2994 591.103 83.4652V84.4311H581.908C581.941 85.7689 582.331 86.8518 583.076 87.6798C583.828 88.4993 584.781 88.909 585.935 88.909C586.754 88.909 587.449 88.7418 588.017 88.4073C588.586 88.0728 589.083 87.6296 589.509 87.0776L590.927 88.1815C589.79 89.9292 588.083 90.803 585.81 90.803ZM585.521 78.6361C584.585 78.6361 583.799 78.9789 583.163 79.6646C582.527 80.342 582.134 81.2953 581.984 82.5245H588.782V82.3489C588.715 81.1698 588.398 80.2583 587.829 79.6145C587.26 78.9622 586.491 78.6361 585.521 78.6361Z" fill="#231F20"/>
<path d="M595.981 76.9803L596.044 78.4856C597.04 77.3148 598.382 76.7295 600.071 76.7295C601.969 76.7295 603.262 77.457 603.948 78.912C604.398 78.2598 604.984 77.7329 605.703 77.3315C606.43 76.9301 607.288 76.7295 608.275 76.7295C611.251 76.7295 612.765 78.3058 612.815 81.4583V90.5522H610.494V81.5962C610.494 80.6262 610.273 79.9029 609.83 79.4263C609.387 78.9413 608.642 78.6988 607.597 78.6988C606.736 78.6988 606.021 78.958 605.453 79.4765C604.884 79.9866 604.554 80.6764 604.461 81.5461V90.5522H602.129V81.659C602.129 79.6855 601.163 78.6988 599.231 78.6988C597.709 78.6988 596.667 79.3468 596.107 80.643V90.5522H593.786V76.9803H595.981Z" fill="#231F20"/>
<path d="M620.767 87.153L623.928 76.9805H626.412L620.956 92.6471C620.111 94.9048 618.769 96.0337 616.929 96.0337L616.49 95.9961L615.624 95.833V93.9515L616.252 94.0016C617.038 94.0016 617.649 93.8427 618.083 93.5251C618.527 93.2073 618.891 92.6261 619.174 91.7815L619.688 90.4017L614.847 76.9805H617.381L620.767 87.153Z" fill="#231F20"/>
<path fill-rule="evenodd" clip-rule="evenodd" d="M106.45 93.7325H113.924V95.6868H104.112V78.5061H106.45V93.7325ZM135.915 78.5061V80.4003H127.621V86.1073H134.336V87.9297H127.621V93.7924H135.915V95.6868H125.271V78.5061H135.915ZM162.253 95.6868H160.445C160.236 95.6868 160.068 95.6349 159.938 95.531C159.81 95.4271 159.713 95.2951 159.649 95.1353L158.034 90.9869H150.283L148.668 95.1353C148.612 95.2792 148.515 95.4071 148.379 95.5189C148.242 95.6309 148.074 95.6868 147.873 95.6868H146.065L152.972 78.5061H155.346L162.253 95.6868ZM150.935 89.309H157.384L154.671 82.3192C154.495 81.8876 154.322 81.348 154.153 80.7006C154.065 81.0283 153.979 81.3301 153.894 81.6058C153.81 81.8815 153.728 82.1233 153.647 82.3312L150.935 89.309ZM175.77 88.5172V95.6868H173.444V78.5061H178.326C179.419 78.5061 180.363 78.6159 181.158 78.8358C181.954 79.0556 182.611 79.3733 183.129 79.7889C183.647 80.2046 184.032 80.7061 184.281 81.2935C184.53 81.881 184.654 82.5385 184.654 83.2659C184.654 83.8732 184.558 84.4408 184.365 84.9683C184.172 85.4958 183.893 85.9695 183.527 86.389C183.161 86.8087 182.715 87.1664 182.189 87.4621C181.662 87.7579 181.066 87.9817 180.399 88.1335C180.688 88.3013 180.946 88.5452 181.17 88.8648L186.209 95.6868H184.136C183.709 95.6868 183.396 95.5229 183.195 95.1952L178.712 89.0567C178.575 88.8648 178.427 88.727 178.265 88.6431C178.104 88.5591 177.863 88.5172 177.542 88.5172H175.77ZM175.77 86.8271H178.217C178.9 86.8271 179.501 86.7452 180.019 86.5814C180.537 86.4175 180.972 86.1857 181.321 85.8859C181.67 85.5863 181.933 85.2286 182.11 84.8129C182.287 84.3973 182.375 83.9377 182.375 83.4341C182.375 82.411 182.036 81.6397 181.357 81.1202C180.678 80.6006 179.668 80.3409 178.325 80.3409H175.77V86.8271ZM198.699 78.5061C198.908 78.5061 199.063 78.532 199.164 78.584C199.264 78.6359 199.379 78.7418 199.507 78.9018L209.512 91.8502C209.487 91.6424 209.471 91.4405 209.463 91.2448C209.455 91.0489 209.451 90.859 209.451 90.6752V78.5061H211.5V95.6868H210.32C210.135 95.6868 209.979 95.6548 209.855 95.5909C209.73 95.5269 209.608 95.419 209.487 95.2671L199.495 82.3307C199.511 82.5305 199.523 82.7263 199.531 82.9181C199.539 83.11 199.543 83.2858 199.543 83.4457V95.6868H197.494V78.5061H198.699ZM227.258 95.6868H224.919V78.5061H227.258V95.6868ZM241.858 78.5061C242.067 78.5061 242.222 78.532 242.322 78.584C242.423 78.6359 242.537 78.7418 242.665 78.9018L252.671 91.8502C252.647 91.6424 252.631 91.4405 252.623 91.2448C252.615 91.0489 252.611 90.859 252.611 90.6752V78.5061H254.66V95.6868H253.478C253.293 95.6868 253.139 95.6548 253.014 95.5909C252.89 95.5269 252.767 95.419 252.647 95.2671L242.653 82.3307C242.67 82.5305 242.682 82.7263 242.69 82.9181C242.698 83.11 242.702 83.2858 242.702 83.4457V95.6868H240.653V78.5061H241.858ZM275.349 93.9965C275.815 93.9965 276.243 93.9746 276.633 93.9306C277.022 93.8866 277.391 93.8206 277.736 93.7328C278.081 93.6449 278.407 93.5389 278.712 93.4151C279.017 93.2912 279.323 93.1493 279.628 92.9894V89.2008H276.952C276.799 89.2008 276.677 89.1569 276.585 89.0689C276.492 88.981 276.446 88.8731 276.446 88.7452V87.4264H281.75V94.0205C281.316 94.3323 280.863 94.604 280.393 94.8358C279.924 95.0676 279.422 95.2614 278.887 95.4173C278.352 95.5731 277.78 95.6891 277.169 95.765C276.558 95.8409 275.896 95.8788 275.18 95.8788C273.927 95.8788 272.778 95.6651 271.732 95.2374C270.688 94.8098 269.788 94.2104 269.033 93.4391C268.278 92.6677 267.689 91.7426 267.267 90.6635C266.845 89.5844 266.634 88.3975 266.634 87.1027C266.634 85.7919 266.841 84.5969 267.255 83.5179C267.669 82.4388 268.26 81.5137 269.027 80.7424C269.794 79.971 270.723 79.3735 271.812 78.9499C272.9 78.5263 274.12 78.3145 275.47 78.3145C276.153 78.3145 276.787 78.3644 277.375 78.4643C277.961 78.5642 278.505 78.7081 279.007 78.8959C279.51 79.0838 279.974 79.3116 280.399 79.5794C280.825 79.8472 281.224 80.1488 281.593 80.4846L280.931 81.5396C280.793 81.7554 280.616 81.8634 280.399 81.8634C280.271 81.8634 280.13 81.8194 279.978 81.7315C279.777 81.6195 279.552 81.4837 279.303 81.3239C279.053 81.1639 278.75 81.0101 278.393 80.8622C278.035 80.7144 277.614 80.5885 277.127 80.4846C276.641 80.3807 276.064 80.3287 275.397 80.3287C274.425 80.3287 273.545 80.4866 272.757 80.8023C271.97 81.118 271.299 81.5696 270.745 82.1571C270.19 82.7445 269.764 83.4559 269.467 84.2912C269.169 85.1265 269.021 86.0636 269.021 87.1027C269.021 88.1897 269.175 89.1589 269.485 90.0101C269.794 90.8614 270.231 91.5827 270.793 92.1742C271.355 92.7656 272.023 93.2173 272.794 93.529C273.565 93.8407 274.417 93.9965 275.349 93.9965Z" fill="#014568"/>
<path fill-rule="evenodd" clip-rule="evenodd" d="M126.746 52.2014C128.178 52.2014 129.446 52.0793 130.55 51.8351C131.655 51.591 132.698 51.2655 133.68 50.8585V44.114H129.262C128.607 44.114 128.095 43.9411 127.728 43.5952C127.359 43.2493 127.175 42.8119 127.175 42.2829V36.6065H143.069V55.3752C141.924 56.2094 140.732 56.9266 139.494 57.5267C138.256 58.127 136.937 58.6203 135.536 59.007C134.135 59.3935 132.642 59.6784 131.057 59.8614C129.471 60.0445 127.768 60.1361 125.948 60.1361C122.675 60.1361 119.647 59.5613 116.865 58.4118C114.083 57.2623 111.675 55.6754 109.64 53.651C107.605 51.6266 106.01 49.2258 104.853 46.4486C103.698 43.6714 103.12 40.6553 103.12 37.3999C103.12 34.0836 103.673 31.0369 104.777 28.2597C105.881 25.4825 107.461 23.0869 109.517 21.0726C111.573 19.0584 114.058 17.4919 116.973 16.3728C119.888 15.2538 123.146 14.6943 126.746 14.6943C128.607 14.6943 130.356 14.8469 131.993 15.1521C133.629 15.4573 135.137 15.8744 136.518 16.4034C137.899 16.9324 139.162 17.5631 140.307 18.2955C141.453 19.0279 142.476 19.8214 143.375 20.676L140.368 25.2232C140.082 25.6504 139.74 25.9861 139.34 26.2302C138.942 26.4744 138.507 26.5965 138.036 26.5965C137.423 26.5965 136.789 26.3931 136.135 25.9861C135.317 25.4979 134.544 25.0756 133.818 24.7196C133.092 24.3635 132.35 24.0737 131.593 23.8498C130.837 23.626 130.039 23.4633 129.201 23.3615C128.361 23.2598 127.421 23.209 126.378 23.209C124.434 23.209 122.685 23.5497 121.131 24.2313C119.576 24.9129 118.252 25.8742 117.157 27.1153C116.063 28.3564 115.219 29.8467 114.625 31.5862C114.033 33.3258 113.736 35.2637 113.736 37.3999C113.736 39.7601 114.063 41.8556 114.718 43.6868C115.372 45.5179 116.278 47.0641 117.433 48.3255C118.589 49.5869 119.959 50.5483 121.545 51.2095C123.13 51.8708 124.864 52.2014 126.746 52.2014ZM159.761 43.1983V59.6476H149.391V15.1824H163.934C167.165 15.1824 169.922 15.513 172.203 16.1742C174.484 16.8355 176.345 17.7561 177.787 18.9362C179.23 20.1162 180.278 21.5098 180.932 23.1171C181.587 24.7244 181.914 26.4742 181.914 28.3663C181.914 29.8109 181.72 31.174 181.331 32.4557C180.942 33.7376 180.364 34.9226 179.597 36.0112C178.83 37.0997 177.89 38.0712 176.775 38.9256C175.66 39.7802 174.377 40.4821 172.924 41.0315C173.62 41.3773 174.269 41.8045 174.873 42.3132C175.476 42.8218 176.002 43.4423 176.453 44.1748L185.964 59.6476H176.575C174.837 59.6476 173.589 58.9965 172.832 57.6944L165.407 44.7852C165.079 44.2155 164.696 43.8086 164.256 43.5644C163.816 43.3203 163.198 43.1983 162.4 43.1983H159.761ZM159.76 36.0876H163.934C165.345 36.0876 166.547 35.9096 167.539 35.5535C168.531 35.1975 169.344 34.7041 169.978 34.0734C170.612 33.4426 171.073 32.7051 171.359 31.8608C171.645 31.0165 171.789 30.106 171.789 29.1294C171.789 27.1762 171.149 25.6504 169.87 24.5517C168.592 23.4529 166.613 22.9037 163.934 22.9037H159.76V36.0876ZM234.318 37.3999C234.318 40.6145 233.761 43.6054 232.646 46.3723C231.531 49.1394 229.962 51.5452 227.937 53.5899C225.911 55.6346 223.472 57.2369 220.618 58.3966C217.765 59.5563 214.599 60.1361 211.122 60.1361C207.645 60.1361 204.475 59.5563 201.611 58.3966C198.747 57.2369 196.298 55.6346 194.262 53.5899C192.227 51.5452 190.652 49.1394 189.537 46.3723C188.422 43.6054 187.865 40.6145 187.865 37.3999C187.865 34.1853 188.422 31.1946 189.537 28.4276C190.652 25.6606 192.227 23.2598 194.262 21.2252C196.298 19.1907 198.747 17.5936 201.611 16.4339C204.475 15.2742 207.645 14.6943 211.122 14.6943C214.599 14.6943 217.765 15.2793 220.618 16.4491C223.472 17.619 225.911 19.2212 227.937 21.2557C229.962 23.2903 231.531 25.6911 232.646 28.4581C233.761 31.2251 234.318 34.2057 234.318 37.3999ZM223.703 37.4001C223.703 35.2028 223.416 33.2242 222.844 31.4643C222.271 29.7044 221.447 28.2141 220.374 26.9933C219.3 25.7726 217.986 24.8368 216.431 24.1857C214.877 23.5347 213.107 23.2091 211.123 23.2091C209.118 23.2091 207.334 23.5347 205.769 24.1857C204.204 24.8368 202.885 25.7726 201.81 26.9933C200.737 28.2141 199.914 29.7044 199.341 31.4643C198.768 33.2242 198.481 35.2028 198.481 37.4001C198.481 39.6178 198.768 41.6065 199.341 43.3664C199.914 45.1263 200.737 46.6167 201.81 47.8374C202.885 49.0581 204.204 49.9889 205.769 50.6298C207.334 51.2707 209.118 51.5912 211.123 51.5912C213.107 51.5912 214.877 51.2707 216.431 50.6298C217.986 49.9889 219.3 49.0581 220.374 47.8374C221.447 46.6167 222.271 45.1263 222.844 43.3664C223.416 41.6065 223.703 39.6178 223.703 37.4001ZM249.659 33.1882H251.316C252.85 33.1882 253.955 32.7101 254.63 31.7539L264.694 17.2271C265.246 16.4337 265.875 15.8945 266.581 15.6097C267.287 15.3248 268.15 15.1824 269.173 15.1824H278.194L264.94 33.1577C264.469 33.8088 263.978 34.3479 263.467 34.7751C262.955 35.2024 262.434 35.5585 261.902 35.8433C262.679 36.1281 263.39 36.5198 264.034 37.0182C264.679 37.5167 265.267 38.183 265.798 39.0172L279.299 59.6476H270.033C269.439 59.6476 268.934 59.6069 268.514 59.5255C268.094 59.4442 267.732 59.3221 267.425 59.1594C267.117 58.9965 266.852 58.7981 266.626 58.5642C266.402 58.3302 266.187 58.0606 265.983 57.7554L255.857 42.2827C255.489 41.713 255.024 41.3112 254.461 41.0773C253.899 40.8432 253.137 40.7263 252.176 40.7263H249.659V59.6476H239.288V15.1824H249.659V33.1882Z" fill="#014568"/>
<path fill-rule="evenodd" clip-rule="evenodd" d="M58.7817 53.9226C56.9755 51.6715 54.9463 49.6865 52.8087 48.1305C52.8991 47.9742 52.9559 47.8139 52.9762 47.6506C61.332 45.8677 67.7003 41.5922 69.7387 34.5513C71.37 36.608 73.9 37.9285 76.7406 37.9285C81.6606 37.9285 85.649 33.9671 85.649 29.0804C85.649 24.1938 81.6606 20.2324 76.7406 20.2324C73.5271 20.2324 70.711 21.9224 69.144 24.4563C65.6313 17.3397 55.3207 10.2783 43.1483 10.2783C30.9758 10.2783 20.6652 17.3397 17.1526 24.4563C15.5856 21.9224 12.7695 20.2324 9.556 20.2324C4.636 20.2324 0.647552 24.1938 0.647552 29.0804C0.647552 33.9671 4.636 37.9285 9.556 37.9285C12.3966 37.9285 14.9266 36.608 16.5579 34.5513C18.5348 41.3799 24.5844 45.6073 32.5699 47.4825C32.5696 47.4929 32.5695 47.5034 32.5695 47.5139C32.5695 47.9108 32.784 48.2915 33.1772 48.6443C31.2901 50.1141 29.4991 51.9123 27.8861 53.9226C26.1114 53.0733 20.5711 50.9616 13.5355 53.5611C4.94469 56.7351 3.01038 65.3861 3.01038 65.3861C2.92132 65.8161 2.87467 66.2608 2.87467 66.7167C2.87467 70.3643 5.86324 73.3207 9.5502 73.3207C13.2371 73.3207 16.7642 70.3643 16.7642 66.7167C16.7642 63.2349 14.5873 60.5655 11.622 60.0113C11.622 60.0113 14.0015 55.522 20.4187 56.0342C24.3165 56.3453 24.9102 57.5448 24.7757 58.4387C22.0458 63.0875 20.3204 68.2932 20.3204 73.0341C20.3204 79.4868 24.2646 82.6931 29.1855 84.2857C28.6692 85.4209 28.2359 86.6725 27.815 87.8884C26.305 92.2504 27.3592 96.5669 30.1698 97.5294C32.9803 98.492 36.4829 95.7362 37.9929 91.3742C38.6386 89.5092 39.3133 87.5602 39.4763 85.804C40.8655 85.8506 42.1739 85.8555 43.3339 85.8555C44.3903 85.8555 45.5698 85.8515 46.8214 85.8155C46.9862 87.5688 47.6594 89.5132 48.3036 91.3742C49.8137 95.7362 53.3163 98.492 56.1268 97.5294C58.9373 96.5669 59.9916 92.2504 58.4816 87.8884C58.0732 86.7089 57.6533 85.4958 57.1572 84.3881C62.2284 82.8321 66.3474 79.6282 66.3474 73.0341C66.3474 68.2932 64.622 63.0875 61.8921 58.4387C61.7576 57.5448 62.3513 56.3453 66.2491 56.0342C72.6662 55.522 75.0458 60.0113 75.0458 60.0113C72.0805 60.5655 69.9035 63.2349 69.9035 66.7167C69.9035 70.3643 73.4306 73.3207 77.1176 73.3207C80.8046 73.3207 83.7931 70.3643 83.7931 66.7167C83.7931 66.2608 83.7465 65.8161 83.6574 65.3861C83.6574 65.3861 81.723 56.7351 73.1324 53.5611C66.0967 50.9616 60.5565 53.0732 58.7817 53.9226Z" fill="#014568"/>
</g>
<path d="M356.5 266C378.868 266 397 246.524 397 222.5C397 198.476 378.868 179 356.5 179C334.132 179 316 198.476 316 222.5C316 246.524 334.132 266 356.5 266Z" fill="white"/>
<path d="M217.253 175.114C215.502 173.801 213.131 173.126 210.195 173.126H196.752C193.524 173.126 190.971 173.783 189.183 175.114C187.141 176.628 186.083 179.036 186.083 182.41V186.951C182.964 181.771 178.623 177.795 173.406 175.114C168.081 172.36 161.843 170.938 155.058 170.938C148.091 170.938 141.597 172.433 135.779 175.114C131.165 177.248 126.97 180.13 123.285 183.632C112.926 193.463 106.651 208.145 106.651 224.487C106.651 240.83 112.926 255.53 123.285 265.361C125.948 267.897 128.867 270.103 132.04 271.927C138.77 275.83 146.559 278.037 155.058 278.037C163.339 278.037 170.999 275.94 177.145 271.927C180.994 269.429 184.259 266.182 186.685 262.242V267.368C186.685 268.954 186.612 270.486 186.447 271.927C184.751 288.452 173.516 295.638 158.615 295.638C150.316 295.638 142.418 293.45 135.104 289.893C128.976 286.938 124.234 288.124 120.878 294.051L117.923 299.377C114.549 305.305 115.734 311.05 122.063 313.804C133.518 319.349 147.361 322.304 162.372 322.304C192.831 322.304 218.001 308.515 220.628 271.927C220.792 269.83 220.865 267.659 220.865 265.398V183.796C220.865 179.802 219.624 176.883 217.253 175.114ZM164.159 250.77C150.133 250.77 141.433 238.915 141.433 224.487C141.433 210.079 150.133 198.205 164.159 198.205C177.784 198.205 186.685 209.878 186.685 224.487C186.685 239.115 177.784 250.77 164.159 250.77Z" fill="#005FBE"/>
<path d="M304.035 175.114C303.324 172.889 301.737 171.138 298.472 171.138C298.071 170.937 295.7 170.938 295.499 170.938C292.107 170.938 286.817 171.922 281.82 175.114C276.312 178.616 271.186 184.781 269.417 195.25V183.796C269.417 179.802 268.104 176.865 265.715 175.114C263.945 173.801 261.593 173.126 258.747 173.126H245.706C242.77 173.126 240.399 173.801 238.648 175.114C236.277 176.883 235.036 179.802 235.036 183.796V265.197C235.036 267.951 235.638 270.213 236.805 271.927C238.538 274.517 241.548 275.867 245.706 275.867H259.933C264.091 275.867 267.101 274.517 268.833 271.927C270.001 270.213 270.603 267.951 270.603 265.197V232.604C270.603 214.219 277.916 204.735 292.143 204.735C293.73 204.735 295.116 204.735 296.885 204.935C301.427 205.519 304.6 202.965 304.6 197.038V179.236C304.6 177.868 304.454 176.409 304.035 175.114Z" fill="#005FBE"/>
<path d="M538.528 261.841L533.786 251.955C531.816 248.016 528.843 247.414 524.502 248.399C522.715 249.001 520.745 249.201 519.76 249.201C514.817 249.201 510.659 247.414 506.318 240.1L494.663 220.748L520.544 186.167C523.991 181.443 523.973 177.394 521.146 175.114C519.596 173.856 517.188 173.126 514.033 173.126H498.019C494.9 173.126 492.383 173.764 490.213 175.114C488.389 176.245 486.82 177.868 485.379 180.039L462.653 214.62V143.67C462.653 136.757 458.896 133 451.983 133H437.757C430.844 133 427.087 136.757 427.087 143.67V265.197C427.087 267.951 427.689 270.213 428.856 271.927C430.589 274.517 433.598 275.867 437.757 275.867H451.983C456.142 275.867 459.151 274.517 460.884 271.927C462.051 270.213 462.653 267.951 462.653 265.197V229.047L474.308 252.357C478.612 261.257 483.719 267.714 489.957 271.927C496.049 276.068 503.254 278.037 511.844 278.037C518.574 278.037 526.472 276.669 534.388 272.31C534.625 272.183 534.844 272.055 535.063 271.927C538.035 270.176 539.349 267.878 539.349 265.379C539.349 264.23 539.075 263.027 538.528 261.841Z" fill="#005FBE"/>
<path d="M252.152 304.433C256.731 304.433 261.24 306.004 264.522 310.652V305.185H271.152V339.355H264.522V333.888C261.24 338.536 256.731 340.107 252.152 340.107C241.9 340.107 235.2 332.042 235.2 322.27C235.2 312.496 241.9 304.433 252.152 304.433ZM252.97 310.309C245.865 310.309 241.831 315.777 241.831 322.27C241.831 328.762 245.865 334.229 252.97 334.229C259.874 334.229 264.591 329.172 264.657 322.27C264.591 315.368 259.874 310.309 252.97 310.309Z" fill="#005FBE"/>
<path d="M298.342 304.433C301.417 304.433 305.995 305.185 310.577 308.6L307.434 313.111C303.808 310.378 299.504 310.309 298.616 310.309C291.234 310.309 285.768 315.231 285.768 322.27C285.768 329.309 291.234 334.229 298.616 334.229C299.504 334.229 303.808 334.162 307.434 331.429L310.577 335.938C305.995 339.355 301.417 340.107 298.342 340.107C286.246 340.107 279.138 332.385 279.138 322.681C279.138 312.633 285.903 304.433 298.342 304.433Z" fill="#005FBE"/>
<path d="M331.484 304.433C336.062 304.433 340.571 306.004 343.853 310.652V305.185H350.484V339.355H343.853V333.888C340.571 338.536 336.062 340.107 331.484 340.107C321.231 340.107 314.532 332.042 314.532 322.27C314.532 312.496 321.231 304.433 331.484 304.433ZM332.302 310.309C325.196 310.309 321.162 315.777 321.162 322.27C321.162 328.762 325.196 334.229 332.302 334.229C339.206 334.229 343.923 329.172 343.989 322.27C343.923 315.368 339.206 310.309 332.302 310.309Z" fill="#005FBE"/>
<path d="M375.487 304.433C380.069 304.433 384.578 306.004 387.86 310.652V289.943H394.487V339.355H387.86V333.888C384.578 338.536 380.069 340.107 375.487 340.107C365.238 340.107 358.539 332.042 358.539 322.27C358.539 312.496 365.238 304.433 375.487 304.433ZM376.308 310.309C369.2 310.309 365.169 315.777 365.169 322.27C365.169 328.762 369.2 334.229 376.308 334.229C383.212 334.229 387.926 329.172 387.995 322.27C387.926 315.368 383.212 310.309 376.308 310.309Z" fill="#005FBE"/>
<path d="M436.646 333.751C432.272 338.672 426.737 340.107 421.681 340.107C409.789 340.107 402.407 332.111 402.407 322.407C402.407 312.428 410.198 304.433 420.793 304.433C429.812 304.433 438.22 310.241 438.22 322.885H409.037C408.832 329.514 414.163 334.229 421.75 334.229C425.85 334.229 429.541 332.864 432.959 329.924L436.646 333.751ZM409.65 317.759H431.385C429.541 311.539 424.689 310.241 420.929 310.241C416.898 310.241 411.907 311.813 409.65 317.759Z" fill="#005FBE"/>
<path d="M468.966 320.083C468.966 312.839 465.615 310.309 461.993 310.309C458.44 310.309 452.288 312.702 452.288 323.5V339.355H445.661V305.185H452.288V312.018C453.723 307.029 458.166 304.433 463.223 304.433C466.505 304.433 471.427 305.526 474.092 311.609C476.893 305.663 481.61 304.433 485.71 304.433C493.775 304.433 498.898 309.079 498.898 320.083V339.355H492.271V320.083C492.271 312.839 488.923 310.309 485.298 310.309C482.088 310.309 475.936 312.292 475.593 322.748V339.355H468.966V320.083Z" fill="#005FBE"/>
<path d="M531.623 305.185H539.349L518.366 354.664H511.94L518.297 338.194L503.878 305.185H511.462L521.918 330.676L531.623 305.185Z" fill="#005FBE"/>
<path d="M350.592 219.425C350.063 223.712 346.16 226.758 341.874 226.229C337.588 225.718 334.542 221.815 335.071 217.51C335.581 213.224 339.485 210.178 343.789 210.707C348.075 211.236 351.121 215.139 350.592 219.425Z" fill="#005FBE"/>
<path d="M391.101 224.404C390.572 228.69 386.669 231.736 382.383 231.207C378.097 230.678 375.051 226.775 375.58 222.489C376.109 218.203 380.012 215.157 384.298 215.686C388.584 216.215 391.63 220.118 391.101 224.404Z" fill="#005FBE"/>
<path d="M362.831 170.581C333.265 170.581 309.281 194.566 309.281 224.131C309.281 253.715 333.265 277.681 362.831 277.681C392.415 277.681 416.381 253.715 416.381 224.131C416.381 194.566 392.415 170.581 362.831 170.581ZM364.126 262.014C363.688 262.032 363.269 262.05 362.831 262.05C362.411 262.05 361.973 262.032 361.554 262.014C357.815 261.886 354.24 261.248 350.848 260.099L353.346 251.946H372.315L374.814 260.099C371.421 261.248 367.847 261.886 364.126 262.014ZM396.646 209.558L392.889 240.127C392.25 245.434 387.417 249.21 382.127 248.553L337.934 243.118C332.627 242.461 328.869 237.646 329.508 232.357L333.265 201.788C333.922 196.481 338.755 192.723 344.044 193.362L364.308 195.86L365.038 189.951L362.064 189.586C360.423 189.386 359.274 187.89 359.456 186.267C359.657 184.753 360.934 183.64 362.411 183.64C362.539 183.64 362.667 183.64 362.794 183.658L372.388 184.826C374.029 185.045 375.197 186.522 374.996 188.164C374.814 189.677 373.519 190.79 372.005 190.79C371.896 190.79 371.768 190.772 371.658 190.772L368.686 190.407L367.974 196.316L388.238 198.797C393.527 199.435 397.303 204.269 396.646 209.558Z" fill="#005FBE"/>
<defs>
<clipPath id="clip0">
<rect width="644.705" height="108" fill="white" transform="translate(0.647552)"/>
</clipPath>
</defs>
</svg>
