<?xml version="1.0" encoding="UTF-8" standalone="no"?>
<svg width="80px" height="80px" viewBox="0 0 80 80" version="1.1" xmlns="http://www.w3.org/2000/svg" xmlns:xlink="http://www.w3.org/1999/xlink" xmlns:sketch="http://www.bohemiancoding.com/sketch/ns">
    <!-- Generator: Sketch 3.4 (15575) - http://www.bohemiancoding.com/sketch -->
    <title>icon-browser</title>
    <desc>Created with Sketch.</desc>
    <defs>
        <path id="path-1" d="M0.147951807,40.0009639 C0.147951807,62.0091566 17.9905221,79.8515663 40.0004819,79.8515663 C62.0094779,79.8515663 79.8520482,62.0091566 79.8520482,40.0009639 C79.8520482,17.9892369 62.0094779,0.148433735 40.0004819,0.148433735 C17.9905221,0.148433735 0.147951807,17.9892369 0.147951807,40.0009639 Z"></path>
        <linearGradient x1="50%" y1="0%" x2="50%" y2="100%" id="linearGradient-3">
            <stop stop-color="#252825" offset="0%"></stop>
            <stop stop-color="#70716C" offset="100%"></stop>
        </linearGradient>
    </defs>
    <g id="New-competitions-page" stroke="none" stroke-width="1" fill="none" fill-rule="evenodd" sketch:type="MSPage">
        <g id="Desktop-HD" sketch:type="MSArtboardGroup" transform="translate(-1119.000000, -1872.000000)">
            <g id="learning-interface-features" sketch:type="MSLayerGroup" transform="translate(149.000000, 1799.000000)">
                <g id="Code-in-the-browser-+-Code-from-any-device-+-Technology-20" transform="translate(879.000000, 73.000000)">
                    <g id="icon-browser" transform="translate(91.000000, 0.000000)">
                        <mask id="mask-2" sketch:name="Mask" fill="white">
                            <use xlink:href="#path-1"></use>
                        </mask>
                        <use id="Mask" fill="#2891E0" sketch:type="MSShapeGroup" xlink:href="#path-1"></use>
                        <path d="M45.8604682,59.0168072 L45.8936341,53.5481766 C45.8936341,53.0751055 45.5077446,52.6907631 45.0322176,52.6907631 L35.2886194,52.6907631 C34.812196,52.6907631 34.427651,53.0751055 34.427651,53.5481766 L34.4644024,58.9998641 L32.4497992,62.0121811 L32.4497992,62.5967205 C32.4497992,63.0702375 32.8356887,62.9609986 33.3112157,62.9609986 L47.0087248,62.9609986 C47.4847001,62.9609986 47.8714859,63.0702375 47.8714859,62.5967205 L47.8714859,62.0121811 L45.8604682,59.0168072 L45.8604682,59.0168072 Z" id="Clip-3-Copy" fill="#252825" sketch:type="MSShapeGroup" mask="url(#mask-2)"></path>
                        <path d="M47.420161,62.3293173 C47.2978058,62.3293173 47.1575231,62.3191053 47.0087248,62.3191053 L33.3112157,62.3191053 C33.1624175,62.3191053 33.0221347,62.3293173 32.9002277,62.3293173 C32.6317634,62.3293173 32.4497992,62.2787014 32.4497992,61.9541382 L34.4644024,58.4651951 L34.4393039,54.7791165 L45.8833258,54.7791165 L45.8604682,58.4820671 L47.8714859,61.9541382 C47.8714859,62.2787014 47.6890736,62.3293173 47.420161,62.3293173 L47.420161,62.3293173 Z" id="Clip-78-Copy" fill="url(#linearGradient-3)" sketch:type="MSShapeGroup" mask="url(#mask-2)"></path>
                        <path d="M63.4345382,17.1098795 L16.5654618,17.1098795 C14.8104418,17.1098795 13.3885944,18.533012 13.3885944,20.2877108 L13.3885944,51.6661847 C13.3885944,53.4207229 14.8104418,54.8427309 16.5654618,54.8427309 L63.4345382,54.8427309 C65.1884337,54.8427309 66.6114056,53.4207229 66.6114056,51.6661847 L66.6114056,20.2877108 C66.6114056,18.533012 65.1884337,17.1098795 63.4345382,17.1098795" id="Fill-208" fill="#333333" sketch:type="MSShapeGroup" mask="url(#mask-2)"></path>
                        <path id="Fill-209" fill="#2E2F2C" sketch:type="MSShapeGroup" mask="url(#mask-2)" d="M15.6735743,19.1987149 L64.2295582,19.1987149 L64.2295582,19.3654618 L15.6735743,19.3654618 L15.6735743,19.1987149 Z"></path>
                        <path d="M15.6735743,19.2459438 L64.2295582,19.2459438 L64.2295582,52.5548594 L15.6735743,52.5548594 L15.6735743,19.2459438 Z" id="Fill-259" fill="#F5F5F5" sketch:type="MSShapeGroup" mask="url(#mask-2)"></path>
                        <path d="M40.0001606,21.5940562 C32.1853815,21.5940562 25.8507631,27.9283534 25.8507631,35.7434538 C25.8507631,43.5575904 32.1853815,49.8923695 40.0001606,49.8923695 C47.8142972,49.8923695 54.1492369,43.5575904 54.1492369,35.7434538 C54.1492369,27.9283534 47.8142972,21.5940562 40.0001606,21.5940562" id="Fill-260" fill="#165F96" sketch:type="MSShapeGroup" mask="url(#mask-2)"></path>
                        <path d="M45.1081124,39.0406426 C46.2594378,38.046747 47.5799197,37.2565462 49.0629719,36.6693976 C49.424739,38.4849799 49.6159036,40.4295582 49.6346988,42.4923695 C47.7948594,41.5261044 46.2830522,40.3739759 45.1081124,39.0406426 L45.1081124,39.0406426 Z M44.6372691,38.4748594 C43.8738956,37.4983133 43.2759839,36.4337349 42.8507631,35.2806426 C42.61751,34.6480321 42.4436948,34.008996 42.3193574,33.3696386 C43.9563052,33.0666667 45.7114859,32.579759 47.5733333,31.853012 C48.1285141,33.1216064 48.5725301,34.4830522 48.9044177,35.9307631 C47.1938956,36.6011245 45.7885944,37.4869076 44.6372691,38.4748594 L44.6372691,38.4748594 Z M40.986988,43.1982329 C40.4817671,44.2085141 40.1095582,45.2025703 39.833253,46.1208032 C38.4371084,45.657992 37.1180723,45.0469076 35.8785542,44.2865863 C37.4106024,40.333012 37.3733333,36.699759 36.7691566,33.7546988 C37.1359036,33.773012 37.5092369,33.7853815 37.8960643,33.7853815 C39.0364659,33.7853815 40.2629719,33.6992771 41.5686747,33.49751 C41.702008,34.177992 41.8875502,34.8607229 42.1371888,35.5384739 C42.5969478,36.7874699 43.2428916,37.9383133 44.0711647,38.988755 C42.6584739,40.3381526 41.6708434,41.8302008 40.986988,43.1982329 L40.986988,43.1982329 Z M35.2409639,43.8772691 C33.5691566,42.7574297 32.0483534,41.3561446 30.6857831,39.6743775 C30.2793574,39.173012 29.9066667,38.6682731 29.5653012,38.1688353 C29.8494779,37.1816867 30.2228112,36.1413655 30.713253,35.0915663 C31.0666667,34.335261 31.459759,33.61751 31.8891566,32.9351004 C32.1921285,33.024257 32.504257,33.1090763 32.8271486,33.1882731 C33.7609639,33.4165462 34.8194378,33.6014458 35.9897189,33.7021687 C36.7593574,37.1706024 36.5079518,40.5728514 35.2409639,43.8772691 L35.2409639,43.8772691 Z M34.6017671,29.584257 C34.8888353,30.213012 35.1611245,30.8870683 35.4032129,31.6027309 C35.5522892,32.0441767 35.6830522,32.4843373 35.7995181,32.9238554 C34.7890763,32.824257 33.8692369,32.6599197 33.048996,32.4613655 C32.8014458,32.4016064 32.5608032,32.3371888 32.3248193,32.2703614 C33.0003213,31.2923695 33.7606426,30.397751 34.6017671,29.584257 L34.6017671,29.584257 Z M42.0976707,25.1527711 C41.4883534,27.2914056 41.0528514,29.9791165 41.4432129,32.7473092 C39.6682731,33.0208835 38.0470683,33.0737349 36.5964659,32.986506 C36.4547791,32.4136546 36.2941365,31.8700402 36.1216064,31.3598394 C35.8409639,30.5291566 35.5225703,29.7546988 35.1889157,29.0412851 C37.1037751,27.3506827 39.4094779,26.0526908 42.0976707,25.1527711 L42.0976707,25.1527711 Z M42.8565462,25.3376707 C43.2106024,25.6461044 43.5646586,25.9787952 43.9151807,26.339759 C45.2653815,27.7309237 46.379759,29.3452209 47.2560643,31.1612851 C45.46249,31.8583133 43.7731727,32.3261044 42.1979116,32.6184739 C41.8403213,29.9861847 42.2689157,27.3996787 42.8565462,25.3376707 L42.8565462,25.3376707 Z M49.7848996,36.4073896 C51.1175904,35.9535743 52.5696386,35.6493173 54.1463454,35.5052209 C54.1418474,35.2504418 54.1314056,34.9974297 54.1138956,34.7461847 C52.4327711,34.8970281 50.9429719,35.2191165 49.6226506,35.6668273 C49.2660241,34.1431325 48.8041767,32.7829719 48.2738956,31.5709237 C49.6745382,30.9868273 51.1325301,30.2673092 52.6441767,29.3879518 C52.5299598,29.1614458 52.4107631,28.9383133 52.2849799,28.7190361 C50.7860241,29.5918072 49.3418474,30.3029719 47.9569478,30.8791968 C46.9171084,28.7137349 45.6677912,27.0562249 44.4594378,25.811245 C44.0944578,25.4353414 43.726747,25.0888353 43.3595181,24.7680321 C44.735743,24.3868273 46.2028916,24.1008835 47.7611245,23.9116466 C47.4226506,23.6893173 47.0746988,23.4806426 46.7172691,23.2873896 C45.4902811,23.4730924 44.3452209,23.7185542 43.2756627,24.0142972 C43.5307631,23.2836948 43.7876305,22.6578313 44.0043373,22.1696386 C43.7564659,22.0965462 43.5057028,22.0297189 43.2523695,21.9701205 C43.0086747,22.5175904 42.7251406,23.2133333 42.4502811,24.0229719 C40.9270683,22.8541365 39.4801606,22.1240161 38.4051406,21.6840161 C37.8814458,21.7428112 37.3662651,21.8297189 36.8616867,21.9440964 C37.6915663,22.1916466 39.6499598,22.8917269 41.7839357,24.4748594 C38.9066667,25.4621687 36.6432129,26.8338956 34.8604016,28.3678715 C33.7559839,26.1911647 32.5641767,24.6824096 32.026988,24.0533333 C31.8168675,24.1971084 31.6109237,24.3463454 31.4093173,24.5007229 C31.9055422,25.0811245 33.1503614,26.6406426 34.2722892,28.8933333 C33.1906827,29.9057028 32.3039357,30.9751004 31.5771888,32.0425703 C29.5926104,31.3946988 28.0824096,30.5500402 27.1074699,29.9052209 C27.0006426,30.1410442 26.900241,30.3805622 26.8061044,30.6231325 C27.7922892,31.2652209 29.2496386,32.0645783 31.1481124,32.70249 C30.7060241,33.413494 30.3291566,34.1182329 30.0126908,34.7988755 C29.6106024,35.6626506 29.2857831,36.515502 29.0215261,37.337992 C27.5076305,34.9159839 26.7238554,32.7272289 26.4207229,31.7587149 C26.2881928,32.2101205 26.1776707,32.6708434 26.0904418,33.139759 C26.5747791,34.428755 27.4097992,36.3036145 28.7360643,38.2987952 C28.2006426,40.2560643 28.0061044,41.9749398 27.9404016,43.1461847 C28.1680321,43.5163052 28.4117269,43.8753414 28.6713253,44.2216867 C28.673253,43.3653012 28.7514859,41.4504418 29.3121285,39.1272289 C29.5537349,39.460241 29.8073896,39.7948594 30.0772691,40.128996 C31.2891566,41.6284337 32.893494,43.2170281 34.9611245,44.568996 C34.455261,45.7497189 33.8191165,46.9175904 33.0526908,48.071004 C33.2735743,48.1959839 33.4978313,48.3145382 33.7262651,48.4274699 C34.4968675,47.2559036 35.1129317,46.1004016 35.5993574,44.9683534 C36.7964659,45.6881928 38.1373494,46.3253012 39.6358233,46.8239357 C39.3040964,48.0986345 39.1601606,49.1754217 39.09751,49.8629719 C39.3503614,49.8788755 39.6046586,49.8880321 39.8607229,49.8906024 C39.9232129,49.2412851 40.0613655,48.2361446 40.3653012,47.053012 C42.2939759,47.6171888 44.4685944,47.9530924 46.9143775,47.9530924 C46.9943775,47.9530924 47.0753414,47.9516466 47.1556627,47.951004 C47.5733333,47.7055422 47.9773494,47.4396787 48.3661044,47.1538956 C45.553253,47.3073092 42.9490763,47.0361446 40.5624096,46.3460241 C40.828755,45.4526908 41.1890763,44.4864257 41.6780723,43.5127711 C42.4496386,41.9763855 43.4081928,40.6583133 44.5466667,39.5558233 C45.8549398,41.0372691 47.5540562,42.30249 49.6326104,43.3452209 C49.6195984,44.2864257 49.5720482,45.2509237 49.4896386,46.2379116 C49.7738153,45.9805622 50.0478715,45.7114859 50.3105221,45.4319679 C50.3482731,44.8438554 50.3738153,44.268755 50.386506,43.7082731 C50.7124498,43.8568675 51.0472289,43.9998394 51.3893976,44.1386345 C51.5432932,43.9301205 51.6918876,43.7167871 51.8343775,43.499759 C51.3373494,43.3015261 50.8600803,43.0923695 50.3988755,42.8734137 C50.4030522,40.4567068 50.1747791,38.3122892 49.7848996,36.4073896 L49.7848996,36.4073896 Z" id="Fill-261" fill="#9CCCF1" sketch:type="MSShapeGroup" mask="url(#mask-2)"></path>
                        <path d="M49.3246586,35.053494 C48.7134137,35.053494 48.217992,35.5489157 48.217992,36.1601606 C48.217992,36.771245 48.7134137,37.2666667 49.3246586,37.2666667 C49.9355823,37.2666667 50.4306827,36.771245 50.4306827,36.1601606 C50.4306827,35.5489157 49.9355823,35.053494 49.3246586,35.053494" id="Fill-262" fill="#9CCCF1" sketch:type="MSShapeGroup" mask="url(#mask-2)"></path>
                        <path d="M44.5506827,37.835502 C43.9395984,37.835502 43.4443373,38.3309237 43.4443373,38.942008 C43.4443373,39.553253 43.9395984,40.0485141 44.5506827,40.0485141 C45.1620884,40.0485141 45.6571888,39.553253 45.6571888,38.942008 C45.6571888,38.3309237 45.1620884,37.835502 44.5506827,37.835502" id="Fill-263" fill="#9CCCF1" sketch:type="MSShapeGroup" mask="url(#mask-2)"></path>
                        <path d="M40.0618474,45.5492369 C39.4507631,45.5492369 38.955502,46.0443373 38.955502,46.6555823 C38.955502,47.266988 39.4507631,47.7620884 40.0618474,47.7620884 C40.6727711,47.7620884 41.1681928,47.266988 41.1681928,46.6555823 C41.1681928,46.0443373 40.6727711,45.5492369 40.0618474,45.5492369" id="Fill-264" fill="#9CCCF1" sketch:type="MSShapeGroup" mask="url(#mask-2)"></path>
                        <path d="M35.4146185,43.2730924 C34.8040161,43.2730924 34.3081124,43.7683534 34.3081124,44.3795984 C34.3081124,44.9908434 34.8040161,45.4859438 35.4146185,45.4859438 C36.0257028,45.4859438 36.5214458,44.9908434 36.5214458,44.3795984 C36.5214458,43.7683534 36.0257028,43.2730924 35.4146185,43.2730924" id="Fill-265" fill="#9CCCF1" sketch:type="MSShapeGroup" mask="url(#mask-2)"></path>
                        <path d="M29.1238554,37.1084337 C28.5126104,37.1084337 28.0171888,37.6038554 28.0171888,38.2151004 C28.0171888,38.8261847 28.5126104,39.3214458 29.1238554,39.3214458 C29.7346185,39.3214458 30.2303614,38.8261847 30.2303614,38.2151004 C30.2303614,37.6038554 29.7346185,37.1084337 29.1238554,37.1084337" id="Fill-266" fill="#9CCCF1" sketch:type="MSShapeGroup" mask="url(#mask-2)"></path>
                        <path d="M31.7473092,31.3548594 C31.1365462,31.3548594 30.6408032,31.8501205 30.6408032,32.4613655 C30.6408032,33.0726104 31.1365462,33.5677108 31.7473092,33.5677108 C32.3587149,33.5677108 32.8538153,33.0726104 32.8538153,32.4613655 C32.8538153,31.8501205 32.3587149,31.3548594 31.7473092,31.3548594" id="Fill-267" fill="#9CCCF1" sketch:type="MSShapeGroup" mask="url(#mask-2)"></path>
                        <path d="M36.3630522,32.2716466 C35.7519679,32.2716466 35.2567068,32.766747 35.2567068,33.377992 C35.2567068,33.9893976 35.7519679,34.484498 36.3630522,34.484498 C36.9739759,34.484498 37.4693976,33.9893976 37.4693976,33.377992 C37.4693976,32.766747 36.9739759,32.2716466 36.3630522,32.2716466" id="Fill-268" fill="#9CCCF1" sketch:type="MSShapeGroup" mask="url(#mask-2)"></path>
                        <path d="M34.6877108,27.7826506 C34.0766265,27.7826506 33.5810442,28.277751 33.5810442,28.8891566 C33.5810442,29.5004016 34.0766265,29.9956627 34.6877108,29.9956627 C35.2983133,29.9956627 35.7940562,29.5004016 35.7940562,28.8891566 C35.7940562,28.277751 35.2983133,27.7826506 34.6877108,27.7826506" id="Fill-269" fill="#9CCCF1" sketch:type="MSShapeGroup" mask="url(#mask-2)"></path>
                        <path d="M42.6857831,23.1039357 C41.917751,23.1039357 41.2946185,23.7262651 41.2946185,24.4949398 C41.2946185,25.2634538 41.917751,25.8857831 42.6857831,25.8857831 C43.4539759,25.8857831 44.0766265,25.2634538 44.0766265,24.4949398 C44.0766265,23.7262651 43.4539759,23.1039357 42.6857831,23.1039357" id="Fill-270" fill="#9CCCF1" sketch:type="MSShapeGroup" mask="url(#mask-2)"></path>
                        <path d="M41.8639357,32.0187952 C41.2526908,32.0187952 40.7572691,32.5140562 40.7572691,33.1253012 C40.7572691,33.7363855 41.2526908,34.2318072 41.8639357,34.2318072 C42.4748594,34.2318072 42.9699598,33.7363855 42.9699598,33.1253012 C42.9699598,32.5140562 42.4748594,32.0187952 41.8639357,32.0187952" id="Fill-271" fill="#9CCCF1" sketch:type="MSShapeGroup" mask="url(#mask-2)"></path>
                        <path d="M47.8387149,30.2485141 C47.2273092,30.2485141 46.7325301,30.7436145 46.7325301,31.3548594 C46.7325301,31.9662651 47.2273092,32.4613655 47.8387149,32.4613655 C48.4499598,32.4613655 48.9452209,31.9662651 48.9452209,31.3548594 C48.9452209,30.7436145 48.4499598,30.2485141 47.8387149,30.2485141" id="Fill-272" fill="#9CCCF1" sketch:type="MSShapeGroup" mask="url(#mask-2)"></path>
                        <path d="M49.9882731,41.8820884 C49.37751,41.8820884 48.8819277,42.3771888 48.8819277,42.9884337 C48.8819277,43.5998394 49.37751,44.0951004 49.9882731,44.0951004 C50.5991968,44.0951004 51.0946185,43.5998394 51.0946185,42.9884337 C51.0946185,42.3771888 50.5991968,41.8820884 49.9882731,41.8820884" id="Fill-273" fill="#9CCCF1" sketch:type="MSShapeGroup" mask="url(#mask-2)"></path>
                    </g>
                </g>
            </g>
        </g>
    </g>
</svg>