<?xml version="1.0" encoding="UTF-8" standalone="no"?>
<svg width="80px" height="80px" viewBox="0 0 80 80" version="1.1" xmlns="http://www.w3.org/2000/svg" xmlns:xlink="http://www.w3.org/1999/xlink" xmlns:sketch="http://www.bohemiancoding.com/sketch/ns">
    <!-- Generator: Sketch 3.4 (15575) - http://www.bohemiancoding.com/sketch -->
    <title>icon-automarking</title>
    <desc>Created with Sketch.</desc>
    <defs>
        <path id="path-1" d="M40,0 C62.0908531,0 80,17.9071108 80,40.0003158 C80,62.0903629 62.0908531,80 40,80 C17.9085153,80 0,62.0903629 0,40.0003158 C0,17.9071108 17.9085153,0 40,0 Z"></path>
    </defs>
    <g id="New-competitions-page" stroke="none" stroke-width="1" fill="none" fill-rule="evenodd" sketch:type="MSPage">
        <g id="Desktop-HD" sketch:type="MSArtboardGroup" transform="translate(-1118.000000, -2177.000000)">
            <g id="learning-interface-features" sketch:type="MSLayerGroup" transform="translate(149.000000, 1799.000000)">
                <g id="Intelligent-automark-+-Our-automarker-break-+-Seo-01" transform="translate(878.000000, 378.000000)">
                    <g id="icon-automarking" transform="translate(91.000000, 0.000000)">
                        <mask id="mask-2" sketch:name="Mask" fill="white">
                            <use xlink:href="#path-1"></use>
                        </mask>
                        <use id="Mask" fill="#FB4251" sketch:type="MSShapeGroup" xlink:href="#path-1"></use>
                        <path d="M36.016378,66.4755906 L35.4355906,67.7574803 C35.4355906,69.3209449 37.1874016,71.2289764 40.2387402,71.2289764 C43.2919685,71.2289764 45.343622,69.3209449 45.343622,67.7574803 L44.7634646,66.4755906 L36.016378,66.4755906" id="Fill-2" fill="#B0B0B0" sketch:type="MSShapeGroup" mask="url(#mask-2)"></path>
                        <path d="M34.1587402,63.8840945 L33.3322835,65.5395276 C33.3322835,67.5577953 35.8261417,70.0207874 40.1738583,70.0207874 C44.5240945,70.0207874 47.4469291,67.5577953 47.4469291,65.5395276 L46.6211024,63.8840945 L34.1587402,63.8840945" id="Fill-3" fill="#D5D5D5" sketch:type="MSShapeGroup" mask="url(#mask-2)"></path>
                        <path d="M33.4784252,61.6503937 L32.5612598,63.4853543 C32.5612598,65.7240945 35.327874,68.4566929 40.1511811,68.4566929 C44.9751181,68.4566929 48.2179528,65.7240945 48.2179528,63.4853543 L47.3007874,61.6503937 L33.4784252,61.6503937" id="Fill-4" fill="#B0B0B0" sketch:type="MSShapeGroup" mask="url(#mask-2)"></path>
                        <path d="M33.2377953,59.632126 L32.287874,61.5319685 C32.287874,63.8488189 35.152126,66.6759055 40.1429921,66.6759055 C45.1344882,66.6759055 48.4907087,63.8488189 48.4907087,61.5319685 L47.5420472,59.632126 L33.2377953,59.632126" id="Fill-5" fill="#D5D5D5" sketch:type="MSShapeGroup" mask="url(#mask-2)"></path>
                        <path d="M33.2377953,57.7335433 L32.287874,59.632126 C32.287874,61.9489764 35.152126,64.7766929 40.1429921,64.7766929 C45.1344882,64.7766929 48.4907087,61.9489764 48.4907087,59.632126 L47.5420472,57.7335433 L33.2377953,57.7335433" id="Fill-6" fill="#B0B0B0" sketch:type="MSShapeGroup" mask="url(#mask-2)"></path>
                        <path d="M44.1543307,52.5896063 L36.6255118,52.5896063 C34.2299213,52.5896063 32.287874,54.4674016 32.287874,56.783622 L32.287874,57.7335433 C32.287874,60.0497638 35.152126,62.8781102 40.1429921,62.8781102 C45.1344882,62.8781102 48.4907087,60.0497638 48.4907087,57.7335433 L48.4907087,56.783622 C48.4907087,54.4674016 46.5492913,52.5896063 44.1543307,52.5896063" id="Fill-7" fill="#D5D5D5" sketch:type="MSShapeGroup" mask="url(#mask-2)"></path>
                        <path d="M60.8144882,30.32 C60.8144882,18.9486614 51.6044094,9.73795276 40.2337008,9.73543307 C28.8617323,9.74110236 19.6529134,18.9486614 19.6529134,30.3218898 C19.6529134,44.4107087 32.8472441,46.3483465 32.8472441,55.5168504 C32.8472441,61.4185827 47.8948031,61.5710236 47.8948031,55.4998425 C47.8948031,46.5171654 60.8144882,44.8661417 60.8144882,30.32 Z" id="Fill-8" fill="#FBDF63" sketch:type="MSShapeGroup" mask="url(#mask-2)"></path>
                        <path d="M23.2201575,31.848189 C20.1656693,28.7943307 23.5193701,20.3370079 26.5732283,17.2831496 C29.6277165,14.2286614 37.0217323,11.3303937 40.0755906,14.3848819 C43.1300787,17.4387402 26.2746457,34.9026772 23.2201575,31.848189" id="Fill-9" fill="#FDEDA8" sketch:type="MSShapeGroup" mask="url(#mask-2)"></path>
                        <path d="M45.8066142,44.1568504 C45.5420472,43.5458268 44.9606299,43.7631496 44.9606299,43.7631496 C43.3096063,44.2790551 41.632126,48.703622 40.6223622,51.8866142 C39.6132283,48.703622 37.936378,44.2790551 36.2847244,43.7631496 C36.2847244,43.7631496 35.703937,43.5458268 35.4387402,44.1568504 C35.1892913,44.7319685 35.6598425,45.0790551 35.8381102,45.1899213 C36.8453543,45.816063 38.296063,49.2006299 39.5729134,53.5584252 C39.7014173,53.9924409 39.8381102,59.5294488 39.9609449,59.9817323 C39.9609449,59.9817323 40.3244094,60.0062992 40.616063,60.0062992 C40.9795276,60.0062992 41.3102362,59.9729134 41.3102362,59.9729134 C41.4355906,59.5130709 41.5483465,53.9754331 41.6787402,53.5325984 C42.9543307,49.1867717 44.4012598,45.8148031 45.4072441,45.1899213 C45.5848819,45.0790551 46.0566929,44.7319685 45.8066142,44.1568504" id="Fill-10" fill="#FDEDA8" sketch:type="MSShapeGroup" mask="url(#mask-2)"></path>
                    </g>
                </g>
            </g>
        </g>
    </g>
</svg>