<?xml version="1.0" encoding="UTF-8"?>
<svg width="288px" height="400px" viewBox="0 0 288 400" version="1.1" xmlns="http://www.w3.org/2000/svg" xmlns:xlink="http://www.w3.org/1999/xlink">
    <!-- Generator: Sketch 41.2 (35397) - http://www.bohemiancoding.com/sketch -->
    <title>rocket-flying</title>
    <desc>Created with Sketch.</desc>
    <defs></defs>
    <g id="Page-1" stroke="none" stroke-width="1" fill="none" fill-rule="evenodd">
        <g id="rocket-flying">
            <path d="M154,386.1205 C154.788046,386.972082 155.359447,387.911487 155.602079,388.907585 C155.602079,384.802204 159.602079,381.659842 162.602079,381.659842 C165.602079,381.659842 169.602079,381.659842 170.59282,384.802204 C170.59282,380.5 174.71687,372.658084 181.409475,372.282835 C188.102079,371.907585 193.073896,372.044682 196.736675,376.38429 C200.82955,370.440115 204.289183,365.5 212.102079,365.5 C219.102079,365.5 223.006571,367.487557 226.184332,369.157992 C229.354356,361.931695 233.793801,360.5 241.102079,360.5 C248.410358,360.5 255.602079,364.272295 258.102079,371.907585 C261.903219,370.763271 268.863433,371.074185 274,375.433038 C277.897921,378.740785 277.5,383.433038 277.5,388.907585 C286,388.907585 288,398.426639 288,399.893293 L-7.10542736e-15,399.893293 C-7.10542736e-15,399.893293 2.5,388.907585 12,388.907585 C12,384.802204 13.9596419,377.491136 17.1020794,375.433038 C25.6020794,369.866076 33.6020794,373.838428 33.6020794,373.838428 C33.6020794,373.838428 35.6020794,362.937557 46.1020794,360.5 C56.6020794,358.062443 62.1568315,359.985534 67.6544803,366.867941 C70.919652,365.212059 74.6020794,362 80.6020794,362 C92.1020794,362 93.3782475,369.034412 97.734904,374.838428 C100.249728,373.706422 105.080895,372.271466 110.102079,373.838428 C115.123263,375.405389 117.123263,380.275219 117.123263,383.433038 C119.102079,381.659842 123.102079,379.886646 126.602079,381.659842 C130.102079,383.433038 131.663759,386.5 131.663759,388.907585 C132.494486,387.325899 133.632615,385.927845 135,384.792089 L135,137 L154,137 L154,386.1205 Z" id="Combined-Shape" fill="#FC8690"></path>
            <path d="M148,392.489631 C151.44018,393.685797 154.807841,396.066007 155.5,398.907585 C155.5,394.802204 159.5,391.659842 162.5,391.659842 C165.5,391.659842 169.5,391.659842 170.49074,394.802204 C170.49074,390.5 174.61479,382.658084 181.307395,382.282835 C188,381.907585 192.971817,382.044682 196.634596,386.38429 C199.5,379.157992 204,377.5 212,375.5 C216.66309,374.334227 223.5,375.5 226.082252,379.157992 C229.5,375.5 231.691721,372 239,372 C246.308279,372 251.5,375.5 253,381.907585 C256.80114,380.763271 263.920863,382.013228 268.5,386.38429 C273.079137,390.755353 273,397.13584 273,399.893293 L148,399.893293 L148,400 L141,400 L141,399.893293 L17,399.893293 C17,399.893293 15.5,391 24,385.433038 C32.5,379.866076 40.5,383.838428 40.5,383.838428 C40.5,383.838428 44,373.5 52.5,372 C61,370.5 65.4475991,372.632059 67,377.5 C68.9475991,372.632059 74.5,370.5 80.5,370.5 C92,370.5 95,379.157992 96.5,383.838428 C99.0148243,382.706422 104.978816,382.271466 110,383.838428 C115.021184,385.405389 117.021184,390.275219 117.021184,393.433038 C119,391.659842 123,389.886646 126.5,391.659842 C130,393.433038 131.56168,396.5 131.56168,398.907585 C133.438787,395.333614 136.885424,392.697222 141,391.906 L141,147 L148,147 L148,392.489631 Z" id="Combined-Shape" fill="#FB4251"></path>
            <g id="rocket" transform="translate(97.000000, 0.000000)">
                <path d="M39.1532128,86.4969512 C27.3890223,90.0343241 16.5774414,95.349676 6.93246187,102.074402 L6.93246187,145.926829 C16.8995798,132.154461 29.8917315,120.54494 45.2385621,112.262934 L39.1532128,86.4969512" id="Fill-78" fill="#10466E"></path>
                <path d="M6.34313725,147.551401 C6.34313725,149.253502 5.02452342,150.634146 3.39798747,150.634146 L3.39577751,150.634146 C1.7685049,150.634146 0.449891068,149.253502 0.449891068,147.551401 L0.449891068,101.34799 C0.449891068,99.6451175 1.7685049,98.2652439 3.39577751,98.2652439 L3.39798747,98.2652439 C5.02452342,98.2652439 6.34313725,99.6451175 6.34313725,101.34799 L6.34313725,147.551401" id="Fill-79" fill="#D5E1EB"></path>
                <path d="M56.0385083,86.4969512 C67.8026988,90.0343241 78.6142798,95.349676 88.2592593,102.074402 L88.2592593,145.926829 C78.2921413,132.154461 65.3007566,120.54494 49.953159,112.262934 L56.0385083,86.4969512" id="Fill-80" fill="#10466E"></path>
                <path d="M88.2592593,147.551401 C88.2592593,149.253502 89.5778731,150.634146 91.2051457,150.634146 L91.206619,150.634146 C92.8338916,150.634146 94.1525054,149.253502 94.1525054,147.551401 L94.1525054,101.34799 C94.1525054,99.6451175 92.8338916,98.2652439 91.206619,98.2652439 L91.2051457,98.2652439 C89.5778731,98.2652439 88.2592593,99.6451175 88.2592593,101.34799 L88.2592593,147.551401" id="Fill-81" fill="#D5E1EB"></path>
                <path d="M35.1688782,130.039634 L32.8627451,143.183093 C32.8627451,145.245843 39.4590544,147.692073 47.5958606,147.692073 C55.731898,147.692073 62.328976,145.245843 62.328976,143.183093 L60.022843,130.039634 L35.1688782,130.039634" id="Fill-82" fill="#10466E"></path>
                <path d="M47.5958606,130.039634 L47.5958606,147.692073 L47.5966292,147.692073 C55.7322422,147.692073 62.328976,145.245843 62.328976,143.183093 L60.0229633,130.039634 L47.5958606,130.039634" id="Fill-83" fill="#10466E"></path>
                <path d="M76.4727669,73.7648152 C76.4727669,108.743819 63.5443707,137.10061 47.5958606,137.10061 C31.6473504,137.10061 18.7189542,108.743819 18.7189542,73.7632734 C18.7197237,38.7827282 47.5958606,0 47.5958606,0 C47.5958606,0 76.4727669,38.7827282 76.4727669,73.7648152" id="Fill-84" fill="#FFFFFF"></path>
                <path d="M47.5958606,0 L47.5958606,137.10061 L47.59663,137.10061 C63.5447152,137.10061 76.4727669,108.743819 76.4727669,73.7648152 C76.4727669,38.7827282 47.59663,0 47.59663,0 L47.5958606,0" id="Fill-85" fill="#D5E1EB"></path>
                <path d="M61.7396514,53.8403247 C61.7396514,61.8013543 55.2747531,68.2576398 47.3011983,68.2560973 C39.3268709,68.2576398 32.8627451,61.8013543 32.8627451,53.8403247 C32.8627451,45.8785237 39.3268709,39.4222382 47.3011983,39.4237808 C55.2755256,39.4222382 61.7396514,45.8785237 61.7396514,53.8403247" id="Fill-86" fill="#10466E"></path>
                <path d="M55.4267443,45.7263743 C59.9144808,50.2070685 59.9152513,57.4728096 55.4282855,61.9535037 C50.9382374,66.4341979 43.662618,66.4341979 39.1748816,61.9535037 C34.6871451,57.4728096 34.6879157,50.2070685 39.1748816,45.7263743 C43.662618,41.2456801 50.9382374,41.2456801 55.4267443,45.7263743 Z" id="Fill-87" fill="#FB4251"></path>
                <path d="M35.8093682,53.7403754 C35.8093682,50.8292483 36.9215827,47.9181212 39.1460117,45.6972142 C41.3704408,43.4763072 44.2861844,42.3658537 47.2011642,42.3658537 C50.1169079,42.3658537 53.0318877,43.4763072 55.2570806,45.6972142 L39.1460117,61.7835366 C36.9215827,59.5626296 35.8093682,56.6515025 35.8093682,53.7403754 Z" id="Fill-88" fill="#FC8690"></path>
            </g>
        </g>
    </g>
</svg>