<?xml version="1.0" encoding="UTF-8" standalone="no"?>
<svg width="172px" height="172px" viewBox="0 0 172 172" version="1.1" xmlns="http://www.w3.org/2000/svg" xmlns:xlink="http://www.w3.org/1999/xlink" xmlns:sketch="http://www.bohemiancoding.com/sketch/ns">
    <!-- Generator: Sketch 3.4 (15575) - http://www.bohemiancoding.com/sketch -->
    <title>short-activities</title>
    <desc>Created with Sketch.</desc>
    <defs></defs>
    <g id="New-teachers-page" stroke="none" stroke-width="1" fill="none" fill-rule="evenodd" sketch:type="MSPage">
        <g id="Desktop-HD" sketch:type="MSArtboardGroup" transform="translate(-633.000000, -2154.000000)">
            <g id="short-activities-+-courses-and-comps" sketch:type="MSLayerGroup" transform="translate(149.000000, 2085.000000)">
                <g id="short-activites" transform="translate(332.000000, 72.000000)" sketch:type="MSShapeGroup">
                    <g id="short-activities" transform="translate(155.000000, 0.000000)">
                        <path d="M123.690999,76.5407089 C123.690999,79.1883038 121.543057,81.3357975 118.894909,81.3357975 L47.5063007,81.3357975 C44.8602543,81.3357975 42.712312,79.1883038 42.712312,76.5407089 L42.712312,5.17121519 C42.712312,2.52362025 44.8602543,0.376126582 47.5063007,0.376126582 L118.894909,0.376126582 C121.543057,0.376126582 123.690999,2.52362025 123.690999,5.17121519 L123.690999,76.5407089" id="Fill-2" stroke="#DD0516" stroke-width="4.8255814" fill="#FB4251"></path>
                        <path d="M75.0260239,44.6771139 L91.9720699,44.6771139 L83.420233,21.279519 L75.0260239,44.6771139 L75.0260239,44.6771139 Z M97.7706736,60.4155949 L95.0615761,53.3007089 L72.0100774,53.3007089 L69.3051833,60.5710886 C68.2459241,63.4056962 67.342191,65.3199494 66.5960858,66.3117468 C65.8478788,67.3056456 64.6246866,67.8015443 62.920204,67.8015443 C61.4763328,67.8015443 60.2005979,67.2720253 59.0908978,66.2150886 C57.9832993,65.1581519 57.4284493,63.9604304 57.4284493,62.6198228 C57.4284493,61.846557 57.5566533,61.0480759 57.8151629,60.2222785 C58.0736726,59.3985823 58.5003187,58.2491899 59.0908978,56.7804051 L73.5989663,19.9662278 C74.0087987,18.9092911 74.5048011,17.6380253 75.089075,16.1566329 C75.6670438,14.6731392 76.2870468,13.4417975 76.9427787,12.4626076 C77.6006123,11.4834177 78.4665147,10.6891392 79.5341807,10.0839747 C80.6060502,9.47881013 81.9259208,9.17622785 83.497996,9.17622785 C85.0952917,9.17622785 86.4340777,9.47881013 87.5017438,10.0839747 C88.5736132,10.6891392 89.4353122,11.4729114 90.0952475,12.4247848 C90.7530811,13.3787595 91.3058295,14.4041772 91.7576961,15.4989367 C92.2095626,16.5957975 92.783328,18.0561772 93.4789923,19.8863797 L108.291808,56.471519 C109.454051,59.2556962 110.034121,61.2813165 110.034121,62.5420759 C110.034121,63.8574684 109.487678,65.0614937 108.386385,66.1583544 C107.2956,67.2531139 105.973628,67.8015443 104.426773,67.8015443 C103.52304,67.8015443 102.747511,67.6418481 102.102287,67.3182532 C101.457064,66.9967595 100.916926,66.5575949 100.481873,66.0028608 C100.042617,65.4502278 99.5697329,64.5992152 99.0695272,63.4519241 C98.5630163,62.3046329 98.1321668,61.2918228 97.7706736,60.4155949 L97.7706736,60.4155949 Z" id="Fill-3" fill="#F5F5F5"></path>
                        <path d="M81.0411031,161.072532 C81.0411031,163.720127 78.8889573,165.865519 76.2450127,165.865519 L4.85850618,165.865519 C2.21035809,165.865519 0.062415746,163.720127 0.062415746,161.072532 L0.062415746,89.7009367 C0.062415746,87.0533418 2.21035809,84.9079494 4.85850618,84.9079494 L76.2450127,84.9079494 C78.8889573,84.9079494 81.0411031,87.0533418 81.0411031,89.7009367 L81.0411031,161.072532" id="Fill-4" stroke="#1B79BF" stroke-width="4.8255814" fill="#2891E0"></path>
                        <path d="M42.199496,127.948177 L30.2471006,127.948177 L30.2471006,144.499848 L42.5862097,144.499848 C50.3478057,144.499848 54.2275528,141.703063 54.2275528,136.109494 C54.2275528,133.249671 53.2208362,131.17362 51.2095046,129.883443 C49.2023765,128.597468 46.1927352,127.948177 42.199496,127.948177 L42.199496,127.948177 Z M30.2471006,105.056987 L30.2471006,119.713316 L40.7661333,119.713316 C43.6328587,119.713316 45.8417505,119.440152 47.4012155,118.902228 C48.9606805,118.360101 50.1544488,117.32838 50.9804188,115.809165 C51.6235405,114.724911 51.9451013,113.512481 51.9451013,112.169772 C51.9451013,109.312051 50.9257745,107.408304 48.8913242,106.469038 C46.8505688,105.52557 43.7463508,105.056987 39.5681616,105.056987 L30.2471006,105.056987 L30.2471006,105.056987 Z M43.0485848,153.125544 L25.7221301,153.125544 C23.2189996,153.125544 21.4325505,152.564506 20.3648845,151.44243 C19.2951167,150.322456 18.7612837,148.53638 18.7612837,146.086304 L18.7612837,103.470532 C18.7612837,100.970025 19.3077269,99.173443 20.4027152,98.074481 C21.4998051,96.9818228 23.2715423,96.4333924 25.7221301,96.4333924 L44.0952338,96.4333924 C46.8022296,96.4333924 49.1498339,96.6014937 51.1317416,96.9355949 C53.1178526,97.2717975 54.8958949,97.9147848 56.4721736,98.8666582 C57.8109595,99.6693418 58.9963211,100.680051 60.0303598,101.905089 C61.0622969,103.130127 61.8504362,104.483342 62.3884727,105.964734 C62.9286108,107.448228 63.1997307,109.013671 63.1997307,110.665266 C63.1997307,116.336582 60.3645309,120.484481 54.6899279,123.115266 C62.1446749,125.487595 65.8730993,130.104076 65.8730993,136.960506 C65.8730993,140.131316 65.0555361,142.984835 63.4351217,145.525266 C61.8084021,148.063595 59.616324,149.942127 56.8588872,151.152456 C55.1291842,151.875291 53.1430731,152.383797 50.9026557,152.680076 C48.6559333,152.976354 46.0414125,153.125544 43.0485848,153.125544 L43.0485848,153.125544 Z" id="Fill-5" fill="#F5F5F5"></path>
                        <path d="M166.338794,161.072532 C166.338794,163.720127 164.192953,165.865519 161.544805,165.865519 L90.1604004,165.865519 C87.514354,165.865519 85.3664116,163.720127 85.3664116,161.072532 L85.3664116,89.7009367 C85.3664116,87.0533418 87.514354,84.9079494 90.1604004,84.9079494 L161.544805,84.9079494 C164.192953,84.9079494 166.338794,87.0533418 166.338794,89.7009367 L166.338794,161.072532" id="Fill-6" stroke="#D9B306" stroke-width="4.8255814" fill="#FAD841"></path>
                        <path d="M151.032078,137.565671 C151.032078,139.374861 150.584414,141.324835 149.699597,143.426101 C148.808474,145.527367 147.408738,147.59081 145.50039,149.614329 C143.589941,151.639949 141.156167,153.281038 138.192763,154.543899 C135.225155,155.808861 131.767851,156.439241 127.822951,156.439241 C124.830123,156.439241 122.114721,156.15557 119.664133,155.588228 C117.213545,155.022987 114.98784,154.138354 112.993322,152.940633 C110.990397,151.74081 109.155609,150.160658 107.476347,148.202278 C105.982034,146.422506 104.704198,144.432608 103.649142,142.22838 C102.589883,140.022051 101.799642,137.670734 101.270012,135.172329 C100.744586,132.669722 100.477669,130.015823 100.477669,127.204329 C100.477669,122.642481 101.141808,118.553418 102.472187,114.945544 C103.798363,111.33557 105.698304,108.24881 108.174113,105.681063 C110.652023,103.11962 113.550274,101.165443 116.875171,99.8227342 C120.204271,98.4863291 123.747745,97.8118228 127.516102,97.8118228 C132.104124,97.8118228 136.194041,98.7300759 139.777448,100.560278 C143.360855,102.390481 146.107783,104.651443 148.016131,107.345266 C149.920276,110.04119 150.876551,112.587924 150.876551,114.983367 C150.876551,116.298759 150.412075,117.458658 149.485223,118.463063 C148.558371,119.46957 147.431857,119.971772 146.118292,119.971772 C144.6492,119.971772 143.550008,119.622962 142.810208,118.929544 C142.076713,118.231924 141.25915,117.034203 140.355417,115.332177 C138.856901,112.520684 137.099876,110.421519 135.075934,109.02838 C133.054094,107.637342 130.557269,106.939722 127.589662,106.939722 C122.873436,106.939722 119.113486,108.732101 116.318219,112.316861 C113.518748,115.899519 112.119013,120.992987 112.119013,127.590962 C112.119013,131.999418 112.739015,135.666127 113.974818,138.59319 C115.212722,141.518152 116.965544,143.703468 119.235385,145.147038 C121.505226,146.590608 124.161781,147.311342 127.202948,147.311342 C130.504726,147.311342 133.29579,146.493949 135.578242,144.857063 C137.860693,143.220177 139.584091,140.814228 140.742131,137.645519 C141.229726,136.149418 141.837119,134.930684 142.560105,133.989316 C143.283092,133.050051 144.445335,132.579367 146.040529,132.579367 C147.408738,132.579367 148.58149,133.058456 149.558782,134.010329 C150.540279,134.964304 151.032078,136.149418 151.032078,137.565671" id="Fill-7" fill="#F5F5F5"></path>
                    </g>
                </g>
            </g>
        </g>
    </g>
</svg>